<svg width="136" height="50" viewBox="0 0 136 50" fill="none" xmlns="http://www.w3.org/2000/svg">
<path d="M51.8 20.8634C51.6432 20.9804 48.8757 22.4806 48.8757 25.8164C48.8757 29.6748 52.3973 31.0398 52.5027 31.0736C52.4865 31.1568 51.9432 32.943 50.6459 34.763C49.4892 36.3646 48.2811 37.9636 46.4432 37.9636C44.6054 37.9636 44.1324 36.9366 42.0108 36.9366C39.9432 36.9366 39.2081 37.9974 37.527 37.9974C35.8459 37.9974 34.673 36.5154 33.3243 34.6954C31.7622 32.5582 30.5 29.238 30.5 26.0868C30.5 21.0324 33.9162 18.3518 37.2784 18.3518C39.0649 18.3518 40.5541 19.4802 41.6757 19.4802C42.7432 19.4802 44.4081 18.2842 46.4405 18.2842C47.2108 18.2842 49.9784 18.3518 51.8 20.8634ZM45.4757 16.1444C46.3162 15.185 46.9108 13.8538 46.9108 12.5226C46.9108 12.338 46.8946 12.1508 46.8595 12C45.4919 12.0494 43.8649 12.8762 42.8838 13.9708C42.1135 14.8132 41.3946 16.1444 41.3946 17.4938C41.3946 17.6966 41.4297 17.8994 41.4459 17.9644C41.5324 17.98 41.673 17.9982 41.8135 17.9982C43.0405 17.9982 44.5838 17.2078 45.4757 16.1444Z" fill="black"/>
<path d="M63.4506 30.5C63.3653 30.5 63.2853 30.468 63.2106 30.404C63.1466 30.34 63.1146 30.26 63.1146 30.164L63.1466 30.02L67.0026 19.7C67.0773 19.4333 67.264 19.3 67.5626 19.3H69.3066C69.584 19.3 69.7706 19.4333 69.8666 19.7L73.7226 30.02C73.7333 30.052 73.7386 30.1 73.7386 30.164C73.7386 30.26 73.7066 30.34 73.6426 30.404C73.5786 30.468 73.504 30.5 73.4186 30.5H72.0266C71.888 30.5 71.7813 30.468 71.7066 30.404C71.632 30.34 71.584 30.2707 71.5626 30.196L70.8106 28.244H66.0586L65.3066 30.196C65.2213 30.3987 65.0666 30.5 64.8426 30.5H63.4506ZM70.2506 26.404L68.4266 21.46L66.6186 26.404H70.2506ZM75.4404 33.54C75.3337 33.54 75.243 33.5027 75.1684 33.428C75.0937 33.364 75.0564 33.2733 75.0564 33.156V22.564C75.0564 22.4467 75.0937 22.356 75.1684 22.292C75.243 22.2173 75.3337 22.18 75.4404 22.18H76.7044C76.8217 22.18 76.9124 22.2173 76.9764 22.292C77.051 22.356 77.0884 22.4467 77.0884 22.564V23.204C77.6857 22.4147 78.539 22.02 79.6484 22.02C80.7257 22.02 81.5524 22.3613 82.1284 23.044C82.7044 23.716 83.0137 24.628 83.0564 25.78C83.067 25.908 83.0724 26.0947 83.0724 26.34C83.0724 26.596 83.067 26.788 83.0564 26.916C83.0137 28.036 82.7044 28.9427 82.1284 29.636C81.5524 30.3187 80.7257 30.66 79.6484 30.66C78.571 30.66 77.7497 30.2813 77.1844 29.524V33.156C77.1844 33.2733 77.147 33.364 77.0724 33.428C77.0084 33.5027 76.9177 33.54 76.8004 33.54H75.4404ZM79.0564 28.948C80.2084 28.948 80.8217 28.2387 80.8964 26.82C80.907 26.7133 80.9124 26.5533 80.9124 26.34C80.9124 26.1267 80.907 25.9667 80.8964 25.86C80.8217 24.4413 80.2084 23.732 79.0564 23.732C78.4377 23.732 77.979 23.9293 77.6804 24.324C77.3817 24.7187 77.2164 25.204 77.1844 25.78L77.1684 26.388L77.1844 27.012C77.2057 27.5453 77.371 28.004 77.6804 28.388C78.0004 28.7613 78.459 28.948 79.0564 28.948ZM85.2685 33.54C85.1618 33.54 85.0712 33.5027 84.9965 33.428C84.9218 33.364 84.8845 33.2733 84.8845 33.156V22.564C84.8845 22.4467 84.9218 22.356 84.9965 22.292C85.0712 22.2173 85.1618 22.18 85.2685 22.18H86.5325C86.6498 22.18 86.7405 22.2173 86.8045 22.292C86.8792 22.356 86.9165 22.4467 86.9165 22.564V23.204C87.5138 22.4147 88.3672 22.02 89.4765 22.02C90.5538 22.02 91.3805 22.3613 91.9565 23.044C92.5325 23.716 92.8418 24.628 92.8845 25.78C92.8952 25.908 92.9005 26.0947 92.9005 26.34C92.9005 26.596 92.8952 26.788 92.8845 26.916C92.8418 28.036 92.5325 28.9427 91.9565 29.636C91.3805 30.3187 90.5538 30.66 89.4765 30.66C88.3992 30.66 87.5778 30.2813 87.0125 29.524V33.156C87.0125 33.2733 86.9752 33.364 86.9005 33.428C86.8365 33.5027 86.7458 33.54 86.6285 33.54H85.2685ZM88.8845 28.948C90.0365 28.948 90.6498 28.2387 90.7245 26.82C90.7352 26.7133 90.7405 26.5533 90.7405 26.34C90.7405 26.1267 90.7352 25.9667 90.7245 25.86C90.6498 24.4413 90.0365 23.732 88.8845 23.732C88.2658 23.732 87.8072 23.9293 87.5085 24.324C87.2098 24.7187 87.0445 25.204 87.0125 25.78L86.9965 26.388L87.0125 27.012C87.0338 27.5453 87.1992 28.004 87.5085 28.388C87.8285 28.7613 88.2872 28.948 88.8845 28.948ZM95.0966 30.5C94.99 30.5 94.8993 30.4627 94.8246 30.388C94.75 30.3133 94.7126 30.2227 94.7126 30.116V19.524C94.7126 19.4067 94.75 19.316 94.8246 19.252C94.8993 19.1773 94.99 19.14 95.0966 19.14H96.4246C96.542 19.14 96.6326 19.1773 96.6966 19.252C96.7713 19.316 96.8086 19.4067 96.8086 19.524V30.116C96.8086 30.2227 96.7713 30.3133 96.6966 30.388C96.6326 30.4627 96.542 30.5 96.4246 30.5H95.0966ZM102.515 30.66C101.331 30.66 100.387 30.3187 99.683 29.636C98.9897 28.9427 98.6217 27.972 98.579 26.724L98.563 26.324L98.579 25.924C98.6323 24.708 99.0057 23.7533 99.699 23.06C100.403 22.3667 101.342 22.02 102.515 22.02C103.774 22.02 104.744 22.404 105.427 23.172C106.12 23.94 106.467 24.964 106.467 26.244V26.58C106.467 26.6867 106.43 26.7773 106.355 26.852C106.28 26.9267 106.184 26.964 106.067 26.964H100.755V27.092C100.776 27.6787 100.936 28.1747 101.235 28.58C101.544 28.9747 101.966 29.172 102.499 29.172C103.128 29.172 103.635 28.9267 104.019 28.436C104.115 28.3187 104.19 28.244 104.243 28.212C104.307 28.18 104.398 28.164 104.515 28.164H105.891C105.987 28.164 106.067 28.196 106.131 28.26C106.206 28.3133 106.243 28.3827 106.243 28.468C106.243 28.724 106.088 29.028 105.779 29.38C105.48 29.7213 105.048 30.02 104.483 30.276C103.918 30.532 103.262 30.66 102.515 30.66ZM104.291 25.62V25.572C104.291 24.9427 104.131 24.436 103.811 24.052C103.502 23.668 103.07 23.476 102.515 23.476C101.96 23.476 101.528 23.668 101.219 24.052C100.91 24.436 100.755 24.9427 100.755 25.572V25.62H104.291Z" fill="#0C3261"/>
<rect x="0.5" y="0.5" width="135" height="49" rx="11.5" stroke="#EBE8F2"/>
</svg>
