<svg width="180" height="52" viewBox="0 0 180 52" fill="none" xmlns="http://www.w3.org/2000/svg">
<rect width="180" height="52" rx="8" fill="#131022"/>
<path d="M43.5694 25.8085C43.5333 21.8987 46.8528 19.9966 47.0046 19.908C45.1246 17.2356 42.2107 16.8705 41.1867 16.8414C38.7394 16.5903 36.3655 18.2692 35.1188 18.2692C33.8473 18.2692 31.9275 16.8656 29.8584 16.9069C27.1958 16.9469 24.705 18.4499 23.3389 20.7839C20.5195 25.5428 22.6222 32.5362 25.3233 36.3829C26.6745 38.2668 28.2534 40.3703 30.32 40.2963C32.3418 40.2151 33.097 39.0396 35.5369 39.0396C37.9543 39.0396 38.6635 40.2963 40.7712 40.249C42.941 40.2151 44.3072 38.3566 45.6111 36.4557C47.1725 34.2964 47.7996 32.1699 47.8245 32.0607C47.7735 32.0437 43.6104 30.4946 43.5694 25.8085Z" fill="white"/>
<path d="M39.588 14.3109C40.6754 12.985 41.4194 11.1811 41.2129 9.35059C39.639 9.41852 37.6707 10.412 36.5372 11.7088C35.5344 12.8515 34.6386 14.7245 34.87 16.4859C36.638 16.6145 38.4533 15.6162 39.588 14.3109Z" fill="white"/>
<path d="M72.7597 40.0258H69.9341L68.3864 35.2838H63.0065L61.5321 40.0258H58.7812L64.1114 23.882H67.4035L72.7597 40.0258ZM67.9198 33.2944L66.5201 29.0789C66.372 28.6482 66.0946 27.6341 65.6852 26.0377H65.6355C65.4725 26.7243 65.21 27.7384 64.8492 29.0789L63.4743 33.2944H67.9198Z" fill="white"/>
<path d="M86.4669 34.0623C86.4669 36.042 85.9182 37.6069 84.8209 38.7557C83.8379 39.7783 82.6174 40.289 81.1605 40.289C79.5878 40.289 78.4581 39.7383 77.77 38.6368H77.7203V44.7689H75.0677V32.2172C75.0677 30.9725 75.0341 29.6952 74.9694 28.385H77.3022L77.4503 30.2301H77.5001C78.3847 28.8399 79.7271 28.1461 81.5287 28.1461C82.9372 28.1461 84.1129 28.6883 85.0535 29.774C85.9966 30.8609 86.4669 32.2899 86.4669 34.0623ZM83.7645 34.1569C83.7645 33.0239 83.5033 32.0898 82.9782 31.3547C82.4046 30.588 81.6345 30.2047 80.669 30.2047C80.0146 30.2047 79.4198 30.4182 78.8886 30.8391C78.3561 31.2637 78.0077 31.8181 77.8447 32.5047C77.7626 32.8249 77.7215 33.0869 77.7215 33.2932V35.2341C77.7215 36.0808 77.9878 36.7953 78.5203 37.3788C79.0528 37.9623 79.7446 38.2535 80.5956 38.2535C81.5947 38.2535 82.3723 37.8774 82.9284 37.1277C83.4858 36.3768 83.7645 35.387 83.7645 34.1569Z" fill="white"/>
<path d="M100.199 34.0623C100.199 36.042 99.6503 37.6069 98.5517 38.7557C97.5701 39.7783 96.3495 40.289 94.8926 40.289C93.3199 40.289 92.1902 39.7383 91.5034 38.6368H91.4536V44.7689H88.801V32.2172C88.801 30.9725 88.7674 29.6952 88.7027 28.385H91.0356L91.1837 30.2301H91.2334C92.1168 28.8399 93.4593 28.1461 95.2621 28.1461C96.6693 28.1461 97.845 28.6883 98.7881 29.774C99.7275 30.8609 100.199 32.2899 100.199 34.0623ZM97.4967 34.1569C97.4967 33.0239 97.2341 32.0898 96.7091 31.3547C96.1355 30.588 95.3679 30.2047 94.4011 30.2047C93.7454 30.2047 93.152 30.4182 92.6194 30.8391C92.0869 31.2637 91.7398 31.8181 91.5768 32.5047C91.4959 32.8249 91.4536 33.0869 91.4536 33.2932V35.2341C91.4536 36.0808 91.7199 36.7953 92.2499 37.3788C92.7824 37.9611 93.4742 38.2535 94.3277 38.2535C95.3268 38.2535 96.1044 37.8774 96.6606 37.1277C97.218 36.3768 97.4967 35.387 97.4967 34.1569Z" fill="white"/>
<path d="M115.552 35.4985C115.552 36.8718 115.063 37.989 114.082 38.8515C113.003 39.7941 111.501 40.2648 109.572 40.2648C107.79 40.2648 106.361 39.9299 105.28 39.2591L105.895 37.1035C107.059 37.7901 108.337 38.1346 109.73 38.1346C110.729 38.1346 111.506 37.9138 112.065 37.4747C112.621 37.0355 112.898 36.446 112.898 35.7108C112.898 35.0558 112.67 34.5038 112.21 34.0562C111.754 33.6086 110.991 33.1925 109.926 32.8079C107.027 31.7538 105.579 30.2095 105.579 28.1788C105.579 26.8517 106.087 25.7636 107.103 24.9168C108.116 24.0689 109.467 23.6455 111.157 23.6455C112.663 23.6455 113.915 23.9015 114.914 24.4122L114.251 26.5205C113.318 26.0256 112.263 25.7781 111.082 25.7781C110.149 25.7781 109.42 26.0025 108.897 26.4489C108.455 26.848 108.234 27.3345 108.234 27.9107C108.234 28.5488 108.487 29.0765 108.994 29.4914C109.436 29.8747 110.238 30.2896 111.403 30.7372C112.828 31.2964 113.874 31.9503 114.547 32.7C115.218 33.4472 115.552 34.3825 115.552 35.4985Z" fill="white"/>
<path d="M124.323 30.3259H121.399V35.9777C121.399 37.4152 121.914 38.1334 122.947 38.1334C123.421 38.1334 123.814 38.0933 124.125 38.0133L124.198 39.9772C123.676 40.1677 122.988 40.2635 122.135 40.2635C121.088 40.2635 120.269 39.9518 119.678 39.3295C119.09 38.7059 118.793 37.6602 118.793 36.1912V30.3235H117.052V28.3826H118.793V26.2512L121.399 25.4845V28.3826H124.323V30.3259Z" fill="white"/>
<path d="M137.515 34.1096C137.515 35.8989 136.99 37.3679 135.942 38.5167C134.843 39.6994 133.385 40.289 131.567 40.289C129.816 40.289 128.421 39.7225 127.381 38.5895C126.341 37.4565 125.821 36.0262 125.821 34.3024C125.821 32.4986 126.356 31.0211 127.429 29.8723C128.501 28.7223 129.946 28.1473 131.764 28.1473C133.516 28.1473 134.926 28.7138 135.989 29.848C137.007 30.9483 137.515 32.3688 137.515 34.1096ZM134.763 34.1933C134.763 33.1197 134.527 32.199 134.051 31.4311C133.495 30.5019 132.7 30.0385 131.67 30.0385C130.603 30.0385 129.793 30.5031 129.237 31.4311C128.761 32.2002 128.525 33.1355 128.525 34.2418C128.525 35.3154 128.761 36.2361 129.237 37.0028C129.811 37.932 130.612 38.3954 131.646 38.3954C132.659 38.3954 133.454 37.9223 134.027 36.9785C134.516 36.1961 134.763 35.2656 134.763 34.1933Z" fill="white"/>
<path d="M146.137 30.6596C145.874 30.6123 145.594 30.588 145.301 30.588C144.368 30.588 143.646 30.9313 143.138 31.6191C142.697 32.2257 142.475 32.9923 142.475 33.9179V40.0258H139.824L139.849 32.051C139.849 30.7093 139.815 29.4877 139.749 28.3862H142.06L142.157 30.6135H142.23C142.51 29.848 142.952 29.2318 143.556 28.7696C144.147 28.3535 144.786 28.1461 145.474 28.1461C145.719 28.1461 145.94 28.163 146.137 28.1934V30.6596Z" fill="white"/>
<path d="M158 33.6547C158 34.1181 157.969 34.5087 157.903 34.8277H149.945C149.977 35.9777 150.361 36.8572 151.1 37.4637C151.771 38.006 152.638 38.2777 153.703 38.2777C154.881 38.2777 155.956 38.0945 156.923 37.727L157.338 39.5223C156.209 40.0027 154.875 40.2417 153.336 40.2417C151.484 40.2417 150.031 39.7104 148.974 38.6489C147.919 37.5875 147.39 36.1621 147.39 34.374C147.39 32.6187 147.881 31.1569 148.865 29.9911C149.896 28.7465 151.288 28.1242 153.04 28.1242C154.76 28.1242 156.063 28.7465 156.948 29.9911C157.648 30.9798 158 32.2026 158 33.6547ZM155.471 32.9838C155.488 32.2171 155.315 31.5548 154.956 30.9956C154.497 30.2762 153.791 29.9171 152.842 29.9171C151.975 29.9171 151.269 30.2677 150.73 30.9713C150.289 31.5305 150.026 32.2014 149.945 32.9826H155.471V32.9838Z" fill="white"/>
<path d="M67.0417 13.9505C67.0417 15.3783 66.6025 16.4531 65.7254 17.1749C64.9129 17.8409 63.7583 18.1745 62.2628 18.1745C61.5213 18.1745 60.8867 18.1429 60.3555 18.0798V10.2785C61.0485 10.1693 61.795 10.1135 62.6012 10.1135C64.0258 10.1135 65.0996 10.4156 65.8237 11.0197C66.6349 11.7027 67.0417 12.6792 67.0417 13.9505ZM65.6669 13.9857C65.6669 13.0601 65.4156 12.3504 64.9129 11.8555C64.4103 11.3618 63.6762 11.1143 62.7095 11.1143C62.2989 11.1143 61.9493 11.141 61.6594 11.1968V17.1276C61.8199 17.1518 62.1135 17.1627 62.5403 17.1627C63.5381 17.1627 64.3083 16.8922 64.8507 16.3512C65.3932 15.8102 65.6669 15.0217 65.6669 13.9857Z" fill="white"/>
<path d="M74.3314 15.1975C74.3314 16.077 74.0739 16.7976 73.5588 17.3629C73.0188 17.944 72.3034 18.2339 71.4101 18.2339C70.5491 18.2339 69.8636 17.9561 69.3522 17.3981C68.8421 16.8413 68.587 16.1389 68.587 15.2922C68.587 14.4066 68.8495 13.68 69.3771 13.1159C69.9046 12.5518 70.6138 12.2692 71.5071 12.2692C72.3681 12.2692 73.0599 12.547 73.5837 13.1038C74.0814 13.6448 74.3314 14.3435 74.3314 15.1975ZM72.979 15.2388C72.979 14.7111 72.8621 14.2586 72.6294 13.8814C72.3557 13.4252 71.9662 13.1972 71.4599 13.1972C70.9361 13.1972 70.5379 13.4252 70.2642 13.8814C70.0303 14.2586 69.9146 14.7184 69.9146 15.2618C69.9146 15.7895 70.0315 16.242 70.2642 16.6193C70.5466 17.0754 70.9398 17.3035 71.4474 17.3035C71.9451 17.3035 72.3358 17.0718 72.6169 16.6072C72.8583 16.2226 72.979 15.7665 72.979 15.2388Z" fill="white"/>
<path d="M84.1058 12.3856L82.2706 18.1041H81.0762L80.316 15.6209C80.1231 15.001 79.9664 14.3848 79.8444 13.7734H79.8208C79.7076 14.4018 79.5508 15.0168 79.3492 15.6209L78.5418 18.1041H77.3337L75.608 12.3856H76.948L77.6111 15.1041C77.7716 15.7471 77.9035 16.3597 78.0093 16.9395H78.0329C78.1299 16.4616 78.2904 15.8526 78.5169 15.1163L79.3492 12.3868H80.4118L81.2093 15.058C81.4022 15.7095 81.5589 16.3366 81.6796 16.9407H81.7157C81.804 16.3524 81.9372 15.7252 82.1138 15.058L82.8255 12.3868H84.1058V12.3856Z" fill="white"/>
<path d="M90.8654 18.1041H89.5615V14.8288C89.5615 13.8195 89.1684 13.3149 88.3796 13.3149C87.9926 13.3149 87.6803 13.4531 87.4377 13.7309C87.1976 14.0087 87.0757 14.3363 87.0757 14.7111V18.1029H85.7717V14.0197C85.7717 13.5174 85.7556 12.9728 85.7245 12.3832H86.8704L86.9313 13.2772H86.9674C87.1192 12.9995 87.3456 12.7702 87.643 12.587C87.9964 12.3735 88.392 12.2655 88.825 12.2655C89.3724 12.2655 89.8278 12.4378 90.1899 12.7835C90.6402 13.2069 90.8654 13.8389 90.8654 14.6784V18.1041Z" fill="white"/>
<path d="M94.4612 18.1041H93.1585V9.76172H94.4612V18.1041Z" fill="white"/>
<path d="M102.138 15.1975C102.138 16.077 101.88 16.7976 101.365 17.3629C100.825 17.944 100.109 18.2339 99.2165 18.2339C98.3542 18.2339 97.6687 17.9561 97.1586 17.3981C96.6484 16.8413 96.3934 16.1389 96.3934 15.2922C96.3934 14.4066 96.6559 13.68 97.1834 13.1159C97.711 12.5518 98.4202 12.2692 99.3123 12.2692C100.174 12.2692 100.865 12.547 101.39 13.1038C101.888 13.6448 102.138 14.3435 102.138 15.1975ZM100.784 15.2388C100.784 14.7111 100.667 14.2586 100.435 13.8814C100.162 13.4252 99.7714 13.1972 99.2662 13.1972C98.7412 13.1972 98.343 13.4252 98.0706 13.8814C97.8366 14.2586 97.7209 14.7184 97.7209 15.2618C97.7209 15.7895 97.8379 16.242 98.0706 16.6193C98.353 17.0754 98.7462 17.3035 99.2538 17.3035C99.7515 17.3035 100.141 17.0718 100.422 16.6072C100.665 16.2226 100.784 15.7665 100.784 15.2388Z" fill="white"/>
<path d="M108.448 18.1041H107.278L107.18 17.4454H107.144C106.744 17.9707 106.173 18.2339 105.431 18.2339C104.878 18.2339 104.43 18.0604 104.092 17.7159C103.786 17.4029 103.633 17.0135 103.633 16.5513C103.633 15.8526 103.932 15.3201 104.533 14.9513C105.133 14.5825 105.976 14.4018 107.062 14.4103V14.3035C107.062 13.5502 106.657 13.1741 105.844 13.1741C105.266 13.1741 104.756 13.3161 104.315 13.5975L104.05 12.7629C104.595 12.4341 105.268 12.2692 106.062 12.2692C107.595 12.2692 108.364 13.0577 108.364 14.6347V16.7406C108.364 17.312 108.392 17.7669 108.448 18.1041ZM107.095 16.1389V15.257C105.656 15.2327 104.937 15.6173 104.937 16.4094C104.937 16.7078 105.019 16.931 105.187 17.0803C105.355 17.2295 105.569 17.3035 105.824 17.3035C106.11 17.3035 106.378 17.2149 106.622 17.039C106.867 16.8619 107.018 16.6375 107.073 16.3621C107.087 16.3002 107.095 16.225 107.095 16.1389Z" fill="white"/>
<path d="M115.857 18.1041H114.7L114.639 17.1858H114.603C114.234 17.8845 113.604 18.2339 112.72 18.2339C112.013 18.2339 111.424 17.9634 110.958 17.4223C110.491 16.8813 110.259 16.1789 110.259 15.3164C110.259 14.3908 110.511 13.6412 111.019 13.0686C111.51 12.5348 112.112 12.2679 112.829 12.2679C113.617 12.2679 114.168 12.5263 114.481 13.0443H114.506V9.76172H115.811V16.5635C115.811 17.1203 115.826 17.6334 115.857 18.1041ZM114.506 15.6925V14.739C114.506 14.574 114.494 14.4406 114.47 14.3387C114.397 14.033 114.239 13.7758 113.999 13.5684C113.756 13.3609 113.464 13.2566 113.126 13.2566C112.64 13.2566 112.259 13.4446 111.979 13.8219C111.702 14.1992 111.561 14.6808 111.561 15.2691C111.561 15.8344 111.694 16.293 111.962 16.646C112.244 17.022 112.625 17.2101 113.102 17.2101C113.53 17.2101 113.872 17.0536 114.132 16.7394C114.383 16.4494 114.506 16.1001 114.506 15.6925Z" fill="white"/>
<path d="M127.009 15.1975C127.009 16.077 126.752 16.7976 126.236 17.3629C125.697 17.944 124.982 18.2339 124.088 18.2339C123.228 18.2339 122.542 17.9561 122.03 17.3981C121.52 16.8413 121.265 16.1389 121.265 15.2922C121.265 14.4066 121.527 13.68 122.055 13.1159C122.582 12.5518 123.291 12.2692 124.186 12.2692C125.046 12.2692 125.739 12.547 126.261 13.1038C126.759 13.6448 127.009 14.3435 127.009 15.1975ZM125.658 15.2388C125.658 14.7111 125.541 14.2586 125.308 13.8814C125.033 13.4252 124.645 13.1972 124.138 13.1972C123.615 13.1972 123.217 13.4252 122.942 13.8814C122.708 14.2586 122.592 14.7184 122.592 15.2618C122.592 15.7895 122.709 16.242 122.942 16.6193C123.224 17.0754 123.617 17.3035 124.125 17.3035C124.623 17.3035 125.015 17.0718 125.296 16.6072C125.536 16.2226 125.658 15.7665 125.658 15.2388Z" fill="white"/>
<path d="M134.02 18.1041H132.717V14.8288C132.717 13.8195 132.324 13.3149 131.534 13.3149C131.147 13.3149 130.835 13.4531 130.594 13.7309C130.352 14.0087 130.232 14.3363 130.232 14.7111V18.1029H128.926V14.0197C128.926 13.5174 128.911 12.9728 128.88 12.3832H130.025L130.086 13.2772H130.122C130.275 12.9995 130.502 12.7702 130.798 12.587C131.152 12.3735 131.547 12.2655 131.981 12.2655C132.527 12.2655 132.982 12.4378 133.345 12.7835C133.796 13.2069 134.02 13.8389 134.02 14.6784V18.1041Z" fill="white"/>
<path d="M142.795 13.3379H141.36V16.1159C141.36 16.8219 141.615 17.1749 142.12 17.1749C142.354 17.1749 142.548 17.1555 142.701 17.1154L142.734 18.0798C142.477 18.1745 142.138 18.2218 141.722 18.2218C141.207 18.2218 140.806 18.0689 140.516 17.7632C140.225 17.4575 140.081 16.9432 140.081 16.2214V13.3379H139.223V12.3856H140.081V11.3375L141.358 10.9615V12.3844H142.794V13.3379H142.795Z" fill="white"/>
<path d="M149.698 18.1041H148.393V14.853C148.393 13.828 148 13.3148 147.212 13.3148C146.608 13.3148 146.194 13.612 145.968 14.2065C145.929 14.3314 145.907 14.4843 145.907 14.6638V18.1029H144.604V9.76172H145.907V13.2081H145.932C146.343 12.5809 146.931 12.2679 147.694 12.2679C148.234 12.2679 148.68 12.4402 149.035 12.7859C149.477 13.2166 149.698 13.8571 149.698 14.7038V18.1041Z" fill="white"/>
<path d="M156.819 14.9743C156.819 15.2024 156.801 15.3941 156.77 15.5505H152.86C152.877 16.1158 153.064 16.5465 153.426 16.8449C153.757 17.1118 154.183 17.2452 154.706 17.2452C155.285 17.2452 155.812 17.1555 156.287 16.9747L156.491 17.8578C155.935 18.0932 155.281 18.2108 154.523 18.2108C153.615 18.2108 152.899 17.95 152.382 17.4284C151.862 16.9068 151.604 16.2068 151.604 15.3286C151.604 14.4661 151.844 13.7479 152.328 13.1753C152.833 12.5639 153.517 12.2582 154.379 12.2582C155.222 12.2582 155.863 12.5639 156.296 13.1753C156.646 13.6606 156.819 14.261 156.819 14.9743ZM155.574 14.6456C155.584 14.2683 155.499 13.9432 155.322 13.6691C155.095 13.3161 154.751 13.1389 154.284 13.1389C153.859 13.1389 153.512 13.3112 153.247 13.6569C153.03 13.9323 152.902 14.261 152.86 14.6456H155.574Z" fill="white"/>
</svg>
