<svg width="25" height="24" viewBox="0 0 25 24" fill="none" xmlns="http://www.w3.org/2000/svg">
<path d="M12.5957 22.75C6.6657 22.75 1.8457 17.93 1.8457 12C1.8457 6.07 6.6657 1.25 12.5957 1.25C18.5257 1.25 23.3457 6.07 23.3457 12C23.3457 17.93 18.5257 22.75 12.5957 22.75ZM12.5957 2.75C7.4957 2.75 3.3457 6.9 3.3457 12C3.3457 17.1 7.4957 21.25 12.5957 21.25C17.6957 21.25 21.8457 17.1 21.8457 12C21.8457 6.9 17.6957 2.75 12.5957 2.75Z" fill="#0C3261"/>
<path d="M12.5957 16.25C12.1857 16.25 11.8457 15.91 11.8457 15.5V9.5C11.8457 9.09 12.1857 8.75 12.5957 8.75C13.0057 8.75 13.3457 9.09 13.3457 9.5V15.5C13.3457 15.91 13.0057 16.25 12.5957 16.25Z" fill="#0C3261"/>
<path d="M15.5952 12.2499C15.4052 12.2499 15.2152 12.1799 15.0652 12.0299L12.5952 9.55994L10.1252 12.0299C9.83516 12.3199 9.35516 12.3199 9.06516 12.0299C8.77516 11.7399 8.77516 11.2599 9.06516 10.9699L12.0652 7.96994C12.3552 7.67994 12.8352 7.67994 13.1252 7.96994L16.1252 10.9699C16.4152 11.2599 16.4152 11.7399 16.1252 12.0299C15.9752 12.1799 15.7852 12.2499 15.5952 12.2499Z" fill="#0C3261"/>
</svg>
