<svg width="20" height="20" viewBox="0 0 20 20" fill="none" xmlns="http://www.w3.org/2000/svg">
<path d="M16.7162 12.5022C15.7366 12.5022 14.7747 12.349 13.8633 12.0478C13.4167 11.8954 12.8676 12.0352 12.595 12.3151L10.796 13.6732C8.70963 12.5595 7.42446 11.2748 6.32596 9.20404L7.64408 7.45188C7.98654 7.10988 8.10938 6.61029 7.96221 6.14154C7.65971 5.22529 7.50604 4.26392 7.50604 3.28392C7.50608 2.57596 6.93013 2 6.22221 2H3.28387C2.57596 2 2 2.57596 2 3.28387C2 11.3985 8.60158 18 16.7162 18C17.4241 18 18 17.424 18 16.7161V13.786C18 13.0781 17.424 12.5022 16.7162 12.5022Z" fill="#14AE5C"/>
</svg>
