<svg width="24" height="24" viewBox="0 0 24 24" fill="none" xmlns="http://www.w3.org/2000/svg">
<path d="M11.5353 23C17.0353 23 21.5121 18.5232 21.5121 13.0232C21.5121 7.77907 17.4446 3.48139 12.3028 3.08744V2.53488H13.5818C14.0065 2.53488 14.3493 2.19209 14.3493 1.76744C14.3493 1.34279 14.0065 1 13.5818 1H9.48882C9.06417 1 8.72138 1.34279 8.72138 1.76744C8.72138 2.19209 9.06417 2.53488 9.48882 2.53488H10.7679V3.08744C5.62603 3.48139 1.55859 7.77907 1.55859 13.0232C1.55859 18.5232 6.03533 23 11.5353 23ZM11.5353 4.58139C16.1911 4.58139 19.9772 8.36744 19.9772 13.0232C19.9772 17.6791 16.1911 21.4651 11.5353 21.4651C6.87952 21.4651 3.09348 17.6791 3.09348 13.0232C3.09348 8.36744 6.87952 4.58139 11.5353 4.58139Z" fill="#0C3261"/>
<path d="M11.535 13.7907H15.628C16.0527 13.7907 16.3955 13.4479 16.3955 13.0232C16.3955 12.5986 16.0527 12.2558 15.628 12.2558H12.3025V7.90697C12.3025 7.48232 11.9597 7.13953 11.535 7.13953C11.1104 7.13953 10.7676 7.48232 10.7676 7.90697V13.0232C10.7676 13.4479 11.1104 13.7907 11.535 13.7907Z" fill="#0C3261"/>
</svg>
