<svg width="32" height="32" viewBox="0 0 32 32" fill="none" xmlns="http://www.w3.org/2000/svg">
<path d="M26.3769 5.62672C20.6577 -0.0925331 11.3488 -0.0925331 5.62952 5.62672C2.8591 8.39823 1.33301 12.0823 1.33301 16.0004C1.33301 19.9185 2.8591 23.6026 5.62952 26.373C8.48972 29.2332 12.2465 30.6627 16.0032 30.6627C19.7599 30.6627 23.5167 29.2332 26.3769 26.373C32.0961 20.6537 32.0961 11.3471 26.3769 5.62672ZM24.7701 24.7662C19.9361 29.6002 12.0703 29.6002 7.23628 24.7662C4.89544 22.4253 3.60568 19.3117 3.60568 16.0004C3.60568 12.6891 4.89544 9.57547 7.23628 7.23348C12.0703 2.39945 19.9361 2.4006 24.7701 7.23348C29.603 12.0675 29.603 19.9333 24.7701 24.7662Z" fill="#FF4444"/>
<path d="M20.8995 19.1412L17.6824 15.9288L20.8995 12.7164C21.3426 12.2732 21.3426 11.5539 20.9006 11.1096C20.4563 10.6641 19.737 10.6653 19.2927 11.1084L16.0734 14.3231L12.8542 11.1084C12.4099 10.6653 11.6906 10.6641 11.2463 11.1096C10.8031 11.5539 10.8031 12.2732 11.2474 12.7164L14.4644 15.9288L11.2474 19.1412C10.8031 19.5844 10.8031 20.3037 11.2463 20.7481C11.4679 20.9707 11.7599 21.081 12.0508 21.081C12.3418 21.081 12.6326 20.9696 12.8542 20.7491L16.0735 17.5344L19.2927 20.7491C19.5144 20.9708 19.8052 21.081 20.0962 21.081C20.3871 21.081 20.6791 20.9696 20.9007 20.7481C21.3438 20.3037 21.3438 19.5844 20.8995 19.1412Z" fill="#FF4444"/>
</svg>
