<svg width="20" height="20" viewBox="0 0 20 20" fill="none" xmlns="http://www.w3.org/2000/svg">
<path d="M15 5.83333C15 6.08333 14.9167 6.25 14.75 6.41667L6.41667 14.75C6.08333 15.0833 5.58333 15.0833 5.25 14.75C4.91667 14.4167 4.91667 13.9167 5.25 13.5833L13.5833 5.25C13.9167 4.91666 14.4167 4.91666 14.75 5.25C14.9167 5.41666 15 5.58333 15 5.83333Z" fill="#0C3261"/>
<path d="M14.9999 5.83366L14.9999 13.3337C14.9999 13.8337 14.6666 14.167 14.1666 14.167C13.6666 14.167 13.3333 13.8337 13.3333 13.3337L13.3333 6.66699L6.66658 6.66699C6.16658 6.66699 5.83325 6.33366 5.83325 5.83366C5.83325 5.33366 6.16658 5.00032 6.66658 5.00032L14.1666 5.00032C14.6666 5.00032 14.9999 5.33366 14.9999 5.83366Z" fill="#0C3261"/>
</svg>
