<svg width="24" height="25" viewBox="0 0 24 25" fill="none" xmlns="http://www.w3.org/2000/svg">
<g id="Download">
<g id="vuesax/outline/arrow-down">
<g id="arrow-down">
<path id="Vector" d="M12 23.25C6.07 23.25 1.25 18.43 1.25 12.5C1.25 6.57 6.07 1.75 12 1.75C17.93 1.75 22.75 6.57 22.75 12.5C22.75 18.43 17.93 23.25 12 23.25ZM12 3.25C6.9 3.25 2.75 7.4 2.75 12.5C2.75 17.6 6.9 21.75 12 21.75C17.1 21.75 21.25 17.6 21.25 12.5C21.25 7.4 17.1 3.25 12 3.25Z" fill="#0C3261"/>
<path id="Vector_2" d="M12 15.75C11.59 15.75 11.25 15.41 11.25 15V9C11.25 8.59 11.59 8.25 12 8.25C12.41 8.25 12.75 8.59 12.75 9V15C12.75 15.41 12.41 15.75 12 15.75Z" fill="#0C3261"/>
<path id="Vector_3" d="M11.9999 16.7504C11.8099 16.7504 11.6199 16.6804 11.4699 16.5304L8.46994 13.5304C8.17994 13.2404 8.17994 12.7604 8.46994 12.4704C8.75994 12.1804 9.23994 12.1804 9.52994 12.4704L11.9999 14.9404L14.4699 12.4704C14.7599 12.1804 15.2399 12.1804 15.5299 12.4704C15.8199 12.7604 15.8199 13.2404 15.5299 13.5304L12.5299 16.5304C12.3799 16.6804 12.1899 16.7504 11.9999 16.7504Z" fill="#0C3261"/>
</g>
</g>
</g>
</svg>
