<svg width="25" height="24" viewBox="0 0 25 24" fill="none" xmlns="http://www.w3.org/2000/svg">
<path d="M21.5957 22H3.5957C3.1857 22 2.8457 21.66 2.8457 21.25C2.8457 20.84 3.1857 20.5 3.5957 20.5H21.5957C22.0057 20.5 22.3457 20.84 22.3457 21.25C22.3457 21.66 22.0057 22 21.5957 22Z" fill="#14AE5C"/>
<path d="M19.6163 3.48016C17.6763 1.54016 15.7763 1.49016 13.7863 3.48016L12.5763 4.69016C12.4763 4.79016 12.4363 4.95016 12.4763 5.09016C13.2363 7.74016 15.3563 9.86016 18.0063 10.6202C18.0463 10.6302 18.0863 10.6402 18.1263 10.6402C18.2363 10.6402 18.3363 10.6002 18.4163 10.5202L19.6163 9.31016C20.6063 8.33016 21.0863 7.38016 21.0863 6.42016C21.0963 5.43016 20.6163 4.47016 19.6163 3.48016Z" fill="#14AE5C"/>
<path d="M16.206 11.5298C15.916 11.3898 15.636 11.2498 15.366 11.0898C15.146 10.9598 14.936 10.8198 14.726 10.6698C14.556 10.5598 14.356 10.3998 14.166 10.2398C14.146 10.2298 14.076 10.1698 13.996 10.0898C13.666 9.8098 13.296 9.4498 12.966 9.0498C12.936 9.0298 12.886 8.9598 12.816 8.8698C12.716 8.7498 12.546 8.5498 12.396 8.3198C12.276 8.1698 12.136 7.9498 12.006 7.7298C11.846 7.4598 11.706 7.1898 11.566 6.9098C11.5448 6.86441 11.5243 6.81924 11.5045 6.77434C11.3569 6.44102 10.9222 6.34358 10.6645 6.60133L4.93602 12.3298C4.80602 12.4598 4.68602 12.7098 4.65602 12.8798L4.11602 16.7098C4.01602 17.3898 4.20602 18.0298 4.62602 18.4598C4.98602 18.8098 5.48602 18.9998 6.02602 18.9998C6.14602 18.9998 6.26602 18.9898 6.38602 18.9698L10.226 18.4298C10.406 18.3998 10.656 18.2798 10.776 18.1498L16.4973 12.4285C16.7569 12.1689 16.659 11.7235 16.3214 11.5794C16.2834 11.5632 16.2449 11.5467 16.206 11.5298Z" fill="#14AE5C"/>
</svg>
