<svg width="180" height="52" viewBox="0 0 180 52" fill="none" xmlns="http://www.w3.org/2000/svg">
<rect width="180" height="52" rx="8" fill="#0C3261"/>
<path d="M43.5694 25.809C43.5333 21.8992 46.8528 19.9971 47.0046 19.9085C45.1246 17.2361 42.2107 16.871 41.1867 16.8419C38.7394 16.5908 36.3655 18.2697 35.1188 18.2697C33.8473 18.2697 31.9275 16.8661 29.8584 16.9074C27.1958 16.9474 24.705 18.4504 23.3389 20.7844C20.5195 25.5433 22.6222 32.5367 25.3233 36.3834C26.6745 38.2673 28.2534 40.3708 30.32 40.2968C32.3418 40.2156 33.097 39.0401 35.5369 39.0401C37.9543 39.0401 38.6635 40.2968 40.7712 40.2495C42.941 40.2156 44.3072 38.3571 45.6111 36.4562C47.1725 34.2969 47.7996 32.1704 47.8245 32.0612C47.7735 32.0442 43.6104 30.4951 43.5694 25.809Z" fill="white"/>
<path d="M39.588 14.3114C40.6754 12.9855 41.4194 11.1816 41.2129 9.35107C39.639 9.41901 37.6707 10.4125 36.5372 11.7093C35.5344 12.852 34.6386 14.725 34.87 16.4864C36.638 16.615 38.4533 15.6166 39.588 14.3114Z" fill="white"/>
<path d="M72.7597 40.0262H69.9341L68.3864 35.2843H63.0065L61.5321 40.0262H58.7812L64.1114 23.8825H67.4035L72.7597 40.0262ZM67.9198 33.2948L66.5201 29.0794C66.372 28.6487 66.0946 27.6346 65.6852 26.0382H65.6355C65.4725 26.7248 65.21 27.7389 64.8492 29.0794L63.4743 33.2948H67.9198Z" fill="white"/>
<path d="M86.4669 34.0628C86.4669 36.0425 85.9182 37.6074 84.8209 38.7562C83.8379 39.7788 82.6174 40.2895 81.1605 40.2895C79.5878 40.2895 78.4581 39.7388 77.77 38.6373H77.7203V44.7694H75.0677V32.2177C75.0677 30.973 75.0341 29.6957 74.9694 28.3855H77.3022L77.4503 30.2306H77.5001C78.3847 28.8404 79.7271 28.1465 81.5287 28.1465C82.9372 28.1465 84.1129 28.6888 85.0535 29.7745C85.9966 30.8614 86.4669 32.2904 86.4669 34.0628ZM83.7645 34.1574C83.7645 33.0244 83.5033 32.0903 82.9782 31.3552C82.4046 30.5885 81.6345 30.2051 80.669 30.2051C80.0146 30.2051 79.4198 30.4186 78.8886 30.8396C78.3561 31.2642 78.0077 31.8185 77.8447 32.5052C77.7626 32.8254 77.7215 33.0874 77.7215 33.2937V35.2346C77.7215 36.0813 77.9878 36.7958 78.5203 37.3793C79.0528 37.9628 79.7446 38.254 80.5956 38.254C81.5947 38.254 82.3723 37.8779 82.9284 37.1282C83.4858 36.3773 83.7645 35.3874 83.7645 34.1574Z" fill="white"/>
<path d="M100.199 34.0628C100.199 36.0425 99.6503 37.6074 98.5517 38.7562C97.5701 39.7788 96.3495 40.2895 94.8926 40.2895C93.3199 40.2895 92.1902 39.7388 91.5034 38.6373H91.4536V44.7694H88.801V32.2177C88.801 30.973 88.7674 29.6957 88.7027 28.3855H91.0356L91.1837 30.2306H91.2334C92.1168 28.8404 93.4593 28.1465 95.2621 28.1465C96.6693 28.1465 97.845 28.6888 98.7881 29.7745C99.7275 30.8614 100.199 32.2904 100.199 34.0628ZM97.4967 34.1574C97.4967 33.0244 97.2341 32.0903 96.7091 31.3552C96.1355 30.5885 95.3679 30.2051 94.4011 30.2051C93.7454 30.2051 93.152 30.4186 92.6194 30.8396C92.0869 31.2642 91.7398 31.8185 91.5768 32.5052C91.4959 32.8254 91.4536 33.0874 91.4536 33.2937V35.2346C91.4536 36.0813 91.7199 36.7958 92.2499 37.3793C92.7824 37.9616 93.4742 38.254 94.3277 38.254C95.3268 38.254 96.1044 37.8779 96.6606 37.1282C97.218 36.3773 97.4967 35.3874 97.4967 34.1574Z" fill="white"/>
<path d="M115.552 35.499C115.552 36.8722 115.063 37.9895 114.082 38.852C113.003 39.7946 111.501 40.2652 109.572 40.2652C107.79 40.2652 106.361 39.9304 105.28 39.2596L105.895 37.1039C107.059 37.7906 108.337 38.1351 109.73 38.1351C110.729 38.1351 111.506 37.9143 112.065 37.4751C112.621 37.036 112.898 36.4465 112.898 35.7113C112.898 35.0563 112.67 34.5043 112.21 34.0567C111.754 33.6091 110.991 33.193 109.926 32.8084C107.027 31.7542 105.579 30.21 105.579 28.1793C105.579 26.8522 106.087 25.764 107.103 24.9173C108.116 24.0694 109.467 23.646 111.157 23.646C112.663 23.646 113.915 23.902 114.914 24.4127L114.251 26.521C113.318 26.0261 112.263 25.7786 111.082 25.7786C110.149 25.7786 109.42 26.003 108.897 26.4494C108.455 26.8485 108.234 27.335 108.234 27.9112C108.234 28.5493 108.487 29.077 108.994 29.4918C109.436 29.8752 110.238 30.2901 111.403 30.7377C112.828 31.2969 113.874 31.9508 114.547 32.7005C115.218 33.4477 115.552 34.383 115.552 35.499Z" fill="white"/>
<path d="M124.323 30.3264H121.399V35.9782C121.399 37.4157 121.914 38.1338 122.947 38.1338C123.421 38.1338 123.814 38.0938 124.125 38.0137L124.198 39.9777C123.676 40.1682 122.988 40.264 122.135 40.264C121.088 40.264 120.269 39.9523 119.678 39.3299C119.09 38.7064 118.793 37.6607 118.793 36.1917V30.324H117.052V28.3831H118.793V26.2517L121.399 25.485V28.3831H124.323V30.3264Z" fill="white"/>
<path d="M137.515 34.11C137.515 35.8993 136.99 37.3684 135.942 38.5172C134.843 39.6999 133.385 40.2895 131.567 40.2895C129.816 40.2895 128.421 39.723 127.381 38.59C126.341 37.4569 125.821 36.0267 125.821 34.3029C125.821 32.4991 126.356 31.0215 127.429 29.8727C128.501 28.7227 129.946 28.1477 131.764 28.1477C133.516 28.1477 134.926 28.7143 135.989 29.8485C137.007 30.9488 137.515 32.3693 137.515 34.11ZM134.763 34.1938C134.763 33.1202 134.527 32.1994 134.051 31.4316C133.495 30.5023 132.7 30.0389 131.67 30.0389C130.603 30.0389 129.793 30.5036 129.237 31.4316C128.761 32.2007 128.525 33.1359 128.525 34.2423C128.525 35.3159 128.761 36.2366 129.237 37.0033C129.811 37.9325 130.612 38.3959 131.646 38.3959C132.659 38.3959 133.454 37.9228 134.027 36.979C134.516 36.1966 134.763 35.2661 134.763 34.1938Z" fill="white"/>
<path d="M146.137 30.6601C145.874 30.6127 145.594 30.5885 145.301 30.5885C144.368 30.5885 143.646 30.9318 143.138 31.6196C142.697 32.2261 142.475 32.9928 142.475 33.9184V40.0263H139.824L139.849 32.0515C139.849 30.7098 139.815 29.4882 139.749 28.3867H142.06L142.157 30.614H142.23C142.51 29.8485 142.952 29.2323 143.556 28.7701C144.147 28.354 144.786 28.1465 145.474 28.1465C145.719 28.1465 145.94 28.1635 146.137 28.1939V30.6601Z" fill="white"/>
<path d="M158 33.6551C158 34.1185 157.969 34.5092 157.903 34.8282H149.945C149.977 35.9782 150.361 36.8577 151.1 37.4642C151.771 38.0065 152.638 38.2782 153.703 38.2782C154.881 38.2782 155.956 38.095 156.923 37.7275L157.338 39.5228C156.209 40.0032 154.875 40.2422 153.336 40.2422C151.484 40.2422 150.031 39.7109 148.974 38.6494C147.919 37.588 147.39 36.1626 147.39 34.3745C147.39 32.6192 147.881 31.1574 148.865 29.9916C149.896 28.747 151.288 28.1247 153.04 28.1247C154.76 28.1247 156.063 28.747 156.948 29.9916C157.648 30.9803 158 32.2031 158 33.6551ZM155.471 32.9843C155.488 32.2176 155.315 31.5553 154.956 30.9961C154.497 30.2767 153.791 29.9176 152.842 29.9176C151.975 29.9176 151.269 30.2682 150.73 30.9718C150.289 31.531 150.026 32.2019 149.945 32.9831H155.471V32.9843Z" fill="white"/>
<path d="M67.0417 13.9515C67.0417 15.3793 66.6025 16.4541 65.7254 17.1759C64.9129 17.8418 63.7583 18.1754 62.2628 18.1754C61.5213 18.1754 60.8867 18.1439 60.3555 18.0808V10.2795C61.0485 10.1703 61.795 10.1145 62.6012 10.1145C64.0258 10.1145 65.0996 10.4166 65.8237 11.0207C66.6349 11.7036 67.0417 12.6802 67.0417 13.9515ZM65.6669 13.9867C65.6669 13.0611 65.4156 12.3514 64.9129 11.8565C64.4103 11.3628 63.6762 11.1153 62.7095 11.1153C62.2989 11.1153 61.9493 11.142 61.6594 11.1978V17.1285C61.8199 17.1528 62.1135 17.1637 62.5403 17.1637C63.5381 17.1637 64.3083 16.8932 64.8507 16.3522C65.3932 15.8111 65.6669 15.0226 65.6669 13.9867Z" fill="white"/>
<path d="M74.3314 15.1985C74.3314 16.078 74.0739 16.7986 73.5588 17.3639C73.0188 17.9449 72.3034 18.2349 71.4101 18.2349C70.5491 18.2349 69.8636 17.9571 69.3522 17.3991C68.8421 16.8423 68.587 16.1399 68.587 15.2931C68.587 14.4076 68.8495 13.681 69.3771 13.1169C69.9046 12.5528 70.6138 12.2701 71.5071 12.2701C72.3681 12.2701 73.0599 12.5479 73.5837 13.1047C74.0814 13.6458 74.3314 14.3445 74.3314 15.1985ZM72.979 15.2398C72.979 14.7121 72.8621 14.2596 72.6294 13.8823C72.3557 13.4262 71.9662 13.1982 71.4599 13.1982C70.9361 13.1982 70.5379 13.4262 70.2642 13.8823C70.0303 14.2596 69.9146 14.7194 69.9146 15.2628C69.9146 15.7905 70.0315 16.243 70.2642 16.6203C70.5466 17.0764 70.9398 17.3044 71.4474 17.3044C71.9451 17.3044 72.3358 17.0727 72.6169 16.6081C72.8583 16.2236 72.979 15.7675 72.979 15.2398Z" fill="white"/>
<path d="M84.1058 12.3866L82.2706 18.1051H81.0762L80.316 15.6219C80.1231 15.002 79.9664 14.3858 79.8444 13.7744H79.8208C79.7076 14.4027 79.5508 15.0178 79.3492 15.6219L78.5418 18.1051H77.3337L75.608 12.3866H76.948L77.6111 15.1051C77.7716 15.7481 77.9035 16.3607 78.0093 16.9405H78.0329C78.1299 16.4626 78.2904 15.8536 78.5169 15.1172L79.3492 12.3878H80.4118L81.2093 15.059C81.4022 15.7104 81.5589 16.3376 81.6796 16.9417H81.7157C81.804 16.3534 81.9372 15.7262 82.1138 15.059L82.8255 12.3878H84.1058V12.3866Z" fill="white"/>
<path d="M90.8654 18.1051H89.5615V14.8298C89.5615 13.8205 89.1684 13.3158 88.3796 13.3158C87.9926 13.3158 87.6803 13.4541 87.4377 13.7319C87.1976 14.0097 87.0757 14.3372 87.0757 14.7121V18.1039H85.7717V14.0206C85.7717 13.5184 85.7556 12.9737 85.7245 12.3842H86.8704L86.9313 13.2782H86.9674C87.1192 13.0004 87.3456 12.7712 87.643 12.588C87.9964 12.3745 88.392 12.2665 88.825 12.2665C89.3724 12.2665 89.8278 12.4388 90.1899 12.7845C90.6402 13.2079 90.8654 13.8399 90.8654 14.6793V18.1051Z" fill="white"/>
<path d="M94.4612 18.1051H93.1585V9.7627H94.4612V18.1051Z" fill="white"/>
<path d="M102.138 15.1985C102.138 16.078 101.88 16.7986 101.365 17.3639C100.825 17.9449 100.109 18.2349 99.2165 18.2349C98.3542 18.2349 97.6687 17.9571 97.1586 17.3991C96.6484 16.8423 96.3934 16.1399 96.3934 15.2931C96.3934 14.4076 96.6559 13.681 97.1834 13.1169C97.711 12.5528 98.4202 12.2701 99.3123 12.2701C100.174 12.2701 100.865 12.5479 101.39 13.1047C101.888 13.6458 102.138 14.3445 102.138 15.1985ZM100.784 15.2398C100.784 14.7121 100.667 14.2596 100.435 13.8823C100.162 13.4262 99.7714 13.1982 99.2662 13.1982C98.7412 13.1982 98.343 13.4262 98.0706 13.8823C97.8366 14.2596 97.7209 14.7194 97.7209 15.2628C97.7209 15.7905 97.8379 16.243 98.0706 16.6203C98.353 17.0764 98.7462 17.3044 99.2538 17.3044C99.7515 17.3044 100.141 17.0727 100.422 16.6081C100.665 16.2236 100.784 15.7675 100.784 15.2398Z" fill="white"/>
<path d="M108.448 18.1051H107.278L107.18 17.4464H107.144C106.744 17.9716 106.173 18.2349 105.431 18.2349C104.878 18.2349 104.43 18.0614 104.092 17.7169C103.786 17.4039 103.633 17.0145 103.633 16.5523C103.633 15.8536 103.932 15.321 104.533 14.9523C105.133 14.5835 105.976 14.4027 107.062 14.4112V14.3045C107.062 13.5512 106.657 13.1751 105.844 13.1751C105.266 13.1751 104.756 13.317 104.315 13.5985L104.05 12.7639C104.595 12.4351 105.268 12.2701 106.062 12.2701C107.595 12.2701 108.364 13.0586 108.364 14.6357V16.7416C108.364 17.3129 108.392 17.7678 108.448 18.1051ZM107.095 16.1399V15.258C105.656 15.2337 104.937 15.6183 104.937 16.4104C104.937 16.7088 105.019 16.932 105.187 17.0812C105.355 17.2304 105.569 17.3044 105.824 17.3044C106.11 17.3044 106.378 17.2159 106.622 17.04C106.867 16.8629 107.018 16.6385 107.073 16.3631C107.087 16.3012 107.095 16.226 107.095 16.1399Z" fill="white"/>
<path d="M115.857 18.1051H114.7L114.639 17.1868H114.603C114.234 17.8855 113.604 18.2349 112.72 18.2349C112.013 18.2349 111.424 17.9644 110.958 17.4233C110.491 16.8823 110.259 16.1799 110.259 15.3174C110.259 14.3918 110.511 13.6421 111.019 13.0696C111.51 12.5358 112.112 12.2689 112.829 12.2689C113.617 12.2689 114.168 12.5273 114.481 13.0453H114.506V9.7627H115.811V16.5645C115.811 17.1213 115.826 17.6344 115.857 18.1051ZM114.506 15.6935V14.74C114.506 14.575 114.494 14.4416 114.47 14.3397C114.397 14.034 114.239 13.7768 113.999 13.5694C113.756 13.3619 113.464 13.2576 113.126 13.2576C112.64 13.2576 112.259 13.4456 111.979 13.8229C111.702 14.2002 111.561 14.6817 111.561 15.2701C111.561 15.8354 111.694 16.2939 111.962 16.6469C112.244 17.023 112.625 17.211 113.102 17.211C113.53 17.211 113.872 17.0545 114.132 16.7404C114.383 16.4504 114.506 16.1011 114.506 15.6935Z" fill="white"/>
<path d="M127.009 15.1985C127.009 16.078 126.752 16.7986 126.236 17.3639C125.697 17.9449 124.982 18.2349 124.088 18.2349C123.228 18.2349 122.542 17.9571 122.03 17.3991C121.52 16.8423 121.265 16.1399 121.265 15.2931C121.265 14.4076 121.527 13.681 122.055 13.1169C122.582 12.5528 123.291 12.2701 124.186 12.2701C125.046 12.2701 125.739 12.5479 126.261 13.1047C126.759 13.6458 127.009 14.3445 127.009 15.1985ZM125.658 15.2398C125.658 14.7121 125.541 14.2596 125.308 13.8823C125.033 13.4262 124.645 13.1982 124.138 13.1982C123.615 13.1982 123.217 13.4262 122.942 13.8823C122.708 14.2596 122.592 14.7194 122.592 15.2628C122.592 15.7905 122.709 16.243 122.942 16.6203C123.224 17.0764 123.617 17.3044 124.125 17.3044C124.623 17.3044 125.015 17.0727 125.296 16.6081C125.536 16.2236 125.658 15.7675 125.658 15.2398Z" fill="white"/>
<path d="M134.02 18.1051H132.717V14.8298C132.717 13.8205 132.324 13.3158 131.534 13.3158C131.147 13.3158 130.835 13.4541 130.594 13.7319C130.352 14.0097 130.232 14.3372 130.232 14.7121V18.1039H128.926V14.0206C128.926 13.5184 128.911 12.9737 128.88 12.3842H130.025L130.086 13.2782H130.122C130.275 13.0004 130.502 12.7712 130.798 12.588C131.152 12.3745 131.547 12.2665 131.981 12.2665C132.527 12.2665 132.982 12.4388 133.345 12.7845C133.796 13.2079 134.02 13.8399 134.02 14.6793V18.1051Z" fill="white"/>
<path d="M142.795 13.3389H141.36V16.1168C141.36 16.8228 141.615 17.1759 142.12 17.1759C142.354 17.1759 142.548 17.1564 142.701 17.1164L142.734 18.0808C142.477 18.1754 142.138 18.2227 141.722 18.2227C141.207 18.2227 140.806 18.0699 140.516 17.7642C140.225 17.4585 140.081 16.9442 140.081 16.2224V13.3389H139.223V12.3866H140.081V11.3385L141.358 10.9624V12.3854H142.794V13.3389H142.795Z" fill="white"/>
<path d="M149.698 18.1051H148.393V14.854C148.393 13.829 148 13.3158 147.212 13.3158C146.608 13.3158 146.194 13.613 145.968 14.2074C145.929 14.3324 145.907 14.4852 145.907 14.6648V18.1039H144.604V9.7627H145.907V13.2091H145.932C146.343 12.5819 146.931 12.2689 147.694 12.2689C148.234 12.2689 148.68 12.4412 149.035 12.7869C149.477 13.2176 149.698 13.8581 149.698 14.7048V18.1051Z" fill="white"/>
<path d="M156.819 14.9753C156.819 15.2034 156.801 15.395 156.77 15.5515H152.86C152.877 16.1168 153.064 16.5475 153.426 16.8459C153.757 17.1128 154.183 17.2462 154.706 17.2462C155.285 17.2462 155.812 17.1564 156.287 16.9757L156.491 17.8588C155.935 18.0941 155.281 18.2118 154.523 18.2118C153.615 18.2118 152.899 17.951 152.382 17.4294C151.862 16.9078 151.604 16.2078 151.604 15.3295C151.604 14.467 151.844 13.7489 152.328 13.1763C152.833 12.5649 153.517 12.2592 154.379 12.2592C155.222 12.2592 155.863 12.5649 156.296 13.1763C156.646 13.6615 156.819 14.262 156.819 14.9753ZM155.574 14.6466C155.584 14.2693 155.499 13.9442 155.322 13.67C155.095 13.317 154.751 13.1399 154.284 13.1399C153.859 13.1399 153.512 13.3122 153.247 13.6579C153.03 13.9333 152.902 14.262 152.86 14.6466H155.574Z" fill="white"/>
</svg>
