<svg width="16" height="16" viewBox="0 0 16 16" fill="none" xmlns="http://www.w3.org/2000/svg">
<path d="M14.6667 0.5H1.33333C0.8725 0.5 0.5 0.873333 0.5 1.33333V14.6667C0.5 15.1267 0.8725 15.5 1.33333 15.5H8.5125V9.7H6.56417V7.42917H8.5125V5.7625C8.5125 3.825 9.69583 2.76917 11.4292 2.76917C12.0117 2.7675 12.595 2.7975 13.175 2.85833V4.875H11.9792C11.0392 4.875 10.8558 5.32333 10.8558 5.97917V7.425H13.1033L12.8117 9.69583H10.855V15.5H14.6667C15.1275 15.5 15.5 15.1267 15.5 14.6667V1.33333C15.5 0.873333 15.1275 0.5 14.6667 0.5Z" fill="#0C3261"/>
</svg>
