<svg width="12" height="12" viewBox="0 0 12 12" fill="none" xmlns="http://www.w3.org/2000/svg">
<path d="M11.8015 4.35425C11.7262 4.13375 11.5273 3.978 11.2951 3.95992L7.96955 3.69567L6.53047 0.510087C6.43655 0.300671 6.2283 0.166504 5.99905 0.166504C5.7698 0.166504 5.56155 0.300671 5.46764 0.509504L4.02855 3.69567L0.702969 3.95992C0.474885 3.978 0.278302 4.12792 0.200718 4.34317C0.123135 4.55842 0.177969 4.79934 0.341885 4.95917L2.79947 7.35492L1.9303 11.1186C1.87664 11.3513 1.97055 11.5934 2.16714 11.7293C2.26747 11.7982 2.38297 11.8332 2.49905 11.8332C2.61164 11.8332 2.7248 11.8005 2.8228 11.7352L5.99905 9.61767L9.1753 11.7352C9.3783 11.8705 9.64489 11.8653 9.84322 11.7212C10.0404 11.5771 10.1273 11.3245 10.0602 11.09L8.9933 7.35667L11.6393 4.9755C11.8126 4.81917 11.8761 4.57534 11.8015 4.35425Z" fill="#FFBA08"/>
</svg>
