<svg width="115" height="26" viewBox="0 0 115 26" fill="none" xmlns="http://www.w3.org/2000/svg">
<path d="M0.941406 25.8248H26.5914V0.174805H0.941406V25.8248ZM21.6544 10.5318H16.2344V5.1118H21.6544V10.5318ZM5.87741 5.1118H11.3004V15.4678H21.6544V20.8878H5.87741V5.1118ZM43.2944 0.174805C40.7578 0.174805 38.2782 0.926985 36.1692 2.33621C34.0601 3.74544 32.4163 5.74844 31.4456 8.09191C30.4749 10.4354 30.221 13.014 30.7158 15.5018C31.2107 17.9896 32.4321 20.2748 34.2257 22.0684C36.0193 23.8621 38.3045 25.0835 40.7923 25.5784C43.2802 26.0732 45.8588 25.8193 48.2023 24.8486C50.5458 23.8779 52.5487 22.2341 53.958 20.125C55.3672 18.0159 56.1194 15.5363 56.1194 12.9998C56.1154 9.5996 54.7629 6.33984 52.3586 3.93555C49.9543 1.53125 46.6946 0.178775 43.2944 0.174805ZM43.2944 20.8878C41.7343 20.8878 40.2092 20.4252 38.912 19.5584C37.6149 18.6917 36.6038 17.4598 36.0068 16.0184C35.4098 14.5771 35.2536 12.9911 35.5579 11.4609C35.8623 9.9308 36.6136 8.52531 37.7167 7.42215C38.8199 6.319 40.2254 5.56773 41.7555 5.26337C43.2856 4.95901 44.8716 5.11523 46.313 5.71224C47.7543 6.30926 48.9863 7.32029 49.853 8.6175C50.7198 9.9146 51.1824 11.4397 51.1824 12.9998C51.1792 15.0909 50.3471 17.0954 48.8685 18.574C47.3899 20.0526 45.3854 20.8846 43.2944 20.8878ZM102.013 0.174805C99.4764 0.174615 96.9971 0.926615 94.8879 2.33572C92.7787 3.74483 91.1348 5.74776 90.1639 8.09121C89.1931 10.4346 88.9389 13.0134 89.4337 15.5012C89.9284 17.9891 91.1498 20.2744 92.9434 22.0681C94.7369 23.8618 97.0221 25.0834 99.5104 25.5783C101.997 26.0732 104.576 25.8193 106.92 24.8487C109.263 23.878 111.266 22.2342 112.675 20.1251C114.085 18.016 114.837 15.5364 114.837 12.9998C114.833 9.5998 113.481 6.34016 111.077 3.9359C108.673 1.53163 105.413 0.179045 102.013 0.174805ZM102.013 20.8878C100.453 20.888 98.9284 20.4255 97.6308 19.5589C96.3335 18.6923 95.3223 17.4604 94.7251 16.0191C94.1279 14.5778 93.9716 12.9917 94.2758 11.4615C94.5801 9.9314 95.3313 8.5258 96.4344 7.4225C97.5375 6.31924 98.9434 5.56788 100.473 5.26344C102.003 4.959 103.589 5.11515 105.03 5.71215C106.472 6.30914 107.704 7.32016 108.571 8.6174C109.437 9.9146 109.9 11.4397 109.9 12.9998C109.897 15.0907 109.065 17.095 107.586 18.5736C106.108 20.0522 104.104 20.8844 102.013 20.8878ZM72.6534 0.174805C70.1168 0.174805 67.6372 0.926985 65.5282 2.33621C63.4191 3.74544 61.7753 5.74844 60.8046 8.09191C59.8339 10.4354 59.58 13.014 60.0748 15.5018C60.5697 17.9896 61.7911 20.2748 63.5847 22.0684C65.3783 23.8621 67.6635 25.0835 70.1513 25.5784C72.6391 26.0732 75.2178 25.8193 77.5613 24.8486C79.9048 23.8779 81.9077 22.2341 83.317 20.125C84.7262 18.0159 85.4784 15.5363 85.4784 12.9998C85.4744 9.5996 84.1219 6.33984 81.7176 3.93555C79.3133 1.53125 76.0536 0.178775 72.6534 0.174805ZM72.6534 20.8878C71.1998 20.8885 69.7744 20.4876 68.5343 19.7293C67.2943 18.971 66.2878 17.8849 65.6261 16.5907C64.9645 15.2965 64.6732 13.8446 64.7846 12.3954C64.896 10.9461 65.4056 9.5558 66.2573 8.3779C67.109 7.20006 68.2696 6.28041 69.6109 5.72051C70.9523 5.1606 72.4223 4.98222 73.8586 5.20504C75.295 5.42787 76.6418 6.04324 77.7505 6.98323C78.8592 7.92321 79.6866 9.1513 80.1414 10.5318H72.6534V15.4678H80.1414C79.6205 17.0431 78.6169 18.4145 77.2728 19.3873C75.9288 20.3602 74.3126 20.8851 72.6534 20.8878Z" fill="#B4B7C9"/>
</svg>
