<svg width="180" height="52" viewBox="0 0 180 52" fill="none" xmlns="http://www.w3.org/2000/svg">
<rect width="144" height="41.6" rx="8" transform="matrix(1.25 0 0 -1.25 0 52)" fill="#131022"/>
<path d="M66.5055 14.9591C66.5055 15.9104 66.2138 16.6724 65.639 17.2407C64.9782 17.9143 64.1176 18.2533 63.0629 18.2533C62.0549 18.2533 61.1943 17.9086 60.4882 17.2293C59.7807 16.54 59.4277 15.694 59.4277 14.6813C59.4277 13.6687 59.7807 12.8227 60.4882 12.1391C61.1943 11.454 62.0549 11.1094 63.0629 11.1094C63.5647 11.1094 64.0432 11.2105 64.4998 11.3985C64.9549 11.5879 65.3254 11.8443 65.5938 12.1605L64.9841 12.7615C64.5158 12.2217 63.8783 11.9554 63.0629 11.9554C62.3277 11.9554 61.6902 12.206 61.149 12.7116C60.6137 13.2187 60.3453 13.8752 60.3453 14.6813C60.3453 15.4875 60.6137 16.1497 61.149 16.6567C61.6902 17.1566 62.3277 17.413 63.0629 17.413C63.8433 17.413 64.4998 17.1566 65.0176 16.651C65.359 16.3163 65.553 15.8549 65.604 15.2653H63.0629V14.4421H66.453C66.4939 14.6201 66.5055 14.7924 66.5055 14.9591Z" fill="white"/>
<path d="M71.8839 12.1049H68.6995V14.2697H71.5703V15.0929H68.6995V17.2578H71.8839V18.0966H67.798V11.266H71.8839V12.1049Z" fill="white"/>
<path d="M75.6795 18.0966H74.778V12.1049H72.8248V11.266H77.6342V12.1049H75.6795V18.0966Z" fill="white"/>
<path d="M81.1148 18.0966V11.266H82.0148V18.0966H81.1148Z" fill="white"/>
<path d="M86.0045 18.0966H85.1103V12.1049H83.1497V11.266H87.965V12.1049H86.0045V18.0966Z" fill="white"/>
<path d="M97.0705 17.2179C96.3805 17.9086 95.5257 18.2533 94.506 18.2533C93.4805 18.2533 92.6257 17.9086 91.9357 17.2179C91.2472 16.5286 90.9044 15.6826 90.9044 14.6813C90.9044 13.6801 91.2472 12.8341 91.9357 12.1448C92.6257 11.454 93.4805 11.1094 94.506 11.1094C95.5198 11.1094 96.3747 11.454 97.0646 12.1505C97.759 12.8455 98.1018 13.6858 98.1018 14.6813C98.1018 15.6826 97.759 16.5286 97.0705 17.2179ZM92.6024 16.6453C93.1217 17.1566 93.7533 17.413 94.506 17.413C95.2529 17.413 95.8904 17.1566 96.4038 16.6453C96.9217 16.134 97.1843 15.4775 97.1843 14.6813C97.1843 13.8852 96.9217 13.2286 96.4038 12.7173C95.8904 12.206 95.2529 11.9497 94.506 11.9497C93.7533 11.9497 93.1217 12.206 92.6024 12.7173C92.0845 13.2286 91.8219 13.8852 91.8219 14.6813C91.8219 15.4775 92.0845 16.134 92.6024 16.6453Z" fill="white"/>
<path d="M99.3665 18.0966V11.266H100.461L103.862 16.5784H103.902L103.862 15.2653V11.266H104.762V18.0966H103.823L100.261 12.5222H100.221L100.261 13.841V18.0966H99.3665Z" fill="white"/>
<path d="M90.6821 28.0724C87.9411 28.0724 85.702 30.109 85.702 32.919C85.702 35.7062 87.9411 37.7642 90.6821 37.7642C93.4289 37.7642 95.6681 35.7062 95.6681 32.919C95.6681 30.109 93.4289 28.0724 90.6821 28.0724ZM90.6821 35.8558C89.1781 35.8558 87.8842 34.6437 87.8842 32.919C87.8842 31.1715 89.1781 29.9808 90.6821 29.9808C92.1861 29.9808 93.4858 31.1715 93.4858 32.919C93.4858 34.6437 92.1861 35.8558 90.6821 35.8558ZM79.816 28.0724C77.0692 28.0724 74.8358 30.109 74.8358 32.919C74.8358 35.7062 77.0692 37.7642 79.816 37.7642C82.5613 37.7642 84.7961 35.7062 84.7961 32.919C84.7961 30.109 82.5613 28.0724 79.816 28.0724ZM79.816 35.8558C78.3105 35.8558 77.0123 34.6437 77.0123 32.919C77.0123 31.1715 78.3105 29.9808 79.816 29.9808C81.3199 29.9808 82.6138 31.1715 82.6138 32.919C82.6138 34.6437 81.3199 35.8558 79.816 35.8558ZM66.8857 29.5578V31.6173H71.9227C71.7754 32.768 71.3815 33.614 70.7776 34.2037C70.0424 34.9158 68.8973 35.7062 66.8857 35.7062C63.7859 35.7062 61.3585 33.2637 61.3585 30.2372C61.3585 27.2107 63.7859 24.7681 66.8857 24.7681C68.5618 24.7681 69.7813 25.4076 70.6813 26.2365L72.1678 24.7852C70.9089 23.6117 69.2343 22.7101 66.8857 22.7101C62.6349 22.7101 59.0625 26.087 59.0625 30.2372C59.0625 34.3874 62.6349 37.7642 66.8857 37.7642C69.1832 37.7642 70.9089 37.0293 72.2655 35.6507C73.6557 34.2934 74.089 32.3849 74.089 30.8439C74.089 30.3654 74.0481 29.9253 73.9752 29.5578H66.8857ZM119.759 31.1544C119.349 30.0705 118.084 28.0724 115.508 28.0724C112.956 28.0724 110.83 30.0364 110.83 32.919C110.83 35.6336 112.934 37.7642 115.753 37.7642C118.033 37.7642 119.349 36.4069 119.89 35.6165L118.198 34.5156C117.634 35.3217 116.865 35.8558 115.753 35.8558C114.649 35.8558 113.857 35.3615 113.349 34.3874L119.988 31.7056L119.759 31.1544ZM112.991 32.768C112.934 30.8994 114.477 29.9424 115.583 29.9424C116.449 29.9424 117.184 30.3654 117.43 30.9707L112.991 32.768ZM107.595 37.4694H109.777V23.2271H107.595V37.4694ZM104.021 29.1519H103.948C103.458 28.5851 102.523 28.0724 101.338 28.0724C98.8525 28.0724 96.5798 30.203 96.5798 32.9347C96.5798 35.6507 98.8525 37.7642 101.338 37.7642C102.523 37.7642 103.458 37.2472 103.948 36.6633H104.021V37.3583C104.021 39.2112 103.007 40.2068 101.372 40.2068C100.038 40.2068 99.2113 39.2668 98.87 38.4763L96.9722 39.2497C97.5192 40.5343 98.9677 42.1152 101.372 42.1152C103.93 42.1152 106.089 40.6454 106.089 37.0692V28.3672H104.021V29.1519ZM101.525 35.8558C100.021 35.8558 98.762 34.6266 98.762 32.9347C98.762 31.227 100.021 29.9808 101.525 29.9808C103.007 29.9808 104.175 31.227 104.175 32.9347C104.175 34.6266 103.007 35.8558 101.525 35.8558ZM129.976 23.2271H124.757V37.4694H126.933V32.073H129.976C132.393 32.073 134.764 30.3654 134.764 27.6494C134.764 24.9348 132.387 23.2271 129.976 23.2271ZM130.033 30.0919H126.933V25.2082H130.033C131.658 25.2082 132.586 26.5256 132.586 27.6494C132.586 28.7517 131.658 30.0919 130.033 30.0919ZM143.487 28.0453C141.914 28.0453 140.279 28.7232 139.607 30.2258L141.538 31.0162C141.954 30.2258 142.718 29.9694 143.526 29.9694C144.655 29.9694 145.801 30.6317 145.818 31.801V31.9505C145.424 31.7283 144.581 31.3993 143.544 31.3993C141.464 31.3993 139.344 32.5174 139.344 34.6039C139.344 36.5123 141.048 37.7414 142.963 37.7414C144.428 37.7414 145.236 37.0963 145.744 36.3457H145.818V37.4466H147.92V31.9833C147.92 29.4581 145.989 28.0453 143.487 28.0453ZM143.224 35.8501C142.513 35.8501 141.521 35.5054 141.521 34.6437C141.521 33.5414 142.758 33.1184 143.828 33.1184C144.787 33.1184 145.236 33.3249 145.818 33.5969C145.647 34.9158 144.485 35.8501 143.224 35.8501ZM155.578 28.3572L153.077 34.5312H153.002L150.416 28.3572H148.069L151.955 36.9852L149.738 41.7862H152.012L158 28.3572H155.578ZM135.96 37.4694H138.142V23.2271H135.96V37.4694Z" fill="white"/>
<path d="M22.5412 11.8776C22.1984 12.2279 22 12.7734 22 13.4798V38.6773C22 39.3837 22.1984 39.9292 22.5412 40.2795L22.6258 40.3564L37.0877 26.2424V25.9091L22.6258 11.795L22.5412 11.8776Z" fill="url(#paint0_linear_0_9882)"/>
<path d="M41.9032 30.9492L37.0879 26.2421V25.9089L41.909 21.2018L42.017 21.263L47.7265 24.4348C49.3559 25.3349 49.3559 26.8161 47.7265 27.7219L42.017 30.888L41.9032 30.9492Z" fill="url(#paint1_linear_0_9882)"/>
<path d="M42.0166 30.8885L37.0876 26.0761L22.541 40.2799C23.0822 40.8353 23.9647 40.9023 24.9684 40.3468L42.0166 30.8885Z" fill="url(#paint2_linear_0_9882)"/>
<path d="M42.0166 21.2637L24.9684 11.8054C23.9647 11.2557 23.0822 11.3226 22.541 11.878L37.0876 26.0762L42.0166 21.2637Z" fill="url(#paint3_linear_0_9882)"/>
<defs>
<linearGradient id="paint0_linear_0_9882" x1="35.8037" y1="38.9397" x2="16.6876" y2="19.3604" gradientUnits="userSpaceOnUse">
<stop stop-color="#00A0FF"/>
<stop offset="0.0066" stop-color="#00A1FF"/>
<stop offset="0.2601" stop-color="#00BEFF"/>
<stop offset="0.5122" stop-color="#00D2FF"/>
<stop offset="0.7604" stop-color="#00DFFF"/>
<stop offset="1" stop-color="#00E3FF"/>
</linearGradient>
<linearGradient id="paint1_linear_0_9882" x1="49.8482" y1="26.0739" x2="21.6107" y2="26.0739" gradientUnits="userSpaceOnUse">
<stop stop-color="#FFE000"/>
<stop offset="0.4087" stop-color="#FFBD00"/>
<stop offset="0.7754" stop-color="#FFA500"/>
<stop offset="1" stop-color="#FF9C00"/>
</linearGradient>
<linearGradient id="paint2_linear_0_9882" x1="39.3363" y1="23.4599" x2="13.4134" y2="-3.09118" gradientUnits="userSpaceOnUse">
<stop stop-color="#FF3A44"/>
<stop offset="1" stop-color="#C31162"/>
</linearGradient>
<linearGradient id="paint3_linear_0_9882" x1="18.8793" y1="48.6631" x2="30.4551" y2="36.8069" gradientUnits="userSpaceOnUse">
<stop stop-color="#32A071"/>
<stop offset="0.0685" stop-color="#2DA771"/>
<stop offset="0.4762" stop-color="#15CF74"/>
<stop offset="0.8009" stop-color="#06E775"/>
<stop offset="1" stop-color="#00F076"/>
</linearGradient>
</defs>
</svg>
