<svg width="136" height="50" viewBox="0 0 136 50" fill="none" xmlns="http://www.w3.org/2000/svg">
<g clip-path="url(#clip0_0_928)">
<mask id="mask0_0_928" style="mask-type:luminance" maskUnits="userSpaceOnUse" x="24" y="12" width="26" height="26">
<path d="M48.9577 22.667H36.9993V27.6253H43.8827C43.241 30.7753 40.5577 32.5837 36.9993 32.5837C32.7993 32.5837 29.416 29.2003 29.416 25.0003C29.416 20.8003 32.7993 17.417 36.9993 17.417C38.8077 17.417 40.441 18.0587 41.7243 19.1087L45.4577 15.3753C43.1827 13.392 40.266 12.167 36.9993 12.167C29.8827 12.167 24.166 17.8837 24.166 25.0003C24.166 32.117 29.8827 37.8337 36.9993 37.8337C43.416 37.8337 49.2494 33.167 49.2494 25.0003C49.2494 24.242 49.1327 23.4253 48.9577 22.667Z" fill="white"/>
</mask>
<g mask="url(#mask0_0_928)">
<path d="M23 32.5837V17.417L32.9167 25.0003L23 32.5837Z" fill="#FBBC05"/>
</g>
<mask id="mask1_0_928" style="mask-type:luminance" maskUnits="userSpaceOnUse" x="24" y="12" width="26" height="26">
<path d="M48.9577 22.667H36.9993V27.6253H43.8827C43.241 30.7753 40.5577 32.5837 36.9993 32.5837C32.7993 32.5837 29.416 29.2003 29.416 25.0003C29.416 20.8003 32.7993 17.417 36.9993 17.417C38.8077 17.417 40.441 18.0587 41.7243 19.1087L45.4577 15.3753C43.1827 13.392 40.266 12.167 36.9993 12.167C29.8827 12.167 24.166 17.8837 24.166 25.0003C24.166 32.117 29.8827 37.8337 36.9993 37.8337C43.416 37.8337 49.2494 33.167 49.2494 25.0003C49.2494 24.242 49.1327 23.4253 48.9577 22.667Z" fill="white"/>
</mask>
<g mask="url(#mask1_0_928)">
<path d="M23 17.4167L32.9167 25L37 21.4417L51 19.1667V11H23V17.4167Z" fill="#EA4335"/>
</g>
<mask id="mask2_0_928" style="mask-type:luminance" maskUnits="userSpaceOnUse" x="24" y="12" width="26" height="26">
<path d="M48.9577 22.667H36.9993V27.6253H43.8827C43.241 30.7753 40.5577 32.5837 36.9993 32.5837C32.7993 32.5837 29.416 29.2003 29.416 25.0003C29.416 20.8003 32.7993 17.417 36.9993 17.417C38.8077 17.417 40.441 18.0587 41.7243 19.1087L45.4577 15.3753C43.1827 13.392 40.266 12.167 36.9993 12.167C29.8827 12.167 24.166 17.8837 24.166 25.0003C24.166 32.117 29.8827 37.8337 36.9993 37.8337C43.416 37.8337 49.2494 33.167 49.2494 25.0003C49.2494 24.242 49.1327 23.4253 48.9577 22.667Z" fill="white"/>
</mask>
<g mask="url(#mask2_0_928)">
<path d="M23 32.5833L40.5 19.1667L45.1083 19.75L51 11V39H23V32.5833Z" fill="#34A853"/>
</g>
<mask id="mask3_0_928" style="mask-type:luminance" maskUnits="userSpaceOnUse" x="24" y="12" width="26" height="26">
<path d="M48.9577 22.667H36.9993V27.6253H43.8827C43.241 30.7753 40.5577 32.5837 36.9993 32.5837C32.7993 32.5837 29.416 29.2003 29.416 25.0003C29.416 20.8003 32.7993 17.417 36.9993 17.417C38.8077 17.417 40.441 18.0587 41.7243 19.1087L45.4577 15.3753C43.1827 13.392 40.266 12.167 36.9993 12.167C29.8827 12.167 24.166 17.8837 24.166 25.0003C24.166 32.117 29.8827 37.8337 36.9993 37.8337C43.416 37.8337 49.2494 33.167 49.2494 25.0003C49.2494 24.242 49.1327 23.4253 48.9577 22.667Z" fill="white"/>
</mask>
<g mask="url(#mask3_0_928)">
<path d="M50.9987 39.0003L32.9154 25.0003L30.582 23.2503L50.9987 17.417V39.0003Z" fill="#4285F4"/>
</g>
</g>
<path d="M63.8656 30.66C62.4043 30.66 61.263 30.2813 60.4416 29.524C59.631 28.7667 59.199 27.7107 59.1456 26.356C59.135 26.0467 59.1296 25.5507 59.1296 24.868C59.1296 24.1853 59.135 23.6893 59.1456 23.38C59.199 22.0573 59.6363 21.0227 60.4576 20.276C61.2896 19.5187 62.4256 19.14 63.8656 19.14C64.847 19.14 65.6896 19.3053 66.3936 19.636C67.0976 19.9667 67.631 20.3827 67.9936 20.884C68.3563 21.3747 68.5483 21.86 68.5696 22.34V22.372C68.5696 22.4573 68.5376 22.532 68.4736 22.596C68.4096 22.6493 68.3296 22.676 68.2336 22.676H66.5856C66.479 22.676 66.399 22.66 66.3456 22.628C66.2923 22.5853 66.2443 22.516 66.2016 22.42C66.0523 22.0253 65.791 21.6893 65.4176 21.412C65.0443 21.124 64.527 20.98 63.8656 20.98C63.119 20.98 62.5323 21.1827 62.1056 21.588C61.6896 21.9933 61.4656 22.6173 61.4336 23.46C61.423 23.7693 61.4176 24.2387 61.4176 24.868C61.4176 25.4867 61.423 25.956 61.4336 26.276C61.4976 27.972 62.319 28.82 63.8976 28.82C64.655 28.82 65.263 28.6173 65.7216 28.212C66.1803 27.796 66.4096 27.1827 66.4096 26.372V25.876H64.4576C64.3403 25.876 64.2443 25.8387 64.1696 25.764C64.1056 25.6893 64.0736 25.5933 64.0736 25.476V24.628C64.0736 24.5107 64.1056 24.4147 64.1696 24.34C64.2443 24.2653 64.3403 24.228 64.4576 24.228H68.2816C68.399 24.228 68.4896 24.2653 68.5536 24.34C68.6283 24.4147 68.6656 24.5107 68.6656 24.628V26.308C68.6656 27.1933 68.4683 27.9667 68.0736 28.628C67.6896 29.2787 67.135 29.78 66.4096 30.132C65.6843 30.484 64.8363 30.66 63.8656 30.66ZM74.2048 30.66C72.9568 30.66 71.9914 30.34 71.3088 29.7C70.6261 29.0493 70.2581 28.164 70.2048 27.044L70.1888 26.34L70.2048 25.636C70.2581 24.5267 70.6314 23.6467 71.3248 22.996C72.0181 22.3453 72.9781 22.02 74.2048 22.02C75.4314 22.02 76.3914 22.3453 77.0848 22.996C77.7781 23.6467 78.1514 24.5267 78.2048 25.636C78.2154 25.764 78.2208 25.9987 78.2208 26.34C78.2208 26.6813 78.2154 26.916 78.2048 27.044C78.1514 28.164 77.7834 29.0493 77.1008 29.7C76.4181 30.34 75.4528 30.66 74.2048 30.66ZM74.2048 29.076C74.7701 29.076 75.2074 28.9 75.5168 28.548C75.8261 28.1853 75.9968 27.6573 76.0288 26.964C76.0394 26.8573 76.0448 26.6493 76.0448 26.34C76.0448 26.0307 76.0394 25.8227 76.0288 25.716C75.9968 25.0227 75.8261 24.5 75.5168 24.148C75.2074 23.7853 74.7701 23.604 74.2048 23.604C73.6394 23.604 73.2021 23.7853 72.8928 24.148C72.5834 24.5 72.4128 25.0227 72.3808 25.716L72.3648 26.34L72.3808 26.964C72.4128 27.6573 72.5834 28.1853 72.8928 28.548C73.2021 28.9 73.6394 29.076 74.2048 29.076ZM83.6735 30.66C82.4255 30.66 81.4602 30.34 80.7775 29.7C80.0948 29.0493 79.7268 28.164 79.6735 27.044L79.6575 26.34L79.6735 25.636C79.7268 24.5267 80.1002 23.6467 80.7935 22.996C81.4868 22.3453 82.4468 22.02 83.6735 22.02C84.9002 22.02 85.8602 22.3453 86.5535 22.996C87.2468 23.6467 87.6202 24.5267 87.6735 25.636C87.6842 25.764 87.6895 25.9987 87.6895 26.34C87.6895 26.6813 87.6842 26.916 87.6735 27.044C87.6202 28.164 87.2522 29.0493 86.5695 29.7C85.8868 30.34 84.9215 30.66 83.6735 30.66ZM83.6735 29.076C84.2388 29.076 84.6762 28.9 84.9855 28.548C85.2948 28.1853 85.4655 27.6573 85.4975 26.964C85.5082 26.8573 85.5135 26.6493 85.5135 26.34C85.5135 26.0307 85.5082 25.8227 85.4975 25.716C85.4655 25.0227 85.2948 24.5 84.9855 24.148C84.6762 23.7853 84.2388 23.604 83.6735 23.604C83.1082 23.604 82.6708 23.7853 82.3615 24.148C82.0522 24.5 81.8815 25.0227 81.8495 25.716L81.8335 26.34L81.8495 26.964C81.8815 27.6573 82.0522 28.1853 82.3615 28.548C82.6708 28.9 83.1082 29.076 83.6735 29.076ZM93.2223 34.02C92.2729 34.02 91.5049 33.86 90.9183 33.54C90.3316 33.2307 89.9156 32.8733 89.6703 32.468C89.4249 32.0627 89.3023 31.716 89.3023 31.428C89.3023 31.332 89.3396 31.2467 89.4143 31.172C89.4996 31.0973 89.5903 31.06 89.6863 31.06H91.0783C91.1743 31.06 91.2543 31.0813 91.3183 31.124C91.3929 31.1773 91.4516 31.268 91.4943 31.396C91.6009 31.684 91.7716 31.924 92.0063 32.116C92.2516 32.3187 92.6303 32.42 93.1423 32.42C93.7823 32.42 94.2516 32.276 94.5503 31.988C94.8596 31.7 95.0143 31.204 95.0143 30.5V29.412C94.4276 30.1053 93.6063 30.452 92.5503 30.452C91.4409 30.452 90.6036 30.1107 90.0383 29.428C89.4836 28.7453 89.1849 27.828 89.1423 26.676L89.1263 26.244L89.1423 25.812C89.1849 24.6813 89.4889 23.7693 90.0543 23.076C90.6196 22.372 91.4516 22.02 92.5503 22.02C93.1156 22.02 93.6116 22.1267 94.0383 22.34C94.4649 22.5533 94.8223 22.8467 95.1103 23.22V22.58C95.1103 22.4627 95.1476 22.3667 95.2223 22.292C95.2969 22.2173 95.3876 22.18 95.4943 22.18H96.7903C96.8969 22.18 96.9876 22.2227 97.0623 22.308C97.1369 22.3827 97.1743 22.4733 97.1743 22.58L97.1903 30.292C97.1903 31.476 96.8596 32.3933 96.1983 33.044C95.5369 33.6947 94.5449 34.02 93.2223 34.02ZM93.1423 28.756C93.7503 28.756 94.2036 28.564 94.5023 28.18C94.8116 27.796 94.9823 27.3267 95.0143 26.772C95.0249 26.6867 95.0303 26.5107 95.0303 26.244C95.0303 25.988 95.0249 25.8173 95.0143 25.732C94.9823 25.1667 94.8116 24.692 94.5023 24.308C94.2036 23.924 93.7503 23.732 93.1423 23.732C91.9903 23.732 91.3823 24.4413 91.3183 25.86L91.3023 26.244C91.3023 27.0013 91.4356 27.6093 91.7023 28.068C91.9796 28.5267 92.4596 28.756 93.1423 28.756ZM99.7216 30.5C99.615 30.5 99.5243 30.4627 99.4496 30.388C99.375 30.3133 99.3376 30.2227 99.3376 30.116V19.524C99.3376 19.4067 99.375 19.316 99.4496 19.252C99.5243 19.1773 99.615 19.14 99.7216 19.14H101.05C101.167 19.14 101.258 19.1773 101.322 19.252C101.396 19.316 101.434 19.4067 101.434 19.524V30.116C101.434 30.2227 101.396 30.3133 101.322 30.388C101.258 30.4627 101.167 30.5 101.05 30.5H99.7216ZM107.14 30.66C105.956 30.66 105.012 30.3187 104.308 29.636C103.615 28.9427 103.247 27.972 103.204 26.724L103.188 26.324L103.204 25.924C103.257 24.708 103.631 23.7533 104.324 23.06C105.028 22.3667 105.967 22.02 107.14 22.02C108.399 22.02 109.369 22.404 110.052 23.172C110.745 23.94 111.092 24.964 111.092 26.244V26.58C111.092 26.6867 111.055 26.7773 110.98 26.852C110.905 26.9267 110.809 26.964 110.692 26.964H105.38V27.092C105.401 27.6787 105.561 28.1747 105.86 28.58C106.169 28.9747 106.591 29.172 107.124 29.172C107.753 29.172 108.26 28.9267 108.644 28.436C108.74 28.3187 108.815 28.244 108.868 28.212C108.932 28.18 109.023 28.164 109.14 28.164H110.516C110.612 28.164 110.692 28.196 110.756 28.26C110.831 28.3133 110.868 28.3827 110.868 28.468C110.868 28.724 110.713 29.028 110.404 29.38C110.105 29.7213 109.673 30.02 109.108 30.276C108.543 30.532 107.887 30.66 107.14 30.66ZM108.916 25.62V25.572C108.916 24.9427 108.756 24.436 108.436 24.052C108.127 23.668 107.695 23.476 107.14 23.476C106.585 23.476 106.153 23.668 105.844 24.052C105.535 24.436 105.38 24.9427 105.38 25.572V25.62H108.916Z" fill="#0C3261"/>
<rect x="0.5" y="0.5" width="135" height="49" rx="11.5" stroke="#EBE8F2"/>
<defs>
<clipPath id="clip0_0_928">
<rect width="26" height="26" fill="white" transform="translate(24 12)"/>
</clipPath>
</defs>
</svg>
