<svg width="22" height="22" viewBox="0 0 22 22" fill="none" xmlns="http://www.w3.org/2000/svg">
<path fill-rule="evenodd" clip-rule="evenodd" d="M15.1702 0.709035C15.8538 0.709035 16.5363 0.805452 17.1852 1.0232C21.1838 2.3232 22.6246 6.7107 21.421 10.5457C20.7385 12.5055 19.6227 14.294 18.1613 15.7555C16.0694 17.7813 13.7738 19.5796 11.3027 21.1288L11.0319 21.2924L10.7502 21.118C8.27045 19.5796 5.96187 17.7813 3.85045 15.7446C2.39878 14.2832 1.28187 12.5055 0.588533 10.5457C-0.635633 6.7107 0.8052 2.3232 4.84712 1.00045C5.16128 0.892119 5.4852 0.816285 5.8102 0.774035H5.9402C6.24462 0.729619 6.54687 0.709035 6.8502 0.709035H6.96937C7.65187 0.729619 8.3127 0.848785 8.95295 1.06654H9.01687C9.0602 1.08712 9.0927 1.10987 9.11437 1.13045C9.35378 1.20737 9.5802 1.29404 9.79687 1.4132L10.2085 1.59737C10.308 1.65042 10.4197 1.73148 10.5162 1.80154C10.5773 1.84593 10.6323 1.8859 10.6744 1.91154C10.692 1.92197 10.71 1.93246 10.7281 1.94303C10.821 1.99725 10.9178 2.05374 10.9994 2.11629C12.2029 1.19654 13.6644 0.698202 15.1702 0.709035ZM18.0519 8.50904C18.496 8.49712 18.8752 8.1407 18.9077 7.68462V7.5557C18.9402 6.03795 18.0204 4.6632 16.6219 4.13237C16.1777 3.97962 15.6902 4.21903 15.5277 4.67404C15.376 5.12903 15.6144 5.62737 16.0694 5.78878C16.7638 6.04879 17.2285 6.73237 17.2285 7.48962V7.5232C17.2079 7.77129 17.2827 8.0107 17.4344 8.19487C17.586 8.37903 17.8135 8.48629 18.0519 8.50904Z" fill="#F23D68"/>
</svg>
