<svg width="21" height="20" viewBox="0 0 21 20" fill="none" xmlns="http://www.w3.org/2000/svg">
<path d="M12.3519 9.07407H16.5185C16.7742 9.07407 16.9815 8.86678 16.9815 8.61109V7.68518C16.9815 7.4295 16.7742 7.2222 16.5185 7.2222H14.5871L18.6978 3.11157C18.8786 2.93075 18.8786 2.63765 18.6978 2.45684L18.0432 1.80224C17.8623 1.62142 17.5692 1.62142 17.3884 1.80224L13.2778 5.91287V3.98145C13.2778 3.72576 13.0705 3.51847 12.8148 3.51847H11.8889C11.6332 3.51847 11.4259 3.72576 11.4259 3.98145V8.14811C11.4259 8.65949 11.8405 9.07407 12.3519 9.07407Z" fill="#0C3261"/>
<path d="M17.496 12.6064C16.4751 12.6064 15.4733 12.4468 14.5238 12.133C14.0582 11.9753 13.4867 12.1199 13.2027 12.4115L11.3292 13.8262C9.1563 12.6661 7.81715 11.3278 6.6724 9.17084L8.04684 7.34475C8.404 6.98759 8.5306 6.46719 8.37687 5.98073C8.0622 5.02496 7.90213 4.02309 7.90213 3.00404C7.90218 2.26658 7.30265 1.66663 6.56481 1.66663H3.504C2.76615 1.66663 2.16667 2.26658 2.16667 3.00395C2.16667 11.4567 9.04332 18.3333 17.496 18.3333C18.2339 18.3333 18.8334 17.7333 18.8334 16.9959V13.9437C18.8333 13.2063 18.2339 12.6064 17.496 12.6064Z" fill="#0C3261"/>
</svg>
