<svg width="16" height="16" viewBox="0 0 16 16" fill="none" xmlns="http://www.w3.org/2000/svg">
<path d="M15.4564 4.92104C15.4472 4.29021 15.3305 3.66437 15.1072 3.07437C14.7164 2.06688 13.9205 1.27021 12.913 0.880208C12.3305 0.661042 11.7147 0.543542 11.0914 0.530208C10.2897 0.494375 10.0355 0.484375 8.00055 0.484375C5.96555 0.484375 5.70471 0.484375 4.90888 0.530208C4.28638 0.543542 3.67055 0.661042 3.08805 0.880208C2.08055 1.27021 1.28388 2.06688 0.89388 3.07437C0.674713 3.65687 0.55638 4.27271 0.544714 4.89521C0.50888 5.69771 0.498047 5.95187 0.498047 7.98687C0.498047 10.0219 0.498047 10.2819 0.544714 11.0785C0.557214 11.7019 0.674713 12.3169 0.89388 12.901C1.28471 13.9077 2.08055 14.7044 3.08888 15.0944C3.66888 15.321 4.28471 15.4494 4.90971 15.4694C5.71221 15.5052 5.96638 15.516 8.00138 15.516C10.0364 15.516 10.2972 15.516 11.093 15.4694C11.7155 15.4569 12.3314 15.3394 12.9147 15.1202C13.9222 14.7294 14.718 13.9327 15.1089 12.926C15.328 12.3427 15.4455 11.7277 15.458 11.1035C15.4939 10.3019 15.5047 10.0477 15.5047 8.01187C15.503 5.97687 15.503 5.71854 15.4564 4.92104ZM7.99555 11.8352C5.86721 11.8352 4.14305 10.111 4.14305 7.98271C4.14305 5.85437 5.86721 4.13021 7.99555 4.13021C10.1222 4.13021 11.848 5.85437 11.848 7.98271C11.848 10.111 10.1222 11.8352 7.99555 11.8352ZM12.0014 4.88604C11.5039 4.88604 11.103 4.48437 11.103 3.98771C11.103 3.49104 11.5039 3.08937 12.0014 3.08937C12.4972 3.08937 12.8989 3.49104 12.8989 3.98771C12.8989 4.48437 12.4972 4.88604 12.0014 4.88604Z" fill="#0C3261"/>
</svg>
