<svg width="22" height="22" viewBox="0 0 22 22" fill="none" xmlns="http://www.w3.org/2000/svg">
<path d="M17.1852 1.02248C16.5352 0.805813 15.8527 0.708313 15.1702 0.708313C15.1594 0.708313 15.1377 0.708313 15.1269 0.708313C13.6427 0.708313 12.191 1.20665 10.9994 2.11665C10.9127 2.05165 10.8152 1.99748 10.7285 1.94331C10.7069 1.93248 10.6852 1.92165 10.6744 1.91081C10.631 1.87831 10.5769 1.84581 10.5119 1.80248C10.4144 1.72665 10.306 1.65081 10.2085 1.59665L9.79688 1.41248C9.58021 1.29331 9.35271 1.20665 9.11438 1.13081C9.09271 1.10915 9.06021 1.08748 9.01688 1.06581H8.95188C8.31271 0.849146 7.65188 0.72998 6.96938 0.708313H6.85021C6.54688 0.708313 6.24355 0.72998 5.94021 0.773313H5.81021C5.48521 0.816646 5.16021 0.89248 4.84605 1.00081C0.805213 2.32248 -0.63562 6.70998 0.588547 10.545C1.28188 12.5058 2.39771 14.2825 3.84938 15.745C5.96188 17.7816 8.26938 19.58 10.7502 21.1183L11.0319 21.2916L11.3027 21.1291C13.7727 19.58 16.0694 17.7816 18.1602 15.7558C19.6227 14.2933 20.7385 12.5058 21.421 10.545C22.6235 6.70998 21.1827 2.32248 17.1852 1.02248ZM19.8827 10.0141C19.2869 11.7366 18.2902 13.3291 17.0227 14.5966C15.181 16.3841 13.166 17.9875 11.021 19.385C8.86521 17.9983 6.82855 16.3841 4.98688 14.6075C3.70855 13.3183 2.71188 11.7366 2.11605 10.0575C1.21688 7.21915 2.02938 3.63331 5.35521 2.53915C5.52855 2.47415 5.72355 2.43081 5.90771 2.39831H6.03771L6.15688 2.37665C6.38438 2.34415 6.61188 2.33331 6.83938 2.33331H6.90438C7.34855 2.34415 7.79271 2.41998 8.21521 2.53915L8.23688 2.56081L8.61605 2.67998C8.78938 2.73415 8.90855 2.78831 9.00605 2.84248L9.06021 2.87498L9.12521 2.90748L9.43938 3.04831C9.43938 3.04831 9.48271 3.08081 9.50438 3.09165L9.54771 3.12415L9.60188 3.15665L9.68855 3.21081C9.77521 3.27581 9.86188 3.32998 9.92688 3.36248L9.95938 3.38415L10.0244 3.42748L11.0102 4.16415L11.9852 3.41665C12.906 2.71248 13.9894 2.34415 15.116 2.34415C15.6577 2.34415 16.2102 2.41998 16.676 2.58248C19.9369 3.64415 20.7494 7.22998 19.8827 10.025V10.0141Z" fill="#788BA3"/>
</svg>
