<svg width="20" height="20" viewBox="0 0 20 20" fill="none" xmlns="http://www.w3.org/2000/svg">
<g clip-path="url(#clip0_0_7080)">
<path d="M13.2417 7.67568C13.4762 7.67568 13.7112 7.58616 13.8898 7.40713L16.4827 4.81421C16.8408 4.45657 16.8408 3.87606 16.4827 3.51799C16.1246 3.15992 15.5437 3.15992 15.1865 3.51799L12.5936 6.1109C12.2355 6.46855 12.2355 7.04948 12.5936 7.40713C12.7721 7.5862 13.0071 7.67568 13.2417 7.67568ZM18.2507 9.08337H14.584C14.0777 9.08337 13.6673 9.49383 13.6673 10C13.6673 10.5063 14.0777 10.9167 14.584 10.9167H18.2507C18.7569 10.9167 19.1673 10.5063 19.1673 10C19.1673 9.49383 18.7569 9.08337 18.2507 9.08337ZM12.5936 13.8892L15.1865 16.4821C15.365 16.6611 15.6001 16.7506 15.8346 16.7506C16.0691 16.7506 16.3037 16.6611 16.4827 16.4821C16.8408 16.124 16.8408 15.5435 16.4827 15.1859L13.8898 12.593C13.5321 12.2349 12.9512 12.2349 12.5936 12.593C12.2355 12.9506 12.2355 13.5315 12.5936 13.8892ZM9.08398 18.25C9.08398 18.7563 9.49444 19.1667 10.0007 19.1667C10.5069 19.1667 10.9173 18.7563 10.9173 18.25V14.5834C10.9173 14.0771 10.5069 13.6667 10.0007 13.6667C9.49444 13.6667 9.08398 14.0771 9.08398 14.5834V18.25ZM4.81486 16.4821L7.40777 13.8891C7.76585 13.5315 7.76585 12.9506 7.40777 12.5929C7.05013 12.2348 6.46919 12.2348 6.11155 12.5929L3.51864 15.1858C3.16056 15.5435 3.16056 16.124 3.51864 16.4821C3.69767 16.6611 3.93221 16.7506 4.16675 16.7506C4.40129 16.7506 4.63625 16.6611 4.81486 16.4821ZM0.833984 10C0.833984 10.5063 1.24441 10.9167 1.75065 10.9167H5.41732C5.92352 10.9167 6.33398 10.5063 6.33398 10C6.33398 9.49383 5.92352 9.08337 5.41732 9.08337H1.75065C1.24441 9.08337 0.833984 9.49383 0.833984 10ZM4.81486 3.51803C4.45768 3.15995 3.87671 3.15995 3.51864 3.51803C3.16056 3.8761 3.16056 4.45661 3.51864 4.81425L6.11155 7.40716C6.29012 7.5862 6.52512 7.67572 6.75966 7.67572C6.9942 7.67572 7.2292 7.5862 7.40777 7.40716C7.76585 7.04952 7.76585 6.46858 7.40777 6.11094L4.81486 3.51803ZM10.0007 6.33337C10.5069 6.33337 10.9173 5.92291 10.9173 5.41671V1.75004C10.9173 1.2438 10.5069 0.833374 10.0007 0.833374C9.49444 0.833374 9.08398 1.2438 9.08398 1.75004V5.41671C9.08398 5.92291 9.49444 6.33337 10.0007 6.33337Z" fill="#EBE8F2"/>
</g>
<defs>
<clipPath id="clip0_0_7080">
<rect width="20" height="20" fill="white"/>
</clipPath>
</defs>
</svg>
