<svg width="152" height="19" viewBox="0 0 152 19" fill="none" xmlns="http://www.w3.org/2000/svg">
<path d="M75.693 16.3744H70.573V2.68635H75.693V16.3744ZM71.073 15.8744H75.193V3.18635H71.073V15.8744ZM82.817 16.3744H77.8V2.68635H88.282C89.7836 2.56475 91.279 2.98632 92.496 3.87435C93.0199 4.35366 93.426 4.94754 93.6825 5.60964C93.9391 6.27175 94.0392 6.98418 93.975 7.69135C94.0498 8.91332 93.6609 10.1186 92.886 11.0664C91.969 12.1184 90.443 12.6604 88.351 12.6794C87.824 12.6934 83.875 12.6794 82.82 12.6794L82.817 16.3744ZM78.297 15.8744H82.317V12.1744H82.568C82.619 12.1744 87.746 12.1904 88.339 12.1744C90.288 12.1574 91.689 11.6744 92.508 10.7314C93.1978 9.8738 93.5404 8.7885 93.468 7.69035C93.5295 7.05672 93.4442 6.41744 93.2188 5.82209C92.9933 5.22674 92.6338 4.69132 92.168 4.25735C91.0396 3.44745 89.659 3.06728 88.275 3.18535H78.3L78.297 15.8744ZM87.22 9.60435H82.283V5.87835H87.253C87.6053 5.82967 87.9642 5.87079 88.2963 5.99788C88.6285 6.12498 88.9232 6.33393 89.153 6.60535C89.3615 6.95229 89.4598 7.35433 89.435 7.75835C89.4537 8.13345 89.3727 8.50682 89.2 8.84035C88.9629 9.12623 88.6562 9.3463 88.3094 9.4794C87.9627 9.6125 87.5875 9.65415 87.22 9.60035V9.60435ZM82.783 9.10435H87.22C88.04 9.10435 88.548 8.93335 88.773 8.58135C88.8969 8.3255 88.953 8.04211 88.936 7.75835C88.9579 7.46041 88.8933 7.16249 88.75 6.90035L88.744 6.89135C88.506 6.54135 88.033 6.37835 87.253 6.37835H82.783V9.10435ZM103.1 16.5764C98.61 16.5764 95.93 15.4614 94.909 13.1684C94.7419 12.7255 94.6285 12.2642 94.571 11.7944L94.527 11.5064H99.869L99.904 11.7164C99.9451 11.9296 100.036 12.1303 100.168 12.3024C100.379 12.5574 101.083 12.9854 103.419 12.9854C106.227 12.9854 106.227 12.4924 106.227 12.2274C106.227 11.7804 105.902 11.6274 103.612 11.3834L103.177 11.3424C102.315 11.2614 101.225 11.1584 100.727 11.1154C96.527 10.7354 94.652 9.43035 94.652 6.88535C94.652 4.21235 97.843 2.48535 102.782 2.48535C106.811 2.48535 109.407 3.54735 110.496 5.64435C110.754 6.13213 110.928 6.66034 111.009 7.20635L111.044 7.48735H105.696L105.674 7.26135C105.653 7.08473 105.578 6.91904 105.458 6.78735C105.258 6.51935 104.626 6.07635 102.664 6.07635C100.255 6.07635 99.923 6.38435 99.923 6.71635C99.923 7.15935 100.684 7.31635 103.123 7.57735C104.14 7.66035 105.775 7.82835 106.335 7.89635C109.856 8.27835 111.427 9.55135 111.427 12.0254C111.428 14.1004 109.983 16.5764 103.1 16.5764ZM95.111 12.0064C95.1611 12.3362 95.2473 12.6594 95.368 12.9704C96.298 15.0594 98.828 16.0764 103.1 16.0764C106.672 16.0764 110.931 15.3764 110.931 12.0254C110.931 9.83235 109.541 8.74635 106.282 8.39335C105.722 8.32535 104.097 8.15835 103.082 8.07435C100.482 7.79235 99.425 7.64235 99.425 6.71635C99.425 5.75835 100.564 5.57635 102.666 5.57635C104.327 5.57635 105.4 5.87635 105.855 6.48135C105.979 6.6304 106.073 6.8023 106.131 6.98735H110.465C110.378 6.6006 110.24 6.22704 110.055 5.87635C109.055 3.95735 106.612 2.98535 102.784 2.98535C98.149 2.98535 95.154 4.51635 95.154 6.88535C95.154 9.14535 96.835 10.2614 100.773 10.6174C101.273 10.6604 102.362 10.7634 103.226 10.8454L103.664 10.8864C105.791 11.1104 106.729 11.2504 106.729 12.2274C106.729 13.2794 105.516 13.4854 103.421 13.4854C101.483 13.4854 100.259 13.1944 99.786 12.6214C99.6402 12.4387 99.5302 12.23 99.462 12.0064H95.111ZM120.927 16.5594C115.707 16.5594 112.827 14.4484 112.827 10.6144V2.68635H117.879V10.6144C117.879 11.9294 119.056 12.6834 121.107 12.6834C123.067 12.6834 124.284 11.8964 124.284 10.6314V2.68635H129.284V11.0344C129.289 14.5454 126.24 16.5594 120.924 16.5594H120.927ZM113.327 3.18635V10.6144C113.327 15.3524 118.085 16.0594 120.927 16.0594C123.865 16.0594 128.792 15.4064 128.792 11.0344V3.18635H124.792V10.6314C124.792 12.1814 123.348 13.1834 121.115 13.1834C118.781 13.1834 117.387 12.2234 117.387 10.6144V3.18635H113.327ZM150.472 16.3744H145.704V10.1944L143 16.3744H138.841L136.165 10.2064V16.3744H131.38V2.68635H137.674L140.944 10.2334L144.372 2.68635H150.478L150.472 16.3744ZM146.204 15.8744H149.972V3.18635H144.69L140.928 11.4654L137.342 3.18635H131.876V15.8744H135.661V7.80035L139.161 15.8774H142.661L146.198 7.81235L146.204 15.8744ZM6.054 2.93635H1.5V16.1244H14.084V12.6134H6.054V2.93635ZM23.276 2.63635C17.463 2.63635 14.406 5.39135 14.406 9.43635C14.406 14.0064 17.615 16.3244 23.276 16.3244C29.508 16.3244 32.129 13.6364 32.129 9.43635C32.129 5.17135 29.172 2.63435 23.276 2.63435V2.63635ZM23.259 6.06335C23.6547 6.06149 24.0502 6.08453 24.443 6.13235L19.352 11.2234C19.1111 10.6785 18.9936 10.087 19.008 9.49135C19.008 7.42235 20.05 6.06135 23.259 6.06135V6.06335ZM23.276 12.9514C22.8947 12.9531 22.5137 12.9317 22.135 12.8874L27.235 7.78735C27.4669 8.32325 27.5779 8.90368 27.56 9.48735C27.56 11.5004 26.6 12.9494 23.276 12.9494V12.9514ZM41.152 11.1514H45.839C45.77 11.4767 45.6262 11.7814 45.419 12.0414C44.4473 12.833 43.2072 13.2182 41.958 13.1164C41.3292 13.1837 40.6934 13.115 40.0935 12.915C39.4936 12.7151 38.9436 12.3885 38.481 11.9574C38.0071 11.2623 37.782 10.4275 37.842 9.58835C37.7653 8.70909 38.0101 7.83187 38.531 7.11935C39.186 6.37935 40.295 6.06035 41.925 6.06035C42.9621 5.97448 43.9979 6.24083 44.865 6.81635C45.1383 7.03343 45.3426 7.32526 45.453 7.65635H49.8C49.7684 7.11082 49.6372 6.57568 49.413 6.07735C48.372 3.96035 45.952 2.70035 41.837 2.70035C38.258 2.70035 35.856 3.79235 34.529 5.43935C33.6526 6.62871 33.2027 8.07879 33.252 9.55535C33.1953 11.0654 33.6336 12.5525 34.5 13.7904C35.811 15.4904 38.146 16.3264 40.952 16.3264C42.8175 16.4565 44.6703 15.934 46.193 14.8484L46.311 16.1244H49.922V8.31235H41.152V11.1514ZM60.171 2.63335C54.359 2.63335 51.301 5.38835 51.301 9.43335C51.301 14.0034 54.509 16.3214 60.171 16.3214C66.404 16.3214 69.025 13.6334 69.025 9.43335C69.025 5.17135 66.068 2.63435 60.171 2.63435V2.63335ZM60.155 6.06035C60.5403 6.05921 60.9253 6.08125 61.308 6.12635L56.237 11.2004C56.0036 10.6615 55.89 10.0785 55.904 9.49135C55.9 7.42235 56.946 6.06135 60.155 6.06135V6.06035ZM60.171 12.9484C59.7796 12.9501 59.3885 12.9273 59 12.8804L64.117 7.76235C64.3577 8.30538 64.4729 8.89567 64.454 9.48935C64.456 11.5004 63.5 12.9494 60.171 12.9494V12.9484Z" fill="#B4B7C9"/>
</svg>
