<svg width="68" height="68" viewBox="0 0 68 68" fill="none" xmlns="http://www.w3.org/2000/svg">
<path d="M40.7103 66.8976C40.6644 66.8976 40.6644 66.8976 40.6644 66.8976C40.4806 66.8976 40.2968 66.8057 40.113 66.6219C39.8833 66.3921 39.6076 66.0245 39.24 65.4272L35.4263 59.4539C35.3803 59.362 35.2884 59.408 35.2425 59.408C35.1506 59.408 35.1046 59.4539 35.1046 59.4999L32.8991 65.8867C32.7153 66.3921 32.5775 66.8057 32.4396 67.0354C32.3018 67.3111 32.1639 67.4949 32.0261 67.5868C31.8882 67.6787 31.7044 67.7706 31.4747 67.7706C31.4288 67.7706 31.3828 67.7706 31.3828 67.9084C31.3828 67.9544 31.3828 68.0003 31.4288 68.0003H31.4747C31.6585 68.0003 31.8882 67.9544 32.1639 67.9084C32.4856 67.8625 32.7613 67.8165 32.991 67.8165C33.2207 67.8165 33.4964 67.7706 33.8181 67.7706C34.0938 67.7706 34.3235 67.7246 34.5073 67.7246C34.5532 67.7246 34.5533 67.7246 34.5992 67.6787C34.5992 67.6327 34.6451 67.6327 34.6451 67.5868C34.6451 67.5408 34.6451 67.4949 34.5992 67.4949C34.5533 67.4949 34.5532 67.4489 34.5073 67.4489C34.1397 67.4949 33.864 67.4489 33.6343 67.2651C33.4045 67.1273 33.3126 66.8976 33.2667 66.6219C33.2667 66.4381 33.2667 66.2083 33.3586 65.9326L33.7262 64.7839L36.8047 64.5082L37.8156 66.1164C37.9994 66.4381 38.1372 66.6678 38.1372 66.8057C38.1372 66.8976 38.1372 66.9895 38.0453 67.0354C37.9534 67.0814 37.8156 67.1273 37.5858 67.1273C37.5399 67.1273 37.4939 67.1732 37.4939 67.2651C37.4939 67.357 37.5858 67.403 37.5858 67.403C37.7696 67.403 37.9994 67.357 38.2751 67.3111C38.5508 67.2651 38.8264 67.2192 39.0562 67.2192C39.194 67.2192 39.4697 67.1733 39.8833 67.1733C40.2509 67.1733 40.5265 67.1273 40.6644 67.1273C40.7103 67.1273 40.7563 67.0814 40.7563 66.9895C40.8022 66.8976 40.7563 66.8976 40.7103 66.8976ZM36.529 64.0947L33.91 64.3704L34.8749 61.5216L36.529 64.0947Z" fill="#0C3261"/>
<path d="M48.0152 63.4506C47.9693 63.4046 47.9233 63.4046 47.8774 63.4046H47.8315C47.6477 63.5884 47.5098 63.6803 47.4179 63.7263C47.326 63.7722 47.2341 63.7263 47.1422 63.6803C47.0503 63.5884 46.9584 63.4046 46.8665 63.1749L44.1096 56.0069C44.1096 55.961 44.0637 55.915 43.9718 55.915C43.8799 55.915 43.8339 55.915 43.788 55.915L43.742 55.961L42.3176 57.4773C42.2717 57.5232 42.2717 57.5692 42.3636 57.6151C42.4095 57.6611 42.4555 57.6611 42.5474 57.6611C42.6852 57.5232 42.8231 57.3854 42.915 57.3854C43.0069 57.3394 43.0988 57.3854 43.1907 57.4313C43.2826 57.5232 43.3745 57.707 43.4664 57.9827L44.3853 60.3261C44.0637 60.372 43.742 60.418 43.4664 60.5558C43.0528 60.7396 42.6393 60.9694 42.2717 61.337C41.9041 61.7045 41.6744 62.1181 41.5365 62.6235C41.3987 63.1289 41.4446 63.6803 41.6744 64.3236C41.8582 64.829 42.1339 65.1966 42.4095 65.5183C42.7312 65.7939 43.0528 66.0237 43.4204 66.0696C43.5583 66.1156 43.6961 66.1156 43.788 66.1156C44.0177 66.1156 44.2475 66.0696 44.4772 65.9777C44.9367 65.7939 45.3043 65.5183 45.58 65.1047C45.7178 64.9209 45.8097 64.7371 45.9476 64.5074C46.0395 64.6912 46.1314 64.829 46.2233 64.9209C46.4071 65.1047 46.5449 65.1966 46.6368 65.1507L46.6827 65.1047L48.0612 63.6344V63.5884C48.0612 63.4965 48.0612 63.4506 48.0152 63.4506ZM45.8097 64.0479C45.7178 64.1857 45.6719 64.3236 45.58 64.4155C45.3962 64.6452 45.1664 64.829 44.8908 64.9209C44.5232 65.0588 44.1556 65.0128 43.788 64.7371C43.4204 64.4614 43.0988 64.002 42.8231 63.3127C42.5474 62.6695 42.5014 62.1181 42.5933 61.7505C42.6852 61.3829 42.9609 61.1072 43.3745 60.9694C43.5583 60.8775 43.742 60.8775 43.9258 60.8775C44.0177 60.8775 44.1556 60.8775 44.2475 60.9234C44.3853 60.9694 44.5232 61.0153 44.661 61.1072L45.8097 64.0479Z" fill="#0C3261"/>
<path d="M51.2319 57.9833C51.14 57.5697 51.14 57.2481 51.1859 56.9724C51.2319 56.7426 51.3697 56.5129 51.5535 56.421L51.5994 56.3751C51.5994 56.3291 51.5994 56.3291 51.5535 56.2832C51.5075 56.1913 51.4616 56.1913 51.4157 56.2372C51.2319 56.3751 51.094 56.467 51.0021 56.5129L50.5886 56.7886L49.9453 57.2021C49.8075 57.2481 49.6696 57.3859 49.4858 57.4778L49.4399 57.5238C49.4399 57.5697 49.4399 57.5697 49.4858 57.6157C49.4858 57.6157 49.5318 57.6616 49.5777 57.7076H49.6237C49.8075 57.5697 50.0372 57.5238 50.175 57.5238C50.3588 57.5238 50.4967 57.6157 50.5886 57.7995C50.6345 57.8914 50.7264 58.0292 50.7724 58.213L51.1859 60.2807L48.6128 58.8563C48.5209 58.8103 48.475 58.7644 48.475 58.7184C48.429 58.6725 48.429 58.5806 48.5209 58.4887C48.6128 58.3968 48.7506 58.2589 48.9344 58.1211L48.9804 58.0751C48.9804 58.0292 48.9804 58.0292 48.9344 57.9833C48.8885 57.9373 48.8885 57.9373 48.8425 57.8914H48.7966C48.5668 58.0292 48.429 58.167 48.2912 58.213L47.4641 58.7644L46.7289 59.2239C46.637 59.2698 46.4992 59.3617 46.4073 59.4077L46.3613 59.4536C46.3613 59.4995 46.3613 59.4995 46.4073 59.5455C46.4532 59.5914 46.4532 59.5914 46.4992 59.6374H46.5451C46.683 59.5455 46.8668 59.4996 47.0046 59.4996C47.1884 59.4996 47.4181 59.6374 47.7857 59.8671L51.5994 62.0267C51.6454 62.0267 51.6454 62.0267 51.6913 62.0267C51.7373 62.0267 51.7832 62.0267 51.8292 61.9808C51.967 61.8889 51.967 61.8429 51.9211 61.797L51.2319 57.9833Z" fill="#0C3261"/>
<path d="M57.9404 55.6863C57.8944 55.6863 57.8485 55.6863 57.8025 55.6863V55.7322C57.7106 56.0079 57.6187 56.2377 57.5269 56.3755C57.435 56.5134 57.3431 56.6972 57.1593 56.835C56.6998 57.2945 56.1943 57.4783 55.6889 57.3864C55.1375 57.3404 54.6321 57.0188 54.1267 56.5134C54.0807 56.4674 54.0348 56.3755 53.9429 56.3296L55.5511 54.7673L56.1484 54.17C56.2403 54.0781 56.1944 53.9403 55.9646 53.7105C55.643 53.3889 55.2754 53.2051 54.9078 53.2051C54.8618 53.2051 54.8618 53.2051 54.8159 53.2051C54.4483 53.251 54.0348 53.4348 53.6672 53.8024C53.2537 54.2159 52.978 54.6295 52.8401 55.1349C52.7023 55.6403 52.6563 56.0998 52.7942 56.6053C52.932 57.0647 53.1618 57.5242 53.4834 57.8918C53.805 58.2135 54.1726 58.4432 54.5862 58.581C54.8159 58.6729 55.0456 58.6729 55.2754 58.6729C55.4592 58.6729 55.6889 58.627 55.8727 58.581C56.3322 58.4891 56.7457 58.2135 57.1593 57.8459C57.435 57.5702 57.6647 57.2485 57.8025 56.9269C57.9404 56.6053 58.0323 56.1917 58.0323 55.7322C58.0323 55.7782 57.9863 55.6863 57.9404 55.6863ZM54.9537 54.8133L53.7131 56.0539C53.5293 55.8241 53.4374 55.5484 53.3455 55.3187C53.2537 54.9511 53.2996 54.6295 53.5293 54.4457C53.6672 54.3078 53.805 54.2619 53.9429 54.2619C54.0348 54.2619 54.1267 54.2619 54.2186 54.3078C54.4483 54.3997 54.6781 54.5835 54.9537 54.8133Z" fill="#0C3261"/>
<path d="M63.1328 49.6664C63.0409 49.6205 62.9949 49.6664 62.9949 49.6664C62.8571 49.8502 62.7193 49.988 62.5814 49.988C62.5814 49.988 62.5814 49.988 62.5355 49.988C62.3976 49.988 62.1679 49.8961 61.9381 49.7123L59.8705 48.3339C59.4569 48.0582 59.0434 47.9663 58.6298 48.0123C58.2163 48.0582 57.8947 48.2879 57.619 48.7015C57.3892 49.0691 57.2514 49.4826 57.2514 49.9421C57.2514 50.2178 57.2973 50.5394 57.3433 50.8151C57.1595 50.7232 56.9757 50.6313 56.7919 50.5854C56.5162 50.5394 56.3784 50.5394 56.2865 50.6773C56.2865 50.6773 56.2865 50.6773 56.2405 50.7692L55.9648 52.7449C55.9648 52.7909 55.9648 52.8368 56.0567 52.8368C56.1027 52.8368 56.1946 52.8368 56.1946 52.7909V52.7449C56.2405 52.4693 56.2865 52.2855 56.3784 52.1476C56.4243 52.0557 56.5162 52.0098 56.6541 52.0098C56.7919 52.0098 56.9757 52.1017 57.1595 52.2395L59.1812 53.572C59.4569 53.7558 59.5948 53.9396 59.6407 54.0315C59.6867 54.1693 59.6407 54.3531 59.5029 54.5369V54.5829C59.5029 54.6288 59.5488 54.6288 59.5948 54.6748C59.6407 54.6748 59.6407 54.7207 59.6867 54.7207C59.7326 54.7207 59.7326 54.7207 59.7786 54.6748C59.9164 54.491 60.0083 54.3531 60.0542 54.2153L60.4678 53.572L60.9273 52.9287C61.0192 52.8368 61.1111 52.699 61.2489 52.5152C61.2489 52.5152 61.2949 52.4233 61.203 52.3774C61.157 52.3314 61.1111 52.3314 61.1111 52.3314C61.1111 52.3314 61.0651 52.3314 61.0651 52.3774C60.9273 52.5612 60.7894 52.699 60.6516 52.699C60.6516 52.699 60.6516 52.699 60.6056 52.699C60.4678 52.699 60.238 52.6071 60.0083 52.4233L57.7568 50.907C57.7568 50.7692 57.7568 50.6313 57.7568 50.4475C57.8028 50.1718 57.8947 49.8961 58.0325 49.7123C58.2163 49.4367 58.4461 49.2988 58.7217 49.2529H58.7677C59.0434 49.2529 59.3191 49.3907 59.6867 49.6205L61.203 50.6313C61.4786 50.8151 61.6165 50.9989 61.7084 51.1367C61.7543 51.2746 61.7084 51.4584 61.5705 51.6422C61.5705 51.6422 61.5246 51.7341 61.6165 51.78C61.6624 51.826 61.7084 51.826 61.7084 51.826C61.7084 51.826 61.7543 51.826 61.7543 51.78C61.8922 51.5962 61.9841 51.4124 62.03 51.3205L62.4436 50.6773L62.903 50.034C62.9949 49.9421 63.0868 49.8042 63.2247 49.6205C63.2247 49.8042 63.2247 49.7583 63.1328 49.6664Z" fill="#0C3261"/>
<path d="M65.522 42.0846C65.4761 42.0387 65.4301 42.0387 65.4301 42.0387C65.3382 42.0387 65.2923 42.0846 65.2923 42.1306V42.1765C65.2923 42.4063 65.2923 42.5901 65.2463 42.682C65.2004 42.7739 65.1544 42.8198 65.0166 42.8198C64.8787 42.8198 64.6949 42.7739 64.4193 42.682L61.2029 41.4873C61.1569 41.4873 61.111 41.4873 61.0191 41.5333C60.9731 41.5792 60.9272 41.6252 60.8812 41.6711C60.8812 41.717 60.8812 41.717 60.8812 41.763L61.0191 43.6469C61.0191 43.6928 61.0191 43.6928 61.065 43.6928C61.065 43.6928 61.111 43.7388 61.1569 43.7388C61.2488 43.7388 61.2948 43.6928 61.2948 43.6469C61.2948 43.509 61.2948 43.4171 61.3407 43.3252C61.4326 43.0955 61.7083 43.0955 62.2137 43.2793L64.2355 44.0604C64.2814 44.1983 64.3274 44.2902 64.3274 44.428C64.3733 44.7037 64.3274 44.9334 64.2814 45.1632C64.1436 45.4848 63.9598 45.6686 63.6841 45.7605C63.4084 45.8524 63.0868 45.8065 62.6273 45.6227L59.9623 44.6118C59.9163 44.6118 59.8704 44.6118 59.7785 44.6577C59.7325 44.7037 59.6866 44.7496 59.6406 44.7956V44.8415L59.7785 46.7254C59.7785 46.7714 59.7785 46.7714 59.7785 46.7714C59.7785 46.7714 59.8244 46.8173 59.8704 46.8173C59.9623 46.8173 60.0082 46.7714 60.0082 46.7254C60.0082 46.5876 60.0082 46.4957 60.0542 46.4038C60.1001 46.3119 60.192 46.2659 60.3299 46.22C60.4677 46.22 60.6974 46.2659 60.9272 46.3578L62.7192 47.0471C62.9489 47.139 63.1786 47.1849 63.4084 47.1849C63.5922 47.1849 63.776 47.139 63.9598 47.093C64.3274 46.9552 64.649 46.6335 64.7868 46.174C64.9247 45.7605 64.9706 45.347 64.8328 44.9334C64.7868 44.7037 64.649 44.428 64.5571 44.1523C64.7868 44.1983 64.9706 44.2442 65.1544 44.2902C65.4301 44.2902 65.568 44.2902 65.6139 44.1523C65.6139 44.1064 65.6139 44.1064 65.6139 44.0604L65.4301 42.0846C65.568 42.1306 65.568 42.1306 65.522 42.0846Z" fill="#0C3261"/>
<path d="M66.3039 37.5817C66.0742 37.3979 65.7985 37.2601 65.5228 37.2141C65.2471 37.1682 64.9714 37.1682 64.7876 37.306C64.5579 37.3979 64.3741 37.5358 64.2362 37.6736C64.0984 37.8114 63.9146 38.0412 63.6849 38.3169C63.4551 38.5926 63.2254 38.8223 62.9956 38.9602C62.8118 39.098 62.5821 39.1439 62.3524 39.098C62.2145 39.0521 62.0767 39.0061 62.0307 38.9142C61.9848 38.8223 61.9388 38.6845 61.9848 38.5466C62.0307 38.3169 62.1226 38.1331 62.3064 37.9493C62.4902 37.7655 62.674 37.6277 62.8578 37.5358C63.0416 37.4439 63.2254 37.3979 63.3632 37.4439H63.4092C63.4551 37.4439 63.4551 37.3979 63.4551 37.352C63.4551 37.306 63.4551 37.2601 63.4551 37.2601L63.4092 37.2141L62.7659 37.0763C62.6281 37.0303 62.4902 37.0303 62.2605 36.9844C62.2145 36.9844 62.1226 36.9844 62.0307 37.0763C61.9388 37.2601 61.8469 37.4439 61.801 37.5817C61.755 37.7195 61.7091 37.9033 61.6631 38.0871C61.5712 38.5926 61.6172 39.098 61.801 39.4656C61.9848 39.8791 62.3064 40.1548 62.8578 40.2008C63.1335 40.2467 63.4092 40.2467 63.593 40.1548C63.8227 40.0629 63.9606 39.971 64.0984 39.8332C64.2362 39.6953 64.42 39.5115 64.6038 39.2358C64.8336 38.9142 65.1093 38.6845 65.2931 38.5466C65.4769 38.4088 65.7525 38.3628 66.0282 38.4088C66.212 38.4547 66.3499 38.5007 66.4418 38.6385C66.5337 38.7304 66.5337 38.8683 66.5337 39.0521C66.4877 39.3737 66.3039 39.6494 65.9363 39.8791C65.6147 40.1548 65.2012 40.2927 64.7417 40.3386C64.6957 40.3386 64.6957 40.4305 64.6498 40.4765C64.6498 40.5683 64.6957 40.6143 64.7417 40.6143L65.9823 40.7981H66.0282C66.0742 40.7981 66.1201 40.7981 66.212 40.7521C66.5337 40.3846 66.7175 39.9251 66.8094 39.4656C66.9013 39.052 66.8553 38.6845 66.7634 38.3628C66.7175 38.0412 66.5337 37.7655 66.3039 37.5817Z" fill="#0C3261"/>
<path d="M67.2233 33.3096C67.0855 32.988 66.8557 32.7582 66.58 32.6204C66.3043 32.4825 66.0287 32.3906 65.753 32.3906H65.707C65.4313 32.3906 65.2016 32.4366 65.0178 32.5744C64.834 32.7123 64.6502 32.8501 64.5583 32.988C64.4664 33.1258 64.2826 33.4015 64.0988 33.7231C63.915 34.0448 63.6853 34.2745 63.5015 34.4583C63.3177 34.5961 63.1339 34.688 62.9042 34.688H62.8582C62.5366 34.688 62.3987 34.5042 62.4447 34.1826C62.4447 33.9529 62.5366 33.7691 62.6744 33.5393C62.8123 33.3096 62.9961 33.1717 63.1799 33.0339C63.3637 32.8961 63.5475 32.8501 63.6853 32.8501C63.7312 32.8501 63.7772 32.8501 63.7772 32.7123C63.7772 32.6663 63.7772 32.6204 63.7312 32.6204L63.6853 32.5744L63.042 32.5285C62.9042 32.5285 62.7663 32.5285 62.5366 32.4825C62.4447 32.4825 62.3987 32.5285 62.3528 32.6204C62.2609 32.8042 62.2149 32.988 62.169 33.1717C62.123 33.3555 62.123 33.4934 62.123 33.7231C62.123 34.2745 62.2149 34.734 62.4447 35.1016C62.6744 35.4692 63.042 35.6989 63.5934 35.6989H63.6393C63.915 35.6989 64.1448 35.653 64.3286 35.5151C64.5124 35.3773 64.6962 35.2394 64.7881 35.1016C64.88 34.9637 65.0178 34.734 65.2016 34.4124C65.3854 34.0907 65.6151 33.815 65.7989 33.6312C65.9827 33.4934 66.2125 33.4015 66.4881 33.4015H66.5341C66.7179 33.4015 66.9017 33.4474 66.9936 33.5393C67.0855 33.6312 67.1314 33.7691 67.1314 33.9529C67.1314 34.2745 66.9476 34.5502 66.6719 34.8718C66.3503 35.1935 65.9827 35.3773 65.5692 35.5151C65.5232 35.5151 65.5232 35.5611 65.5232 35.653C65.5232 35.7449 65.5692 35.7908 65.6151 35.7908H66.9017C66.9476 35.7908 67.0395 35.7449 67.0855 35.6989C67.3152 35.2854 67.4531 34.8259 67.499 34.3664C67.4071 33.9529 67.3612 33.5853 67.2233 33.3096Z" fill="#0C3261"/>
<path d="M54.6322 46.7261C54.6322 46.9099 54.5863 47.0477 54.4485 47.0477C53.8052 47.0477 52.7943 47.0018 51.4618 46.9558C50.1293 46.9099 49.1184 46.8639 48.5211 46.8639C47.7859 46.8639 46.821 46.9099 45.6723 46.9558C44.5695 47.0018 43.7425 47.0477 43.1911 47.0477C43.0532 47.0477 43.0073 46.9558 43.0073 46.7261C43.0073 46.5423 43.0532 46.4044 43.1911 46.4044C44.4776 46.4044 45.3966 46.2666 45.948 46.0368C46.4994 45.8071 46.7751 45.3936 46.7751 44.7503C46.7751 44.2449 46.5913 43.5556 46.1777 42.6367L41.6288 33.0794L41.1694 32.0685L35.288 19.6165L30.9688 29.8171C30.6472 29.5873 30.2796 29.4035 30.0039 29.2197L36.0231 14.9757C36.0691 14.8838 36.2069 14.8379 36.3907 14.8379C36.5745 14.8379 36.6664 14.8838 36.7124 14.9757L48.659 40.1555C49.8077 42.6367 50.7726 44.3368 51.5997 45.2098C52.4267 46.0828 53.3916 46.4963 54.4944 46.4963C54.5863 46.4044 54.6322 46.5423 54.6322 46.7261Z" fill="#0C3261"/>
<path d="M30.97 29.8161L30.0051 32.1135L29.5915 33.1244L28.9942 34.5028C28.6726 34.319 28.3509 34.0893 28.0293 33.9055L30.0051 29.2188C30.2808 29.4025 30.6024 29.5863 30.97 29.8161Z" fill="#0C3261"/>
<path d="M41.2616 38.0873C40.2048 36.4332 38.9182 35.0088 37.4478 33.952C35.9316 32.8492 33.8639 31.5167 31.1989 29.9085C31.1529 29.8626 31.061 29.8166 31.0151 29.8166C30.6934 29.5869 30.3258 29.4031 30.0502 29.2193C28.0744 27.9787 26.5121 26.9678 25.3175 26.0948C23.939 25.0839 22.7444 23.8433 21.7794 22.327C20.8145 20.8107 20.3091 19.0647 20.3091 17.043C20.3091 14.5618 20.9983 12.4941 22.4227 10.794C23.8471 9.13984 26.0067 8.26682 28.9014 8.26682C32.3016 8.26682 34.9207 9.41553 36.7127 11.713C38.5047 14.0104 39.6074 16.4916 39.975 19.2025C40.021 19.4323 40.2048 19.5242 40.4804 19.5242C40.7561 19.5242 40.894 19.3863 40.894 19.1566L40.3426 10.3345C40.3426 9.73717 39.975 9.27769 39.1939 9.002C36.2072 7.76139 33.1746 7.16406 30.1421 7.16406C27.6608 7.16406 25.3175 7.62355 23.1579 8.49657C20.9524 9.41553 19.2063 10.748 17.8279 12.586C16.4494 14.4239 15.7602 16.6294 15.7602 19.2025C15.7602 21.4081 16.2656 23.3379 17.2306 24.992C18.1955 26.6462 19.3901 28.0246 20.8145 29.0814C22.2389 30.1842 24.1688 31.4708 26.65 32.9411C27.1554 33.2168 27.6149 33.5384 28.0744 33.8141C28.396 34.0439 28.7636 34.2277 29.0393 34.4115C30.4637 35.3304 31.6583 36.1115 32.6233 36.8467C34.0936 37.9495 35.3342 39.3739 36.391 41.074C37.4019 42.7741 37.9533 44.7958 37.9533 47.0932C37.9533 50.1718 37.0803 52.4232 35.2883 53.8476C33.4963 55.272 31.3367 55.9613 28.7636 55.9613C25.0418 55.9613 22.0551 54.6287 19.8037 51.9178C17.5522 49.2068 15.9899 46.0364 15.2548 42.3605C15.2088 42.1767 15.025 42.0848 14.7493 42.1308C14.4737 42.1767 14.3358 42.3146 14.3818 42.4984L15.3926 53.0206C15.4386 53.4341 15.5305 53.7557 15.5764 53.9395C15.6683 54.1233 15.8062 54.3071 16.0818 54.4909C19.3901 56.2829 23.0201 57.2019 26.9716 57.2019C30.3258 57.2019 33.2206 56.6045 35.6099 55.4558C37.9992 54.3071 39.8372 52.6989 41.0778 50.6772C42.3184 48.6555 42.9157 46.404 42.9157 43.9228C42.8238 41.7632 42.3184 39.7415 41.2616 38.0873Z" fill="#14AE5C"/>
<path d="M24.9492 1.97211C42.1799 -2.34704 59.6862 8.1292 64.0054 25.4058" stroke="#0C3261" stroke-miterlimit="10"/>
<path d="M25.0414 64.4613C7.76484 60.1881 -2.75734 42.7277 1.51586 25.4971" stroke="#0C3261" stroke-miterlimit="10"/>
<path d="M65.3838 25.4057C65.3838 26.1409 64.7864 26.7382 64.0513 26.7382C63.3161 26.7382 62.7188 26.1409 62.7188 25.4057C62.7188 24.6706 63.3161 24.0732 64.0513 24.0732C64.7864 24.0732 65.3838 24.6706 65.3838 25.4057Z" fill="#14AE5C"/>
<path d="M2.66501 25.268C2.66501 26.0032 2.06768 26.6006 1.3325 26.6006C0.597329 26.6465 0 26.0492 0 25.268C0 24.5329 0.597329 23.9355 1.3325 23.9355C2.06768 23.9355 2.66501 24.5329 2.66501 25.268Z" fill="#14AE5C"/>
</svg>
