<svg width="110" height="110" viewBox="0 0 110 110" fill="none" xmlns="http://www.w3.org/2000/svg">
<g clip-path="url(#clip0_0_3781)">
<path d="M108.355 40.2544V98.121C108.355 101.089 107.091 103.762 105.074 105.633C103.245 107.329 100.797 108.366 98.1069 108.366H11.8797C9.18987 108.366 6.74195 107.329 4.91493 105.635C2.8982 103.761 1.63428 101.089 1.63428 98.121V40.2544H108.355Z" fill="#FEC970"/>
<path d="M55.4307 108.366H11.8797C6.2216 108.366 1.63428 103.779 1.63428 98.1213V39.9106L13.0145 49.7311L13.7243 50.3213V79.5255C13.7243 89.4612 17.7333 98.8781 26.8742 102.776C35.3085 106.373 50.3123 108.366 55.4307 108.366Z" fill="#FBA028"/>
<path d="M108.354 40.2543L67.3335 6.09944C60.1843 0.145926 49.8036 0.145926 42.6544 6.09922L1.63428 40.2543L13.7241 50.321L42.654 74.4092C49.8042 80.3638 60.1848 80.3638 67.3324 74.4092L96.2648 50.321L108.355 40.2543" fill="#FBA028"/>
<path d="M96.2646 18.9387V50.3208L67.3322 74.4096C60.1843 80.364 49.804 80.364 42.6538 74.4096L13.7241 50.321V18.9389C13.7241 12.3961 19.0297 7.09033 25.5749 7.09033H84.4167C90.9608 7.09033 96.2648 12.3961 96.2648 18.9389L96.2646 18.9387Z" fill="#BFDADD"/>
<path d="M96.2646 18.939V43.1342L67.3322 67.2223C60.1843 73.1767 49.804 73.1767 42.6538 67.2223L13.7241 43.1342V18.939C13.7241 12.3964 19.0297 7.09082 25.5749 7.09082H84.4167C90.9608 7.09082 96.2648 12.3964 96.2648 18.939H96.2646Z" fill="#E4F5F7"/>
<path d="M98.4067 101.716C98.6464 101.717 98.8834 101.664 99.1005 101.563C99.3177 101.461 99.5097 101.313 99.6628 101.128C99.8001 100.963 99.9036 100.773 99.9673 100.568C100.031 100.363 100.054 100.148 100.034 99.9345C100.015 99.7209 99.9535 99.5132 99.8537 99.3233C99.754 99.1335 99.6178 98.9651 99.4529 98.8278L73.4067 77.142C73.2419 77.0048 73.0516 76.9013 72.8468 76.8375C72.642 76.7738 72.4267 76.751 72.213 76.7705C71.9994 76.79 71.7918 76.8514 71.6019 76.9511C71.412 77.0509 71.2436 77.1871 71.1064 77.3519C70.8291 77.6849 70.6954 78.1144 70.7347 78.5459C70.774 78.9775 70.9831 79.3757 71.316 79.6531L97.3625 101.339C97.6555 101.583 98.0251 101.717 98.4067 101.716ZM36.582 77.1422L10.5359 98.8278C10.3711 98.9651 10.2349 99.1335 10.1351 99.3233C10.0354 99.5132 9.974 99.7209 9.95451 99.9345C9.93502 100.148 9.9578 100.363 10.0215 100.568C10.0853 100.773 10.1887 100.963 10.326 101.128C10.4791 101.313 10.6711 101.461 10.8883 101.563C11.1056 101.665 11.3426 101.717 11.5824 101.716C11.964 101.717 12.3336 101.583 12.6266 101.339L38.6728 79.6522C38.8377 79.515 38.9738 79.3466 39.0736 79.1567C39.1734 78.9668 39.2347 78.7591 39.2542 78.5455C39.2737 78.3319 39.2509 78.1165 39.1871 77.9117C39.1233 77.7069 39.0198 77.5167 38.8825 77.3519C38.7453 77.1871 38.5769 77.0509 38.387 76.9511C38.1971 76.8513 37.9894 76.7899 37.7758 76.7704C37.5622 76.7509 37.3468 76.7737 37.142 76.8375C36.9372 76.9012 36.747 77.0047 36.5822 77.142L36.582 77.1422Z" fill="black"/>
<path d="M109.988 40.2543C109.988 40.0147 109.935 39.778 109.833 39.5611C109.732 39.3441 109.584 39.1521 109.4 38.9988L97.8979 29.4224V18.9387C97.8979 11.5049 91.8503 5.45728 84.4165 5.45728H69.1132L68.3781 4.84476C60.6235 -1.61492 49.3651 -1.61492 41.6082 4.84476L40.873 5.45728H37.5707C37.3562 5.45722 37.1438 5.49943 36.9456 5.58149C36.7474 5.66354 36.5673 5.78384 36.4157 5.93552C36.264 6.08719 36.1437 6.26726 36.0616 6.46543C35.9796 6.66361 35.9374 6.87602 35.9374 7.09051C35.9374 7.99285 36.6685 8.72439 37.5707 8.72439H84.4165C90.0486 8.72439 94.6308 13.3066 94.6308 18.9387V49.5555L66.2866 73.1547C59.7439 78.6055 50.2447 78.6046 43.6986 73.1538L15.3578 49.5555V18.9389C15.3578 13.3068 19.9409 8.72439 25.5747 8.72439H31.0364C31.2525 8.72687 31.467 8.68645 31.6673 8.60547C31.8677 8.52448 32.05 8.40455 32.2037 8.25262C32.3574 8.10068 32.4794 7.91976 32.5627 7.72034C32.6459 7.52091 32.6888 7.30695 32.6888 7.09084C32.6888 6.87472 32.6459 6.66076 32.5627 6.46133C32.4794 6.26191 32.3574 6.08099 32.2037 5.92906C32.05 5.77712 31.8677 5.65719 31.6673 5.5762C31.467 5.49522 31.2525 5.4548 31.0364 5.45728H25.5747C18.14 5.45728 12.0907 11.5049 12.0907 18.9387V29.4224L0.589099 38.9996C0.406692 39.1515 0.259627 39.3413 0.158175 39.5558C0.0567221 39.7704 0.00332733 40.0045 0.00171874 40.2418C0.00171874 40.2468 0 40.2502 0 40.2552V98.1209C0 104.671 5.32918 109.999 11.8793 109.999H85.0501C85.2646 109.999 85.477 109.957 85.6752 109.875C85.8733 109.793 86.0534 109.673 86.2051 109.521C86.3568 109.369 86.4771 109.189 86.5591 108.991C86.6412 108.793 86.6834 108.581 86.6833 108.366C86.6833 108.152 86.6411 107.939 86.5591 107.741C86.477 107.543 86.3567 107.363 86.205 107.211C86.0533 107.06 85.8733 106.939 85.6751 106.857C85.4769 106.775 85.2646 106.733 85.0501 106.733H11.8793C7.12999 106.733 3.26712 102.869 3.26712 98.1209V43.7397L12.6841 51.5815C12.685 51.5815 12.685 51.5815 12.685 51.5823L41.6082 75.6649C45.488 78.8951 50.2397 80.5096 54.994 80.5088C59.7463 80.5088 64.5008 78.8942 68.3772 75.6649L97.297 51.5864C97.3019 51.5821 97.3062 51.5789 97.3105 51.5748L106.72 43.7406V98.1201C106.72 102.869 102.857 106.732 98.1076 106.732H91.5843C90.682 106.732 89.9513 107.463 89.9513 108.366C89.9513 109.268 90.6822 109.999 91.5843 109.999H98.1076C104.658 109.999 109.987 104.67 109.987 98.1201V40.2678C109.987 40.2635 109.988 40.2593 109.988 40.2543ZM63.5043 5.45728H46.4834C51.7731 2.541 58.216 2.541 63.5048 5.45728H63.5043ZM12.0909 33.6739V46.8356L4.18707 40.2552L12.0909 33.6739ZM97.8981 46.8347V33.6739L105.802 40.2545L97.8981 46.8347Z" fill="black"/>
<path d="M78.9516 45.2515H31.0372C30.8211 45.249 30.6066 45.2894 30.4063 45.3704C30.2059 45.4514 30.0236 45.5713 29.8699 45.7233C29.7162 45.8752 29.5942 46.0561 29.5109 46.2555C29.4276 46.455 29.3848 46.6689 29.3848 46.885C29.3848 47.1012 29.4276 47.3151 29.5109 47.5146C29.5942 47.714 29.7162 47.8949 29.8699 48.0468C30.0236 48.1988 30.2059 48.3187 30.4063 48.3997C30.6066 48.4807 30.8211 48.5211 31.0372 48.5186H78.9516C79.1677 48.5211 79.3822 48.4807 79.5825 48.3997C79.7829 48.3187 79.9652 48.1988 80.1189 48.0468C80.2726 47.8949 80.3946 47.714 80.4779 47.5146C80.5612 47.3151 80.604 47.1012 80.604 46.885C80.604 46.6689 80.5612 46.455 80.4779 46.2555C80.3946 46.0561 80.2726 45.8752 80.1189 45.7233C79.9652 45.5713 79.7829 45.4514 79.5825 45.3704C79.3822 45.2894 79.1677 45.249 78.9516 45.2515ZM78.9516 54.7381H31.0372C30.6039 54.7381 30.1884 54.9102 29.8821 55.2166C29.5757 55.5229 29.4036 55.9384 29.4036 56.3717C29.4036 56.8049 29.5757 57.2204 29.8821 57.5268C30.1884 57.8332 30.6039 58.0053 31.0372 58.0053H78.9516C79.1677 58.0077 79.3822 57.9673 79.5825 57.8863C79.7829 57.8053 79.9652 57.6854 80.1189 57.5335C80.2726 57.3815 80.3946 57.2006 80.4779 57.0012C80.5612 56.8018 80.604 56.5878 80.604 56.3717C80.604 56.1556 80.5612 55.9416 80.4779 55.7422C80.3946 55.5428 80.2726 55.3618 80.1189 55.2099C79.9652 55.058 79.7829 54.938 79.5825 54.8571C79.3822 54.7761 79.1677 54.7357 78.9516 54.7381ZM78.9516 26.2773H31.0372C30.6039 26.2775 30.1884 26.4496 29.882 26.756C29.5756 27.0624 29.4034 27.4779 29.4033 27.9112C29.4035 28.3445 29.5758 28.7599 29.8822 29.0662C30.1886 29.3724 30.6041 29.5445 31.0374 29.5445H78.9518C79.854 29.5445 80.5857 28.8125 80.5857 27.9112C80.5857 27.0089 79.854 26.2773 78.9516 26.2773ZM78.9516 35.7648H66.9732C66.7588 35.7648 66.5464 35.807 66.3483 35.8891C66.1501 35.9712 65.9701 36.0914 65.8184 36.2431C65.6668 36.3947 65.5465 36.5748 65.4645 36.7729C65.3824 36.971 65.3402 37.1834 65.3402 37.3979C65.3401 37.6124 65.3823 37.8247 65.4644 38.0229C65.5464 38.2211 65.6667 38.4011 65.8184 38.5528C65.97 38.7045 66.1501 38.8248 66.3482 38.9068C66.5464 38.9889 66.7588 39.0311 66.9732 39.0311H78.9516C79.1661 39.0312 79.3785 38.989 79.5767 38.9069C79.7749 38.8248 79.955 38.7045 80.1066 38.5529C80.2583 38.4012 80.3786 38.2211 80.4607 38.023C80.5427 37.8248 80.5849 37.6124 80.5849 37.3979C80.5849 37.1834 80.5427 36.971 80.4606 36.7729C80.3785 36.5747 80.2582 36.3947 80.1066 36.243C79.9549 36.0914 79.7748 35.9711 79.5767 35.889C79.3785 35.807 79.1661 35.7648 78.9516 35.7648ZM31.0374 39.0311H61.5284C61.7429 39.0311 61.9553 38.9889 62.1535 38.9068C62.3516 38.8248 62.5317 38.7045 62.6833 38.5528C62.835 38.4011 62.9552 38.2211 63.0373 38.0229C63.1193 37.8247 63.1615 37.6124 63.1615 37.3979C63.1615 37.1834 63.1193 36.971 63.0372 36.7729C62.9552 36.5748 62.8349 36.3947 62.6832 36.2431C62.5316 36.0914 62.3515 35.9712 62.1534 35.8891C61.9553 35.807 61.7429 35.7648 61.5284 35.7648H31.0374C30.6041 35.7647 30.1886 35.9367 29.8822 36.243C29.5757 36.5492 29.4035 36.9646 29.4033 37.3979C29.4033 38.3002 30.1353 39.0311 31.0374 39.0311Z" fill="black"/>
</g>
<defs>
<clipPath id="clip0_0_3781">
<rect width="110" height="110" fill="white"/>
</clipPath>
</defs>
</svg>
