<svg width="20" height="20" viewBox="0 0 20 20" fill="none" xmlns="http://www.w3.org/2000/svg">
<path d="M15.3913 14.025L15.7163 16.6583C15.7997 17.35 15.058 17.8333 14.4663 17.475L11.583 15.7583C11.383 15.6416 11.333 15.3916 11.4413 15.1916C11.858 14.425 12.083 13.5583 12.083 12.6916C12.083 9.64163 9.46633 7.15829 6.24967 7.15829C5.59133 7.15829 4.94967 7.25829 4.34967 7.45829C4.04133 7.55829 3.74133 7.27496 3.81633 6.95829C4.57467 3.92496 7.49133 1.66663 10.9747 1.66663C15.0413 1.66663 18.333 4.74163 18.333 8.53329C18.333 10.7833 17.1747 12.775 15.3913 14.025Z" fill="#14AE5C"/>
<path d="M10.8327 12.6917C10.8327 13.6833 10.466 14.6 9.84935 15.325C9.02435 16.325 7.71602 16.9667 6.24935 16.9667L4.07435 18.2583C3.70768 18.4833 3.24102 18.175 3.29102 17.75L3.49935 16.1083C2.38268 15.3333 1.66602 14.0917 1.66602 12.6917C1.66602 11.225 2.44935 9.93333 3.64935 9.16666C4.39102 8.68333 5.28268 8.40833 6.24935 8.40833C8.78268 8.40833 10.8327 10.325 10.8327 12.6917Z" fill="#14AE5C"/>
</svg>
