<svg width="28" height="28" viewBox="0 0 28 28" fill="none" xmlns="http://www.w3.org/2000/svg">
<path d="M25.6673 7.29171V13.2417C25.6673 14.7233 25.1773 15.9717 24.3023 16.835C23.439 17.71 22.1907 18.2 20.709 18.2V20.3117C20.709 21.105 19.8223 21.5834 19.169 21.14L18.0373 20.3934C18.1423 20.0317 18.189 19.635 18.189 19.215V14.4667C18.189 12.0867 16.6023 10.5 14.2223 10.5H6.30064C6.13731 10.5 5.98565 10.5117 5.83398 10.5234V7.29171C5.83398 4.31671 7.81732 2.33337 10.7923 2.33337H20.709C23.684 2.33337 25.6673 4.31671 25.6673 7.29171Z" stroke="#788BA3" stroke-width="1.5" stroke-miterlimit="10" stroke-linecap="round" stroke-linejoin="round"/>
<path d="M18.189 14.4667V19.215C18.189 19.635 18.1423 20.0316 18.0373 20.3933C17.6057 22.1083 16.1823 23.1817 14.2223 23.1817H11.049L7.52565 25.5267C7.00065 25.8883 6.30064 25.5033 6.30064 24.8733V23.1817C5.11064 23.1817 4.11899 22.785 3.43065 22.0967C2.73065 21.3967 2.33398 20.405 2.33398 19.215V14.4667C2.33398 12.25 3.71065 10.7217 5.83398 10.5234C5.98565 10.5117 6.13731 10.5 6.30064 10.5H14.2223C16.6023 10.5 18.189 12.0867 18.189 14.4667Z" stroke="#788BA3" stroke-width="1.5" stroke-miterlimit="10" stroke-linecap="round" stroke-linejoin="round"/>
</svg>
