<svg width="26" height="26" viewBox="0 0 26 26" fill="none" xmlns="http://www.w3.org/2000/svg">
<path d="M19.1859 3.02315C18.5359 2.80648 17.8534 2.70898 17.1709 2.70898C17.16 2.70898 17.1384 2.70898 17.1275 2.70898C15.6434 2.70898 14.1917 3.20732 13 4.11732C12.9134 4.05232 12.8159 3.99815 12.7292 3.94398C12.7075 3.93315 12.6859 3.92232 12.675 3.91148C12.6317 3.87898 12.5775 3.84648 12.5125 3.80315C12.415 3.72732 12.3067 3.65148 12.2092 3.59732L11.7975 3.41315C11.5809 3.29398 11.3534 3.20732 11.115 3.13148C11.0934 3.10982 11.0609 3.08815 11.0175 3.06648H10.9525C10.3134 2.84982 9.65252 2.73065 8.97002 2.70898H8.85085C8.54752 2.70898 8.24419 2.73065 7.94085 2.77398H7.81085C7.48585 2.81732 7.16085 2.89315 6.84669 3.00148C2.80585 4.32315 1.36502 8.71065 2.58919 12.5457C3.28252 14.5065 4.39835 16.2831 5.85002 17.7457C7.96252 19.7823 10.27 21.5807 12.7509 23.119L13.0325 23.2923L13.3034 23.1298C15.7734 21.5807 18.07 19.7823 20.1609 17.7565C21.6234 16.294 22.7392 14.5065 23.4217 12.5457C24.6242 8.71065 23.1834 4.32315 19.1859 3.02315ZM21.8834 12.0148C21.2875 13.7373 20.2909 15.3298 19.0234 16.5973C17.1817 18.3848 15.1667 19.9881 13.0217 21.3856C10.8659 19.999 8.82919 18.3848 6.98752 16.6081C5.70919 15.319 4.71252 13.7373 4.11669 12.0582C3.21752 9.21982 4.03002 5.63398 7.35585 4.53982C7.52919 4.47482 7.72419 4.43148 7.90835 4.39898H8.03835L8.15752 4.37732C8.38502 4.34482 8.61252 4.33398 8.84002 4.33398H8.90502C9.34919 4.34482 9.79335 4.42065 10.2159 4.53982L10.2375 4.56148L10.6167 4.68065C10.79 4.73482 10.9092 4.78898 11.0067 4.84315L11.0609 4.87565L11.1259 4.90815L11.44 5.04898C11.44 5.04898 11.4834 5.08148 11.505 5.09232L11.5484 5.12482L11.6025 5.15732L11.6892 5.21148C11.7759 5.27648 11.8625 5.33065 11.9275 5.36315L11.96 5.38482L12.025 5.42815L13.0109 6.16482L13.9859 5.41732C14.9067 4.71315 15.99 4.34482 17.1167 4.34482C17.6584 4.34482 18.2109 4.42065 18.6767 4.58315C21.9375 5.64482 22.75 9.23065 21.8834 12.0257V12.0148Z" fill="#788BA3"/>
</svg>
