<svg width="23" height="26" viewBox="0 0 23 26" fill="none" xmlns="http://www.w3.org/2000/svg">
<mask id="mask0_124_742" style="mask-type:luminance" maskUnits="userSpaceOnUse" x="0" y="0" width="23" height="21">
<path fill-rule="evenodd" clip-rule="evenodd" d="M0.5 0.166626H22.0797V20.406H0.5V0.166626Z" fill="white"/>
</mask>
<g mask="url(#mask0_124_742)">
<path fill-rule="evenodd" clip-rule="evenodd" d="M11.2882 1.91663C7.21068 1.91663 4.36868 5.11096 4.36868 7.97746C4.36868 10.403 3.69552 11.5241 3.10052 12.5135C2.62335 13.308 2.24652 13.9356 2.24652 15.2995C2.44135 17.4998 3.89385 18.656 11.2882 18.656C18.6417 18.656 20.1397 17.4485 20.3333 15.2236C20.3298 13.9356 19.953 13.308 19.4758 12.5135C18.8808 11.5241 18.2077 10.403 18.2077 7.97746C18.2077 5.11096 15.3657 1.91663 11.2882 1.91663ZM11.2882 20.406C5.83285 20.406 0.902516 20.021 0.500016 15.3741C0.496516 13.4515 1.08335 12.4738 1.60135 11.6128C2.12518 10.7401 2.61868 9.91763 2.61868 7.97746C2.61868 4.20563 6.10235 0.166626 11.2882 0.166626C16.474 0.166626 19.9577 4.20563 19.9577 7.97746C19.9577 9.91763 20.4512 10.7401 20.975 11.6128C21.493 12.4738 22.0798 13.4515 22.0798 15.2995C21.6727 20.021 16.7435 20.406 11.2882 20.406Z" fill="#788BA3"/>
</g>
<path fill-rule="evenodd" clip-rule="evenodd" d="M11.2312 25.25H11.2289C9.92103 25.2488 8.68319 24.6725 7.74403 23.626C7.42086 23.2678 7.45003 22.7136 7.80936 22.3916C8.16869 22.0673 8.72169 22.0965 9.04486 22.457C9.64919 23.1301 10.425 23.5 11.23 23.5H11.2312C12.0397 23.5 12.819 23.1301 13.4245 22.4558C13.7489 22.0976 14.3019 22.0685 14.66 22.3916C15.0194 22.7148 15.0485 23.269 14.7254 23.6271C13.7827 24.6736 12.5425 25.25 11.2312 25.25Z" fill="#788BA3"/>
</svg>
