<svg width="21" height="24" viewBox="0 0 21 24" fill="none" xmlns="http://www.w3.org/2000/svg">
<mask id="mask0_124_2407" style="mask-type:luminance" maskUnits="userSpaceOnUse" x="0" y="0" width="21" height="19">
<path fill-rule="evenodd" clip-rule="evenodd" d="M0.25 0.083374H20.2883V18.877H0.25V0.083374Z" fill="white"/>
</mask>
<g mask="url(#mask0_124_2407)">
<path fill-rule="evenodd" clip-rule="evenodd" d="M10.2676 1.70837C6.48135 1.70837 3.84235 4.67454 3.84235 7.33629C3.84235 9.58854 3.21726 10.6296 2.66476 11.5483C2.22168 12.286 1.87176 12.8689 1.87176 14.1353C2.05268 16.1785 3.40143 17.252 10.2676 17.252C17.0958 17.252 18.4868 16.1308 18.6667 14.0649C18.6634 12.8689 18.3135 12.286 17.8704 11.5483C17.3179 10.6296 16.6928 9.58854 16.6928 7.33629C16.6928 4.67454 14.0538 1.70837 10.2676 1.70837M10.2676 18.877C5.20193 18.877 0.623764 18.5195 0.250014 14.2046C0.246764 12.4193 0.791681 11.5115 1.27268 10.712C1.7591 9.90162 2.21735 9.13787 2.21735 7.33629C2.21735 3.83387 5.45218 0.083374 10.2676 0.083374C15.083 0.083374 18.3178 3.83387 18.3178 7.33629C18.3178 9.13787 18.7761 9.90162 19.2625 10.712C19.7435 11.5115 20.2884 12.4193 20.2884 14.1353C19.9103 18.5195 15.3333 18.877 10.2676 18.877" fill="#14AE5C"/>
</g>
<path fill-rule="evenodd" clip-rule="evenodd" d="M10.2146 23.375H10.2124C8.99803 23.3739 7.84861 22.8388 6.97653 21.867C6.67644 21.5344 6.70353 21.0199 7.03719 20.7209C7.37086 20.4197 7.88436 20.4468 8.18444 20.7815C8.74561 21.4066 9.46603 21.75 10.2135 21.75H10.2146C10.9654 21.75 11.689 21.4066 12.2513 20.7804C12.5524 20.4479 13.0659 20.4208 13.3985 20.7209C13.7322 21.0209 13.7593 21.5355 13.4592 21.8681C12.5839 22.8399 11.4323 23.375 10.2146 23.375" fill="#14AE5C"/>
</svg>
