<svg width="12" height="12" viewBox="0 0 12 12" fill="none" xmlns="http://www.w3.org/2000/svg">
<path d="M2.8002 7.35492L1.93103 11.1186C1.87737 11.3513 1.9707 11.5934 2.16787 11.7293C2.26762 11.7982 2.38312 11.8332 2.4992 11.8332C2.61178 11.8332 2.72495 11.8005 2.82295 11.7352L5.9992 9.61767L9.17545 11.7352C9.37845 11.8705 9.64503 11.8653 9.84336 11.7212C10.0405 11.5771 10.1274 11.3245 10.0604 11.09L8.99345 7.35667L11.6394 4.9755C11.8127 4.81917 11.8763 4.57534 11.8016 4.35484C11.7264 4.13434 11.5274 3.97917 11.2953 3.9605L7.9697 3.69567L6.53062 0.510087C6.4367 0.300671 6.22845 0.166504 5.9992 0.166504C5.76995 0.166504 5.5617 0.300671 5.46778 0.510087L4.0287 3.69567L0.703115 3.95992C0.474449 3.978 0.277865 4.12792 0.200865 4.34317C0.122698 4.55842 0.178699 4.79934 0.342032 4.95917L2.8002 7.35492ZM4.46445 4.83142C4.6762 4.8145 4.86287 4.68384 4.94978 4.48959L5.9992 2.16734L7.04861 4.48959C7.13553 4.68384 7.3222 4.8145 7.53395 4.83142L9.85095 5.01517L7.94286 6.7325C7.7772 6.88184 7.71128 7.11167 7.77195 7.32634L8.50286 9.88425L6.32353 8.43117C6.12753 8.29992 5.87261 8.29992 5.67661 8.43117L3.39928 9.94959L4.01178 7.29775C4.05728 7.09942 3.99662 6.89117 3.85078 6.74942L2.07861 5.02159L4.46445 4.83142Z" fill="#B4B7C9"/>
</svg>
