<svg width="34" height="42" viewBox="0 0 34 42" fill="none" xmlns="http://www.w3.org/2000/svg">
<path fill-rule="evenodd" clip-rule="evenodd" d="M34 11.0526V38.684C34 40.5156 32.4249 42 30.4827 42H3.51727C1.57441 42 0 40.5156 0 38.684V3.31603C0 1.48444 1.57441 0 3.51727 0H22.2756L34 11.0526Z" fill="#F23D68"/>
<path fill-rule="evenodd" clip-rule="evenodd" d="M34.0001 10.4337V11.8092H24.4156C22.4311 11.8092 21.5159 10.2867 21.5159 8.40919V0H22.9675L34.0001 10.4337Z" fill="#FF879D"/>
<path fill-rule="evenodd" clip-rule="evenodd" d="M26.0948 22.3434C25.7923 22.2489 25.5008 22.201 25.2198 22.201C24.9006 22.201 24.6814 22.2633 24.5613 22.388C24.442 22.5127 24.3823 22.7332 24.3823 23.0502V23.6559H25.7236V24.8726H24.3823V29.8831H22.7572V24.8726H21.9197V23.6559H22.7572V23.0502C22.7572 22.2784 22.9598 21.7206 23.3651 21.3761C23.7703 21.0316 24.3795 20.8596 25.1941 20.8596C25.5765 20.8596 25.9817 20.9088 26.4098 21.0079L26.0948 22.3434ZM19.2878 29.2773C18.9853 29.5188 18.6661 29.7111 18.3303 29.8535C17.9945 29.9959 17.6128 30.0668 17.1847 30.0668C16.3534 30.0668 15.7172 29.784 15.2765 29.2183C14.8352 28.6519 14.6153 27.8526 14.6153 26.8197C14.6153 25.7631 14.8574 24.9421 15.3425 24.3561C15.8275 23.7707 16.5082 23.4774 17.3859 23.4774C17.6968 23.4774 18.0153 23.5378 18.3428 23.6585C18.6703 23.7793 18.9416 23.9328 19.1553 24.1186V21.0434H20.7804V29.8831H19.2878V29.2773ZM19.1553 25.3832C18.9832 25.2368 18.7702 25.1069 18.5163 24.994C18.2623 24.8818 18.0028 24.8253 17.7384 24.8253C17.302 24.8253 16.9516 25.0025 16.6872 25.3562C16.4221 25.7106 16.2903 26.1903 16.2903 26.7961C16.2903 27.3939 16.3985 27.8625 16.6143 28.2031C16.8308 28.5437 17.1653 28.7136 17.6191 28.7136C17.8876 28.7136 18.1617 28.6552 18.4406 28.5384C18.7196 28.4216 18.9583 28.2779 19.1553 28.1079V25.3832ZM12.2096 29.6632C11.8106 29.9323 11.3346 30.0668 10.7802 30.0668C10.0496 30.0668 9.42646 29.8516 8.91022 29.4197V32.2278H7.28516V23.6559H8.78393V24.2669C9.08646 24.0214 9.40426 23.8285 9.73801 23.6881C10.0718 23.5476 10.4548 23.4774 10.8871 23.4774C11.7225 23.4774 12.3588 23.7543 12.7952 24.3089C13.2317 24.8627 13.4503 25.668 13.4503 26.7245C13.4503 27.3939 13.3434 27.9832 13.129 28.4938C12.9146 29.0043 12.6086 29.3941 12.2096 29.6632ZM11.4415 25.3326C11.2187 24.994 10.8871 24.8253 10.4465 24.8253C10.1821 24.8253 9.91009 24.8837 9.63116 24.9999C9.35152 25.1167 9.11144 25.2604 8.91022 25.4304V28.1551C9.0823 28.3022 9.29532 28.4314 9.54928 28.5443C9.80324 28.6572 10.0641 28.7136 10.3334 28.7136C10.7781 28.7136 11.1299 28.5345 11.3881 28.1762C11.6462 27.8178 11.7752 27.3421 11.7752 26.7488C11.7752 26.1431 11.6635 25.6712 11.4415 25.3326Z" fill="white"/>
</svg>
