<svg width="21" height="20" viewBox="0 0 21 20" fill="none" xmlns="http://www.w3.org/2000/svg">
<path d="M17.2162 12.5022C16.2366 12.5022 15.2747 12.349 14.3633 12.0478C13.9167 11.8954 13.3676 12.0352 13.095 12.3151L11.296 13.6732C9.20963 12.5595 7.92446 11.2748 6.82596 9.20404L8.14408 7.45188C8.48654 7.10988 8.60938 6.61029 8.46221 6.14154C8.15971 5.22529 8.00604 4.26392 8.00604 3.28392C8.00608 2.57596 7.43013 2 6.72221 2H3.78387C3.07596 2 2.5 2.57596 2.5 3.28387C2.5 11.3985 9.10158 18 17.2162 18C17.9241 18 18.5 17.424 18.5 16.7161V13.786C18.5 13.0781 17.924 12.5022 17.2162 12.5022Z" fill="white"/>
</svg>
