<svg width="20" height="18" viewBox="0 0 20 18" fill="none" xmlns="http://www.w3.org/2000/svg">
<path d="M20 1.02907C17.3099 0.593658 15.3119 1.10823 14.0058 2.57279C12.6998 4.03734 12.0468 6.1946 12.0468 9.04454V17.1194H20V9.04454H15.9064C15.692 7.61957 15.8869 6.46178 16.4912 5.57117C17.115 4.68056 18.1287 4.29463 19.5322 4.41338L20 1.02907ZM7.95322 1.02907C5.26316 0.593658 3.26511 1.10823 1.95906 2.57279C0.653022 4.03734 0 6.1946 0 9.04454V17.1194H7.95322V9.04454H3.85965C3.64522 7.61957 3.84016 6.46178 4.44444 5.57117C5.06823 4.68056 6.08187 4.29463 7.48538 4.41338L7.95322 1.02907Z" fill="white"/>
</svg>
