<svg width="28" height="28" viewBox="0 0 28 28" fill="none" xmlns="http://www.w3.org/2000/svg">
<g clip-path="url(#clip0_0_9763)">
<path d="M13.9462 28C13.7785 28 13.611 27.9615 13.457 27.8846C13.3291 27.8206 10.2875 26.2784 7.10515 22.8192C5.23979 20.7919 3.70769 18.5186 2.55113 16.0625C1.10662 12.9949 0.249346 9.63632 0.00261158 6.08014C-0.017469 5.79004 0.078875 5.504 0.270068 5.28503C0.461474 5.06607 0.731921 4.93213 1.02223 4.91312C3.02538 4.78152 4.59465 3.10394 4.59465 1.09375C4.59465 0.489624 5.08428 0 5.6884 0H22.3134C22.9173 0 23.4072 0.489624 23.4072 1.09375C23.4072 3.10266 24.9754 4.78024 26.9774 4.91312C27.2722 4.93256 27.5465 5.07056 27.7379 5.2955C27.9296 5.52045 28.0218 5.81332 27.9941 6.10748C27.62 10.0561 26.5297 13.7492 24.7532 17.0845C24.4691 17.6177 23.8066 17.8196 23.2736 17.5357C22.7404 17.2518 22.5386 16.5893 22.8225 16.0561C24.3106 13.2624 25.2776 10.1905 25.703 6.91156C23.4633 6.32111 21.7428 4.46899 21.3198 2.1875H6.68196C6.25728 4.47882 4.52416 6.3367 2.27065 6.91882C2.84551 12.4367 4.99028 17.2612 8.65392 21.2717C10.847 23.6722 12.9971 25.0885 13.94 25.6491C14.9718 25.0215 17.4671 23.3349 19.8965 20.4106C20.2825 19.9458 20.9718 19.8821 21.4367 20.2681C21.9013 20.6541 21.9652 21.3437 21.5792 21.8083C18.1219 25.9702 14.5931 27.8039 14.4444 27.8799C14.288 27.9601 14.1171 28 13.9462 28ZM14.7922 22.0809C15.1564 21.5988 15.0609 20.9131 14.5792 20.5488C13.6335 19.8343 12.7386 19.024 11.9191 18.1409C9.53661 15.5723 7.92012 12.5544 7.10814 9.16165C7.54564 8.8237 7.95729 8.45029 8.33733 8.04611C8.96752 7.37555 9.50563 6.6268 9.93672 5.82016C10.2213 5.28738 10.02 4.62473 9.48726 4.33997C8.95449 4.05542 8.29183 4.25665 8.00728 4.78943C7.66698 5.42603 7.24187 6.01755 6.7437 6.54776C6.30449 7.01495 5.8123 7.4296 5.28124 7.78058C4.90868 8.02667 4.72304 8.47464 4.81255 8.91235C5.64525 12.9842 7.49651 16.5898 10.3155 19.6285C11.2217 20.6054 12.2125 21.5024 13.2603 22.2941C13.4577 22.4432 13.6892 22.5152 13.9189 22.5152C14.25 22.5152 14.5773 22.3655 14.7922 22.0809Z" fill="#14AE5C"/>
</g>
<defs>
<clipPath id="clip0_0_9763">
<rect width="28" height="28" fill="white"/>
</clipPath>
</defs>
</svg>
