<svg width="698" height="420" viewBox="0 0 698 420" fill="none" xmlns="http://www.w3.org/2000/svg">
<path opacity="0.2" d="M194.501 178.209H142.039V199.448H194.501V178.209Z" fill="#0C3261"/>
<path opacity="0.2" d="M375.816 119.848H323.354V141.087H375.816V119.848Z" fill="#0C3261"/>
<path opacity="0.2" d="M538.394 119.848H485.932V141.087H538.394V119.848Z" fill="#0C3261"/>
<path opacity="0.2" d="M632.187 159.45H579.725V180.689H632.187V159.45Z" fill="#0C3261"/>
<path opacity="0.1" d="M347.085 149.195H294.623V170.435H347.085V149.195Z" fill="#0C3261"/>
<path opacity="0.2" d="M256.042 119.848H203.58V141.087H256.042V119.848Z" fill="#0C3261"/>
<path opacity="0.1" d="M227.31 149.195H174.848V170.435H227.31V149.195Z" fill="#0C3261"/>
<path opacity="0.1" d="M287.275 149.195H234.812V170.435H287.275V149.195Z" fill="#0C3261"/>
<path opacity="0.2" d="M133.421 197.812H80.959V219.052H133.421V197.812Z" fill="#0C3261"/>
<path opacity="0.1" d="M107.544 149.195H55.082V170.435H107.544V149.195Z" fill="#0C3261"/>
<path opacity="0.1" d="M167.511 149.195H115.049V170.435H167.511V149.195Z" fill="#0C3261"/>
<path opacity="0.2" d="M375.816 0H323.354V21.2392H375.816V0Z" fill="#0C3261"/>
<path opacity="0.1" d="M347.085 29.3467H294.623V50.5859H347.085V29.3467Z" fill="#0C3261"/>
<path opacity="0.2" d="M639.482 0H587.02V21.2392H639.482V0Z" fill="#0C3261"/>
<path opacity="0.1" d="M610.751 29.3467H558.289V50.5859H610.751V29.3467Z" fill="#0C3261"/>
<path opacity="0.2" d="M270.632 0H218.17V21.2392H270.632V0Z" fill="#0C3261"/>
<path opacity="0.1" d="M287.275 88.3857H234.812V109.625H287.275V88.3857Z" fill="#0C3261"/>
<path opacity="0.2" d="M436.689 228.232H384.227V249.472H436.689V228.232Z" fill="#0C3261"/>
<path opacity="0.2" d="M436.689 285.552H384.227V306.791H436.689V285.552Z" fill="#0C3261"/>
<path opacity="0.2" d="M194.501 286.594H142.039V307.833H194.501V286.594Z" fill="#0C3261"/>
<path opacity="0.1" d="M526.804 257.58H474.342V278.819H526.804V257.58Z" fill="#0C3261"/>
<path opacity="0.1" d="M498.177 285.354H445.715V306.593H498.177V285.354Z" fill="#0C3261"/>
<path opacity="0.1" d="M678.501 257.58H626.039V278.819H678.501V257.58Z" fill="#0C3261"/>
<path opacity="0.1" d="M649.863 285.354H597.4V306.593H649.863V285.354Z" fill="#0C3261"/>
<path opacity="0.2" d="M375.816 228.232H323.354V249.472H375.816V228.232Z" fill="#0C3261"/>
<path opacity="0.1" d="M407.04 257.58H354.578V278.819H407.04V257.58Z" fill="#0C3261"/>
<path opacity="0.1" d="M382.029 318.025H329.566V339.265H382.029V318.025Z" fill="#0C3261"/>
<path opacity="0.1" d="M457.064 346.163H404.602V367.402H457.064V346.163Z" fill="#0C3261"/>
<path opacity="0.1" d="M259.054 346.163H206.592V367.402H259.054V346.163Z" fill="#0C3261"/>
<path opacity="0.1" d="M109.451 346.163H56.9883V367.402H109.451V346.163Z" fill="#0C3261"/>
<path opacity="0.1" d="M300.187 185.671H247.725V206.91H300.187V185.671Z" fill="#0C3261"/>
<path opacity="0.1" d="M360.142 185.671H307.68V206.91H360.142V185.671Z" fill="#0C3261"/>
<path opacity="0.1" d="M526.888 185.671H474.426V206.91H526.888V185.671Z" fill="#0C3261"/>
<path opacity="0.2" d="M256.042 228.232H203.58V249.472H256.042V228.232Z" fill="#0C3261"/>
<path opacity="0.1" d="M313.808 288.845H261.346V310.084H313.808V288.845Z" fill="#0C3261"/>
<path opacity="0.2" d="M136.277 228.232H83.8145V249.472H136.277V228.232Z" fill="#0C3261"/>
<path opacity="0.2" d="M133.421 306.196H80.959V327.435H133.421V306.196Z" fill="#0C3261"/>
<path opacity="0.1" d="M107.544 257.58H55.082V278.819H107.544V257.58Z" fill="#0C3261"/>
<path opacity="0.1" d="M167.511 257.58H115.049V278.819H167.511V257.58Z" fill="#0C3261"/>
<path d="M18.3964 243.719C22.2732 245.418 31.7673 245.241 31.7777 245.241C31.7881 245.241 29.6934 238.988 29.5579 238.654C27.4736 234.298 20.8871 227.107 15.5304 227.837C14.6431 227.981 13.7962 228.311 13.0449 228.805C12.2937 229.298 11.6548 229.945 11.1701 230.702C10.6853 231.459 10.3656 232.31 10.2316 233.199C10.0976 234.088 10.1525 234.995 10.3926 235.861C11.341 239.519 15.0927 242.281 18.3964 243.719Z" fill="#0C3261"/>
<path d="M21.6678 271.211C25.7009 271.795 34.1737 269.335 34.8407 269.127C36.2346 273.975 37.951 278.723 39.9785 283.342C41.1353 286.041 42.3963 288.72 43.6886 291.387C42.9174 290.262 42.2191 289.251 42.1045 289.126C38.978 285.468 30.6408 280.278 25.7218 282.383C24.9055 282.757 24.1771 283.299 23.5839 283.973C22.9907 284.647 22.5459 285.438 22.2786 286.295C22.0112 287.152 21.9272 288.056 22.0321 288.948C22.1369 289.839 22.4282 290.699 22.8871 291.471C24.7213 294.816 29.14 296.473 32.6938 296.994C36.2476 297.515 43.5739 295.577 45.4915 295.035C46.0022 296.077 46.5337 297.119 47.0026 298.089C49.4621 302.976 51.9216 307.833 54.2039 312.679C55.0064 314.388 55.7359 316.097 56.4654 317.806C55.7776 316.764 55.194 315.962 55.0898 315.836C51.9633 312.189 43.626 306.989 38.7071 309.104C37.8908 309.478 37.1624 310.02 36.5692 310.694C35.976 311.368 35.5312 312.159 35.2639 313.016C34.9965 313.873 34.9125 314.777 35.0174 315.669C35.1222 316.56 35.4135 317.42 35.8724 318.192C37.7066 321.537 42.1253 323.194 45.6791 323.715C49.2329 324.236 55.8506 322.475 58.185 321.85C58.8832 323.621 59.5815 325.393 60.1859 327.144C60.5611 328.342 61.0197 329.478 61.3323 330.708C61.645 331.938 61.9993 333.115 62.3745 334.303C62.9268 336.617 63.5104 338.993 64.0002 341.255C64.3442 342.828 64.6464 344.381 64.959 345.861C64.1774 344.152 62.5829 340.838 62.4162 340.577C59.8525 336.492 52.4844 330.104 47.2423 331.438C46.3794 331.685 45.5781 332.111 44.8905 332.688C44.2029 333.264 43.6443 333.98 43.2512 334.787C42.858 335.594 42.6391 336.474 42.6085 337.371C42.5779 338.268 42.7364 339.162 43.0737 339.994C44.3868 343.579 48.4825 345.882 51.932 346.934C55.7359 348.091 64.1357 347.028 65.1883 346.934C65.6885 349.446 66.1575 351.895 66.5639 354.23C67.4602 359.347 68.1376 363.922 68.6483 367.778H72.1916C71.5767 363.755 70.7638 358.982 69.7008 353.615C69.2006 351.061 68.6587 348.341 67.9813 345.559C70.5125 344.549 72.98 343.387 75.3702 342.078C78.1423 345.079 85.229 348.581 86.1461 349.029C85.1873 351.405 84.2181 353.698 83.2802 355.855C81.3209 360.368 79.4554 364.37 77.8088 367.778H81.644C83.0613 364.651 84.6141 361.066 86.2295 357.106C87.2195 354.699 88.2304 352.104 89.2413 349.436C90.2835 349.655 98.6207 351.343 102.456 350.478C105.978 349.675 110.23 347.695 111.835 344.225C112.232 343.419 112.456 342.539 112.491 341.641C112.526 340.744 112.372 339.849 112.039 339.014C111.706 338.18 111.201 337.425 110.557 336.798C109.914 336.172 109.145 335.688 108.302 335.377C103.175 333.657 95.3484 339.483 92.4824 343.37C92.3157 343.589 90.7629 346.288 89.8041 347.997C90.2105 346.903 90.617 345.851 91.0234 344.725C91.8467 342.495 92.5971 340.244 93.4099 337.826C93.7643 336.648 94.1186 335.45 94.4521 334.251C94.7856 333.053 95.0878 331.761 95.4109 330.5C96.1091 327.571 96.6719 324.58 97.1721 321.548C99.1314 322.256 106.103 324.674 109.678 324.424C113.253 324.174 117.786 322.85 119.87 319.651C120.385 318.915 120.74 318.079 120.91 317.197C121.081 316.315 121.064 315.407 120.86 314.532C120.657 313.657 120.272 312.835 119.729 312.119C119.187 311.403 118.5 310.809 117.713 310.376C112.909 307.906 104.3 312.46 100.882 315.878C100.663 316.087 98.4853 318.807 97.318 320.328C97.5994 318.494 97.9016 316.681 98.1309 314.815C98.7875 309.458 99.2981 304.008 99.8296 298.578C99.986 296.921 100.174 295.264 100.34 293.607C101.039 293.868 109.261 296.932 113.315 296.64C116.911 296.39 121.423 295.066 123.507 291.867C124.023 291.131 124.377 290.295 124.548 289.413C124.718 288.531 124.701 287.623 124.498 286.748C124.294 285.873 123.909 285.051 123.366 284.335C122.824 283.619 122.137 283.025 121.35 282.592C116.546 280.122 107.938 284.676 104.519 288.094C104.259 288.344 101.122 292.263 100.351 293.305C100.747 289.647 101.164 286.01 101.716 282.446C102.446 277.624 103.491 272.854 104.842 268.168C105.165 268.293 113.742 271.524 117.88 271.232C121.486 270.982 125.998 269.658 128.072 266.459C128.588 265.724 128.943 264.888 129.114 264.007C129.285 263.125 129.269 262.218 129.067 261.343C128.864 260.468 128.48 259.646 127.939 258.929C127.397 258.212 126.711 257.618 125.925 257.184C121.121 254.714 112.513 259.268 109.084 262.686C108.823 262.947 105.447 267.168 104.915 267.981C104.999 267.71 105.051 267.418 105.134 267.147C106.613 262.473 108.503 257.939 110.783 253.599C112.012 251.202 113.326 248.972 114.649 246.825C116.181 247.596 123.237 250.993 126.999 251.171C130.605 251.306 135.232 250.493 137.65 247.544C138.244 246.87 138.689 246.079 138.957 245.222C139.225 244.365 139.309 243.46 139.204 242.569C139.099 241.677 138.806 240.817 138.347 240.045C137.887 239.274 137.269 238.608 136.534 238.091C132.032 235.101 122.986 238.696 119.193 241.697C118.985 241.864 117.109 243.782 115.712 245.157C116.327 244.199 116.942 243.198 117.546 242.291C119.808 238.894 122.09 235.913 124.133 233.287C125.3 231.807 126.394 230.494 127.426 229.264C129.323 229.264 136.972 229.004 140.317 227.43C143.663 225.857 147.31 223.043 148.102 219.312C148.318 218.44 148.348 217.533 148.191 216.649C148.033 215.764 147.69 214.923 147.186 214.18C146.682 213.437 146.027 212.808 145.264 212.335C144.5 211.862 143.646 211.554 142.756 211.433C137.379 210.849 130.99 218.218 129.031 222.626C128.854 223.011 126.884 229.275 126.947 229.275H127.02C125.977 230.432 124.935 231.682 123.778 233.068C121.694 235.653 119.318 238.592 116.973 241.958C114.411 245.564 112.059 249.315 109.928 253.192C107.519 257.519 105.504 262.053 103.904 266.74C103.904 266.803 103.904 266.865 103.904 266.918C103.904 265.333 103.904 260.904 103.821 260.56C103.196 255.777 99.1835 246.887 93.8685 245.908C92.9815 245.769 92.0753 245.819 91.2088 246.054C90.3423 246.288 89.5349 246.703 88.839 247.27C88.1431 247.837 87.5743 248.544 87.1696 249.345C86.7649 250.147 86.5334 251.024 86.49 251.921C86.1774 255.725 88.9391 259.539 91.6278 261.936C94.6605 264.646 103.092 267.272 103.748 267.48C102.236 272.29 101.049 277.196 100.194 282.164C99.6733 285.051 99.246 287.98 98.85 290.929C98.85 289.553 98.85 288.334 98.7875 288.157C98.1622 283.373 94.1499 274.484 88.8349 273.504C87.9477 273.364 87.0408 273.412 86.1736 273.646C85.3064 273.88 84.4983 274.295 83.8021 274.862C83.1058 275.429 82.537 276.137 82.1328 276.94C81.7286 277.742 81.4981 278.62 81.4564 279.517C81.1437 283.321 83.9055 287.135 86.5942 289.532C89.283 291.929 96.4531 294.358 98.3498 294.962C98.2039 296.088 98.058 297.213 97.9225 298.349C97.2764 303.768 96.6511 309.188 95.8382 314.482C95.5672 316.347 95.2337 318.171 94.9002 320.005C94.9002 318.786 94.9002 317.764 94.8377 317.608C94.2228 312.825 90.2105 303.935 84.8955 302.955C84.008 302.817 83.1013 302.867 82.2342 303.101C81.3671 303.336 80.559 303.75 79.8623 304.317C79.1656 304.884 78.5959 305.591 78.1901 306.392C77.7842 307.194 77.5514 308.072 77.5066 308.969C77.194 312.773 79.9557 316.576 82.6444 318.984C85.3332 321.391 91.8154 323.569 94.1082 324.299C93.7122 326.154 93.3162 328.03 92.8576 329.812C92.5033 331.031 92.2532 332.219 91.8154 333.418L90.6691 336.971C89.8562 339.202 89.0329 341.515 88.1783 343.673C87.6051 345.173 87.0215 346.601 86.4483 348.039C86.7401 346.184 87.2404 342.537 87.2404 342.234C87.1821 337.986 86.0338 333.823 83.9055 330.145C83.9245 329.671 83.8966 329.197 83.8221 328.728C83.7105 327.837 83.4121 326.979 82.9465 326.21C82.4809 325.442 81.8585 324.781 81.1199 324.269C80.3813 323.758 79.5431 323.408 78.6601 323.242C77.7771 323.077 76.8692 323.1 75.9955 323.309C70.7847 324.695 67.4602 333.866 67.2101 338.681C67.2101 338.972 67.3873 342.078 67.5332 344.027C67.2726 342.891 67.0329 341.786 66.7411 340.619C66.1992 338.305 65.5843 336.023 64.9278 333.553C64.5734 332.376 64.2087 331.187 63.8856 329.979C63.5625 328.77 63.0415 327.55 62.6142 326.321C61.572 323.496 60.4048 320.683 59.1438 317.879C61.1656 317.4 68.3252 315.576 71.1911 313.367C74.0571 311.157 77.0897 307.583 77.0689 303.768C77.0922 302.87 76.9263 301.976 76.5819 301.146C76.2374 300.316 75.7221 299.567 75.0695 298.949C74.4169 298.331 73.6416 297.857 72.7939 297.558C71.9462 297.259 71.045 297.141 70.149 297.213C64.7819 297.797 60.113 306.363 59.1438 311.084C59.0813 311.386 58.7582 314.857 58.6227 316.764C57.8515 315.086 57.0907 313.398 56.2674 311.72C53.86 306.884 51.2755 302.07 48.7222 297.244C47.9406 295.765 47.1798 294.285 46.4086 292.805C47.1277 292.638 55.6838 290.658 58.9145 288.188C61.77 285.989 64.8027 282.404 64.7819 278.59C64.8051 277.692 64.6394 276.8 64.2955 275.97C63.9517 275.14 63.4374 274.392 62.786 273.774C62.1345 273.156 61.3605 272.682 60.514 272.382C59.6676 272.083 58.7676 271.964 57.8724 272.035C52.4531 272.608 47.8155 281.174 46.7734 285.885C46.7004 286.25 46.2523 291.242 46.2002 292.513C44.5015 289.261 42.8444 285.989 41.3437 282.706C39.2897 278.286 37.5282 273.736 36.0704 269.085C36.4039 269.012 45.3352 267.001 48.6388 264.448C51.4943 262.249 54.527 258.664 54.5062 254.849C54.5294 253.952 54.3637 253.059 54.0199 252.23C53.676 251.4 53.1617 250.652 52.5103 250.034C51.8588 249.416 51.0848 248.942 50.2383 248.642C49.3919 248.342 48.4919 248.224 47.5967 248.294C42.2191 248.878 37.5503 257.444 36.5811 262.165C36.4977 262.54 36.0183 267.918 35.9975 268.898C35.9141 268.627 35.7994 268.356 35.7265 268.085C34.384 263.379 33.4667 258.562 32.9856 253.693C32.6834 251.014 32.5479 248.43 32.475 245.908C34.1737 245.699 41.9482 244.667 45.1684 242.719C48.3887 240.77 51.6611 237.612 52.0467 233.819C52.1749 232.927 52.113 232.018 51.8651 231.152C51.6171 230.285 51.1887 229.481 50.608 228.792C50.0273 228.103 49.3075 227.545 48.4957 227.154C47.684 226.763 46.7987 226.548 45.898 226.524C40.4996 226.524 34.924 234.506 33.3921 239.102C33.3087 239.352 32.7668 241.979 32.402 243.896C32.402 242.76 32.3395 241.593 32.3499 240.499C32.3499 236.414 32.6104 232.672 32.871 229.358C33.0273 227.472 33.2149 225.773 33.4025 224.147C34.9657 223.105 41.2187 218.655 43.1362 215.497C45.0538 212.34 46.5545 207.984 45.1476 204.43C44.8462 203.584 44.3702 202.811 43.7505 202.161C43.1308 201.512 42.3813 200.999 41.5507 200.658C40.7201 200.317 39.827 200.155 38.9295 200.182C38.032 200.208 37.1502 200.424 36.3414 200.813C31.537 203.294 30.276 212.965 31.068 217.728C31.141 218.134 32.9543 224.45 33.0377 224.398H33.2253C33.0169 225.929 32.8084 227.524 32.6104 229.358C32.2874 232.672 31.9435 236.414 31.8497 240.52C31.6961 244.945 31.8074 249.375 32.1832 253.786C32.5654 258.714 33.3886 263.596 34.6426 268.377C34.6382 268.432 34.6382 268.488 34.6426 268.543C33.7881 267.209 31.2869 263.551 31.068 263.333C27.9416 259.685 19.6043 254.485 14.6749 256.6C13.8586 256.974 13.1302 257.516 12.537 258.19C11.9438 258.864 11.499 259.655 11.2317 260.512C10.9643 261.369 10.8803 262.273 10.9852 263.165C11.09 264.056 11.3813 264.916 11.8402 265.688C13.7057 269.033 18.1036 270.69 21.6678 271.211Z" fill="#0C3261"/>
<path d="M114.379 245.804C114.462 245.804 116.109 239.499 116.161 239.092C116.828 234.309 115.307 224.679 110.44 222.324C109.62 221.957 108.732 221.766 107.834 221.764C106.935 221.762 106.046 221.948 105.225 222.312C104.403 222.676 103.667 223.208 103.065 223.874C102.462 224.541 102.007 225.326 101.727 226.18C100.425 229.765 102.082 234.163 104.041 237.196C106.344 240.749 114.369 245.804 114.379 245.804Z" fill="#0C3261"/>
<path d="M102.093 419.052H50.2244L43.7422 361.452H108.575L102.093 419.052Z" fill="white" stroke="#0C3261" stroke-linecap="round" stroke-linejoin="round"/>
<path d="M44.9297 371.998L45.555 377.584H106.761L107.386 371.998H44.9297Z" fill="#0C3261"/>
<path d="M105.374 389.861L106 384.285H46.3047L46.9404 389.861H105.374Z" fill="#0C3261"/>
<path d="M565.645 303.247H548.074V419.052H565.645V303.247Z" fill="#14AE5C" stroke="#0C3261" stroke-linecap="round" stroke-linejoin="round"/>
<path d="M555.057 303.247H544.469V419.052H555.057V303.247Z" fill="#14AE5C" stroke="#0C3261" stroke-linecap="round" stroke-linejoin="round"/>
<path d="M550.45 323.194H547.99V396.771H550.45V323.194Z" fill="white"/>
<path d="M617.982 237.612H578.15V419.052H617.982V237.612Z" fill="#919191" stroke="#0C3261" stroke-linecap="round" stroke-linejoin="round"/>
<path d="M604.404 237.612H564.572V419.052H604.404V237.612Z" fill="#C4C4C4" stroke="#0C3261" stroke-linecap="round" stroke-linejoin="round"/>
<path d="M604.404 253.495H564.572V264.365H604.404V253.495Z" fill="white" stroke="#0C3261" stroke-linecap="round" stroke-linejoin="round"/>
<path d="M604.404 391.883H564.572V402.753H604.404V391.883Z" fill="white" stroke="#0C3261" stroke-linecap="round" stroke-linejoin="round"/>
<path d="M667.703 271.357H622.891V419.052H667.703V271.357Z" fill="#14AE5C" stroke="#0C3261" stroke-linecap="round" stroke-linejoin="round"/>
<path d="M640.691 271.357H613.678V419.052H640.691V271.357Z" fill="#14AE5C" stroke="#0C3261" stroke-linecap="round" stroke-linejoin="round"/>
<path d="M640.691 284.291H613.678V293.139H640.691V284.291Z" fill="white" stroke="#0C3261" stroke-linecap="round" stroke-linejoin="round"/>
<path d="M640.691 396.927H613.678V405.775H640.691V396.927Z" fill="white" stroke="#0C3261" stroke-linecap="round" stroke-linejoin="round"/>
<path d="M378.472 281.894H344.717V418.093H378.472V281.894Z" fill="#0C3261" stroke="#0C3261" stroke-linecap="round" stroke-linejoin="round"/>
<path d="M574.627 57.2354H148.572V315.659H574.627V57.2354Z" fill="#0C3261" stroke="#0C3261" stroke-linecap="round" stroke-linejoin="round"/>
<path d="M559.267 66.542H163.924V306.343H559.267V66.542Z" fill="white" stroke="#0C3261" stroke-linecap="round" stroke-linejoin="round"/>
<path d="M559.267 291.897H163.924V306.342H559.267V291.897Z" fill="white" stroke="#0C3261" stroke-linecap="round" stroke-linejoin="round"/>
<path d="M363.444 402.814L238.281 410.902V419.051H484.918V410.902L363.444 402.814Z" fill="#0C3261" stroke="#0C3261" stroke-linecap="round" stroke-linejoin="round"/>
<path d="M553.42 70.9502H462.346V264.312H553.42V70.9502Z" stroke="#0C3261" stroke-miterlimit="10"/>
<path d="M553.42 267.605H462.346V286.083H553.42V267.605Z" stroke="#0C3261" stroke-miterlimit="10"/>
<path d="M476.862 82.8306C476.862 81.9175 476.592 81.0249 476.084 80.2657C475.577 79.5065 474.856 78.9147 474.012 78.5653C473.169 78.2159 472.241 78.1244 471.345 78.3026C470.449 78.4807 469.627 78.9204 468.981 79.5661C468.335 80.2117 467.896 81.0344 467.718 81.9299C467.539 82.8255 467.631 83.7538 467.98 84.5974C468.33 85.441 468.922 86.162 469.681 86.6693C470.44 87.1766 471.333 87.4474 472.246 87.4474C472.852 87.4474 473.452 87.328 474.012 87.096C474.573 86.864 475.082 86.5239 475.51 86.0952C475.939 85.6665 476.279 85.1575 476.511 84.5974C476.743 84.0373 476.862 83.4369 476.862 82.8306Z" stroke="#0C3261" stroke-miterlimit="10"/>
<path d="M480.822 82.8311H521.081" stroke="#0C3261" stroke-miterlimit="10"/>
<path d="M480.822 88.7607H546.155" stroke="#0C3261" stroke-miterlimit="10"/>
<path d="M480.822 95.3682H516.464" stroke="#0C3261" stroke-miterlimit="10"/>
<path d="M476.862 107.905C476.862 106.992 476.592 106.099 476.084 105.34C475.577 104.581 474.856 103.989 474.012 103.64C473.169 103.29 472.241 103.199 471.345 103.377C470.449 103.555 469.627 103.995 468.981 104.64C468.335 105.286 467.896 106.109 467.718 107.004C467.539 107.9 467.631 108.828 467.98 109.672C468.33 110.515 468.922 111.236 469.681 111.744C470.44 112.251 471.333 112.522 472.246 112.522C472.852 112.522 473.452 112.402 474.012 112.17C474.573 111.938 475.082 111.598 475.51 111.169C475.939 110.741 476.279 110.232 476.511 109.672C476.743 109.111 476.862 108.511 476.862 107.905Z" stroke="#0C3261" stroke-miterlimit="10"/>
<path d="M480.822 107.905H521.081" stroke="#0C3261" stroke-miterlimit="10"/>
<path d="M480.822 113.846H546.155" stroke="#0C3261" stroke-miterlimit="10"/>
<path d="M480.822 120.442H516.464" stroke="#0C3261" stroke-miterlimit="10"/>
<path d="M476.862 132.979C476.862 132.066 476.592 131.173 476.084 130.414C475.577 129.655 474.856 129.063 474.012 128.714C473.169 128.364 472.241 128.273 471.345 128.451C470.449 128.629 469.627 129.069 468.981 129.715C468.335 130.36 467.896 131.183 467.718 132.078C467.539 132.974 467.631 133.902 467.98 134.746C468.33 135.589 468.922 136.31 469.681 136.818C470.44 137.325 471.333 137.596 472.246 137.596C473.47 137.596 474.644 137.109 475.51 136.244C476.376 135.378 476.862 134.204 476.862 132.979Z" stroke="#0C3261" stroke-miterlimit="10"/>
<path d="M480.822 132.979H521.081" stroke="#0C3261" stroke-miterlimit="10"/>
<path d="M480.822 138.92H546.155" stroke="#0C3261" stroke-miterlimit="10"/>
<path d="M480.822 145.517H516.464" stroke="#0C3261" stroke-miterlimit="10"/>
<path d="M476.862 158.054C476.86 157.141 476.588 156.249 476.079 155.492C475.571 154.734 474.849 154.144 474.005 153.796C473.161 153.448 472.233 153.358 471.339 153.537C470.444 153.717 469.622 154.157 468.977 154.803C468.333 155.449 467.894 156.272 467.717 157.167C467.54 158.062 467.632 158.99 467.981 159.833C468.331 160.676 468.923 161.397 469.682 161.903C470.441 162.41 471.333 162.681 472.246 162.681C472.853 162.681 473.454 162.561 474.015 162.328C474.576 162.096 475.085 161.755 475.514 161.325C475.943 160.895 476.283 160.385 476.514 159.824C476.745 159.262 476.864 158.661 476.862 158.054Z" stroke="#0C3261" stroke-miterlimit="10"/>
<path d="M480.822 158.054H521.081" stroke="#0C3261" stroke-miterlimit="10"/>
<path d="M480.822 163.994H546.155" stroke="#0C3261" stroke-miterlimit="10"/>
<path d="M480.822 170.602H516.464" stroke="#0C3261" stroke-miterlimit="10"/>
<path d="M476.862 183.138C476.862 182.225 476.592 181.333 476.084 180.573C475.577 179.814 474.856 179.222 474.012 178.873C473.169 178.523 472.241 178.432 471.345 178.61C470.449 178.788 469.627 179.228 468.981 179.874C468.335 180.519 467.896 181.342 467.718 182.238C467.539 183.133 467.631 184.061 467.98 184.905C468.33 185.749 468.922 186.47 469.681 186.977C470.44 187.484 471.333 187.755 472.246 187.755C473.47 187.755 474.644 187.269 475.51 186.403C476.376 185.537 476.862 184.363 476.862 183.138Z" stroke="#0C3261" stroke-miterlimit="10"/>
<path d="M480.822 183.139H521.081" stroke="#0C3261" stroke-miterlimit="10"/>
<path d="M480.822 189.079H546.155" stroke="#0C3261" stroke-miterlimit="10"/>
<path d="M480.822 195.676H516.464" stroke="#0C3261" stroke-miterlimit="10"/>
<path d="M476.862 208.212C476.862 207.299 476.592 206.407 476.084 205.648C475.577 204.888 474.856 204.297 474.012 203.947C473.169 203.598 472.241 203.506 471.345 203.684C470.449 203.863 469.627 204.302 468.981 204.948C468.335 205.594 467.896 206.416 467.718 207.312C467.539 208.207 467.631 209.136 467.98 209.979C468.33 210.823 468.922 211.544 469.681 212.051C470.44 212.558 471.333 212.829 472.246 212.829C473.47 212.829 474.644 212.343 475.51 211.477C476.376 210.611 476.862 209.437 476.862 208.212Z" stroke="#0C3261" stroke-miterlimit="10"/>
<path d="M480.822 208.213H521.081" stroke="#0C3261" stroke-miterlimit="10"/>
<path d="M480.822 214.153H546.155" stroke="#0C3261" stroke-miterlimit="10"/>
<path d="M480.822 220.75H516.464" stroke="#0C3261" stroke-miterlimit="10"/>
<path d="M476.862 233.287C476.86 232.374 476.588 231.483 476.079 230.725C475.571 229.967 474.849 229.377 474.005 229.029C473.161 228.681 472.233 228.591 471.339 228.771C470.444 228.95 469.622 229.39 468.977 230.037C468.333 230.683 467.894 231.505 467.717 232.401C467.54 233.296 467.632 234.224 467.981 235.067C468.331 235.91 468.923 236.63 469.682 237.137C470.441 237.644 471.333 237.914 472.246 237.914C472.853 237.914 473.454 237.794 474.015 237.562C474.576 237.329 475.085 236.988 475.514 236.558C475.943 236.128 476.283 235.618 476.514 235.057C476.745 234.496 476.864 233.894 476.862 233.287Z" stroke="#0C3261" stroke-miterlimit="10"/>
<path d="M480.822 233.287H521.081" stroke="#0C3261" stroke-miterlimit="10"/>
<path d="M480.822 239.228H546.155" stroke="#0C3261" stroke-miterlimit="10"/>
<path d="M480.822 245.824H516.464" stroke="#0C3261" stroke-miterlimit="10"/>
<path d="M454.321 181.253H315.6V285.99H454.321V181.253Z" fill="white" stroke="#0C3261" stroke-miterlimit="10"/>
<path d="M315.453 227.556H454.164" stroke="#0C3261" stroke-miterlimit="10"/>
<path d="M315.453 234.268H454.164" stroke="#0C3261" stroke-miterlimit="10"/>
<path d="M421.16 234.777V285.989" stroke="#0C3261" stroke-miterlimit="10"/>
<path d="M414.979 234.777V285.989" stroke="#0C3261" stroke-miterlimit="10"/>
<path d="M357.734 180.638V227.201" stroke="#0C3261" stroke-miterlimit="10"/>
<path d="M351.555 180.638V227.201" stroke="#0C3261" stroke-miterlimit="10"/>
<path d="M421.149 265.126C419.638 263.458 416.47 263.76 410.728 261.343C404.986 258.925 399.264 257.111 397.274 252.578C395.283 248.045 394.699 239.113 394.699 239.113L387.217 240.51L379.734 239.113C379.734 239.113 379.119 248.034 377.139 252.536C375.159 257.038 369.427 258.883 363.685 261.301C357.943 263.719 354.764 263.385 353.263 265.084C351.763 266.783 345.854 285.927 345.854 285.927H428.559C428.559 285.927 422.661 266.793 421.149 265.126Z" fill="#14AE5C" stroke="#0C3261" stroke-linecap="round" stroke-linejoin="round"/>
<path d="M397.262 252.536C395.293 247.992 394.688 239.071 394.688 239.071L387.205 240.468L379.723 239.071C379.723 239.071 379.118 248.034 377.138 252.536C376.166 254.547 374.583 256.199 372.615 257.257C375.127 261.655 384.538 278.027 386.361 279.601C388.185 281.174 399.003 263.489 402.504 257.716C400.227 256.624 398.381 254.8 397.262 252.536Z" fill="#C4C4C4" stroke="#0C3261" stroke-linecap="round" stroke-linejoin="round"/>
<path d="M395.127 244.064C394.887 241.979 394.762 240.197 394.71 239.478L394.397 239.176L387.206 240.51L379.723 239.113C379.723 239.113 379.619 240.916 379.369 243.355C381.526 245.387 385.33 248.712 387.175 248.712C389.02 248.712 392.657 245.992 395.127 244.064Z" fill="#0C3261" stroke="#0C3261" stroke-linecap="round" stroke-linejoin="round"/>
<path d="M363.715 282.811C363.871 283.311 364.017 283.853 364.142 284.332" stroke="#0C3261" stroke-linecap="round" stroke-linejoin="round"/>
<path d="M359.766 272.681C361.099 275.5 362.264 278.395 363.257 281.351" stroke="#0C3261" stroke-linecap="round" stroke-linejoin="round"/>
<path d="M356.129 269.815C358.094 271.809 359.549 274.247 360.37 276.923" stroke="#0C3261" stroke-linecap="round" stroke-linejoin="round"/>
<path d="M414.417 272.64C412.104 276.506 408.946 282.019 407.852 284.937" stroke="#0C3261" stroke-linecap="round" stroke-linejoin="round"/>
<path d="M417.075 268.304C417.075 268.304 416.502 269.21 415.637 270.617" stroke="#0C3261" stroke-linecap="round" stroke-linejoin="round"/>
<path d="M409.059 275.714C409.059 275.714 406.631 281.602 406.631 284.051" stroke="#0C3261" stroke-linecap="round" stroke-linejoin="round"/>
<path d="M401.286 262.27L393.178 274.807" stroke="#0C3261" stroke-linecap="round" stroke-linejoin="round"/>
<path d="M402.86 259.831L402.078 261.03" stroke="#0C3261" stroke-linecap="round" stroke-linejoin="round"/>
<path d="M383.672 279.132C383.95 279.562 384.303 279.94 384.714 280.247" stroke="#0C3261" stroke-linecap="round" stroke-linejoin="round"/>
<path d="M376.398 268.45C376.398 268.45 380.4 274.703 382.881 278.069" stroke="#0C3261" stroke-linecap="round" stroke-linejoin="round"/>
<path d="M387.132 242.136C400.992 242.136 412.227 231.442 412.227 218.25C412.227 205.058 400.992 194.363 387.132 194.363C373.273 194.363 362.037 205.058 362.037 218.25C362.037 231.442 373.273 242.136 387.132 242.136Z" fill="#0C3261" stroke="#0C3261" stroke-linecap="round" stroke-linejoin="round"/>
<path d="M373.553 224.398C373.553 224.398 371.124 221.969 369.551 224.523C367.977 227.076 373.188 232.526 373.719 231.557C374.251 230.588 373.553 224.398 373.553 224.398Z" fill="#C4C4C4" stroke="#0C3261" stroke-linecap="round" stroke-linejoin="round"/>
<path d="M400.065 224.398C400.065 224.398 402.483 221.969 404.067 224.523C405.651 227.076 400.419 232.526 399.898 231.557C399.377 230.588 400.065 224.398 400.065 224.398Z" fill="#C4C4C4" stroke="#0C3261" stroke-linecap="round" stroke-linejoin="round"/>
<path d="M400.837 219.458C400.887 217.626 400.57 215.802 399.904 214.095C399.237 212.387 398.236 210.831 396.958 209.517C395.68 208.203 394.151 207.159 392.463 206.446C390.774 205.733 388.96 205.365 387.127 205.365C385.294 205.365 383.48 205.733 381.791 206.446C380.103 207.159 378.574 208.203 377.296 209.517C376.018 210.831 375.017 212.387 374.35 214.095C373.684 215.802 373.367 217.626 373.417 219.458C373.417 219.802 373.417 220.135 373.417 220.5C373.417 220.5 372.375 230.182 373.824 233.6C375.272 237.018 383.026 245.251 384.85 246.054C386.674 246.856 389.217 246.908 390.759 245.293C391.509 244.512 399.628 237.633 400.034 232.787C400.368 228.733 400.566 223.554 400.618 221.98C400.766 221.148 400.839 220.304 400.837 219.458Z" fill="#C4C4C4" stroke="#0C3261" stroke-linecap="round" stroke-linejoin="round"/>
<path d="M384.235 229.39C384.134 229.671 384.103 229.973 384.145 230.269C384.187 230.565 384.3 230.846 384.474 231.089C384.83 231.467 385.265 231.761 385.748 231.95C386.231 232.139 386.75 232.219 387.267 232.183C388.487 232.183 389.946 231.704 389.821 229.275" stroke="#0C3261" stroke-linecap="round" stroke-linejoin="round"/>
<path d="M387.633 234.132C386.655 234.23 385.684 234.39 384.726 234.611C383.142 234.976 381.078 235.341 381.078 235.341C382.082 236.73 383.48 237.787 385.09 238.373C387.519 239.103 388.603 238.863 389.822 238.373C391.041 237.884 393.584 235.101 393.584 235.101C392.395 235.001 391.216 234.799 390.062 234.497C389.274 234.257 388.456 234.134 387.633 234.132Z" fill="#9E9E9E" stroke="#0C3261" stroke-linecap="round" stroke-linejoin="round"/>
<path d="M387.633 234.132C386.655 234.23 385.684 234.39 384.726 234.611C383.142 234.976 381.078 235.341 381.078 235.341C381.078 235.341 388.373 237.769 393.584 235.101C392.395 235.001 391.216 234.799 390.062 234.497C389.274 234.257 388.456 234.134 387.633 234.132Z" fill="#9E9E9E" stroke="#0C3261" stroke-linecap="round" stroke-linejoin="round"/>
<path d="M379.682 224.783C380.252 224.783 380.714 224.158 380.714 223.387C380.714 222.615 380.252 221.99 379.682 221.99C379.112 221.99 378.65 222.615 378.65 223.387C378.65 224.158 379.112 224.783 379.682 224.783Z" fill="#0C3261"/>
<path d="M393.584 224.783C394.154 224.783 394.616 224.158 394.616 223.387C394.616 222.615 394.154 221.99 393.584 221.99C393.015 221.99 392.553 222.615 392.553 223.387C392.553 224.158 393.015 224.783 393.584 224.783Z" fill="#0C3261"/>
<path d="M385.82 223.814C385.823 222.684 385.489 221.579 384.863 220.639C384.237 219.698 383.346 218.964 382.302 218.531C381.259 218.097 380.11 217.982 379.002 218.201C377.893 218.42 376.875 218.964 376.075 219.762C375.275 220.56 374.73 221.578 374.509 222.686C374.288 223.794 374.4 224.943 374.832 225.987C375.264 227.031 375.996 227.924 376.936 228.552C377.875 229.18 378.979 229.515 380.109 229.515C381.622 229.515 383.073 228.915 384.144 227.846C385.215 226.777 385.818 225.327 385.82 223.814Z" stroke="#0C3261" stroke-linecap="round" stroke-linejoin="round"/>
<path d="M399.41 223.814C399.412 222.684 399.079 221.578 398.452 220.637C397.825 219.697 396.934 218.963 395.89 218.529C394.846 218.096 393.696 217.982 392.588 218.202C391.479 218.422 390.46 218.966 389.661 219.765C388.862 220.565 388.318 221.583 388.098 222.692C387.877 223.801 387.991 224.95 388.425 225.994C388.859 227.038 389.592 227.93 390.533 228.557C391.474 229.183 392.579 229.517 393.71 229.515C394.458 229.515 395.2 229.367 395.891 229.081C396.583 228.794 397.211 228.374 397.741 227.845C398.27 227.316 398.69 226.687 398.976 225.996C399.263 225.304 399.41 224.563 399.41 223.814Z" stroke="#0C3261" stroke-linecap="round" stroke-linejoin="round"/>
<path d="M374.409 223.814H373.189" stroke="#0C3261" stroke-linecap="round" stroke-linejoin="round"/>
<path d="M387.518 223.814H386.299" stroke="#0C3261" stroke-linecap="round" stroke-linejoin="round"/>
<path d="M400.619 223.814H399.41" stroke="#0C3261" stroke-linecap="round" stroke-linejoin="round"/>
<path d="M375.857 218.228C375.857 218.228 378.286 215.56 382.413 217.624" stroke="#0C3261" stroke-linecap="round" stroke-linejoin="round"/>
<path d="M390.426 218.228C391.483 217.606 392.695 217.298 393.921 217.341C395.146 217.383 396.334 217.774 397.346 218.468" stroke="#0C3261" stroke-linecap="round" stroke-linejoin="round"/>
<path d="M308.565 181.252H169.844V285.989H308.565V181.252Z" fill="white" stroke="#0C3261" stroke-miterlimit="10"/>
<path d="M293.401 185.014H274.246V210.025H293.401V185.014Z" fill="white" stroke="#0C3261" stroke-linecap="round" stroke-linejoin="round"/>
<path d="M291.766 187.15H275.873V207.9H291.766V187.15Z" fill="white" stroke="#0C3261" stroke-linecap="round" stroke-linejoin="round"/>
<path d="M287.284 192.997H280.354V202.043H287.284V192.997Z" fill="white" stroke="#0C3261" stroke-linecap="round" stroke-linejoin="round"/>
<path d="M302.167 212.86H283.012V237.872H302.167V212.86Z" fill="white" stroke="#0C3261" stroke-linecap="round" stroke-linejoin="round"/>
<path d="M300.53 214.997H284.637V235.746H300.53V214.997Z" fill="white" stroke="#0C3261" stroke-linecap="round" stroke-linejoin="round"/>
<path d="M296.049 220.844H289.119V229.89H296.049V220.844Z" fill="white" stroke="#0C3261" stroke-linecap="round" stroke-linejoin="round"/>
<path d="M279.479 212.86H260.324V237.872H279.479V212.86Z" fill="white" stroke="#0C3261" stroke-linecap="round" stroke-linejoin="round"/>
<path d="M277.842 214.997H261.949V235.746H277.842V214.997Z" fill="white" stroke="#0C3261" stroke-linecap="round" stroke-linejoin="round"/>
<path d="M273.362 220.844H266.432V229.89H273.362V220.844Z" fill="white" stroke="#0C3261" stroke-linecap="round" stroke-linejoin="round"/>
<path d="M178.286 285.885L177.244 283.3L181.892 284.342L176.744 279.632L187.05 277.547L186.54 275.463L175.712 271.294L186.019 267.689L175.712 266.136L183.955 260.987L191.699 253.765C188.902 254.265 186.143 254.961 183.445 255.85C180.87 256.892 173.648 261.008 173.648 261.008C173.648 261.008 178.286 252.754 180.349 248.627C181.62 245.706 182.153 242.517 181.902 239.342C181.902 239.342 178.776 240.384 174.159 246.564C169.542 252.744 169.99 252.629 169.99 252.629" fill="white"/>
<path d="M178.286 285.885L177.244 283.3L181.892 284.342L176.744 279.632L187.05 277.547L186.54 275.463L175.712 271.294L186.019 267.689L175.712 266.136L183.955 260.987L191.699 253.765C188.902 254.265 186.143 254.961 183.445 255.85C180.87 256.892 173.648 261.008 173.648 261.008C173.648 261.008 178.286 252.754 180.349 248.627C181.62 245.706 182.153 242.517 181.902 239.342C181.902 239.342 178.776 240.384 174.159 246.564C169.542 252.744 169.99 252.629 169.99 252.629" stroke="#0C3261" stroke-linecap="round" stroke-linejoin="round"/>
<path d="M278.822 263.28C278.614 261.248 275.852 260.028 268.192 257.027C260.532 254.026 249.267 245.24 249.267 245.24L236.302 246.387L223.327 245.24C223.327 245.24 212.061 253.953 204.402 256.996C196.742 260.039 193.98 261.258 193.772 263.249C193.563 265.239 188.029 285.957 188.029 285.957H284.564C284.564 285.957 279.041 265.302 278.822 263.28Z" fill="#C4C4C4" stroke="#0C3261" stroke-linecap="round" stroke-linejoin="round"/>
<path d="M197.992 267.042C197.596 266 197.179 264.958 196.752 263.916" stroke="#0C3261" stroke-linecap="round" stroke-linejoin="round"/>
<path d="M203.442 285.79C203.442 285.79 201.858 278.495 199.273 270.627" stroke="#0C3261" stroke-linecap="round" stroke-linejoin="round"/>
<path d="M269.662 275.463C270.881 271.013 272.559 266.199 274.633 263.322" stroke="#0C3261" stroke-linecap="round" stroke-linejoin="round"/>
<path d="M267.328 285.989C267.328 285.989 267.87 282.643 268.902 278.381" stroke="#0C3261" stroke-linecap="round" stroke-linejoin="round"/>
<path d="M261.647 270.377L256.78 264.697L261.647 261.852L258.208 251.524C253.31 248.398 249.266 245.271 249.266 245.271L236.302 246.418L223.327 245.24C223.327 245.24 219.158 248.461 214.187 251.67L211.957 262.478L219.252 265.927L212.999 269.981L219.659 285.999H254.164L261.647 270.377Z" fill="#C4C4C4" stroke="#0C3261" stroke-linecap="round" stroke-linejoin="round"/>
<path d="M252.331 247.502C250.465 246.148 249.267 245.23 249.267 245.23L236.302 246.377L223.327 245.241C223.327 245.241 222.379 245.97 220.857 247.075L228.153 286H245.828L252.331 247.502Z" fill="white" stroke="#0C3261" stroke-linecap="round" stroke-linejoin="round"/>
<path d="M222.723 236.507L223.327 245.23L236.312 261.852L249.266 245.23L247.839 236.101L222.723 236.507Z" fill="white" stroke="#0C3261" stroke-linecap="round" stroke-linejoin="round"/>
<path d="M248.579 240.853L247.839 236.101L222.723 236.507L223.046 241.176C225.849 243 232.425 247.116 234.749 247.262C237.135 247.453 239.53 247.023 241.7 246.011C242.482 245.563 246.025 242.843 248.579 240.853Z" fill="#0C3261" stroke="#0C3261" stroke-linecap="round" stroke-linejoin="round"/>
<path d="M216.991 217.862C216.991 217.862 214.708 214.236 212.957 217.456C211.207 220.676 215.511 227.94 216.459 227.94C217.407 227.94 218.199 225.658 218.47 224.449C218.741 223.24 216.991 217.862 216.991 217.862Z" fill="white" stroke="#0C3261" stroke-linecap="round" stroke-linejoin="round"/>
<path d="M252.227 217.862C252.227 217.862 254.509 214.236 256.26 217.456C258.011 220.676 253.707 227.94 252.759 227.94C251.81 227.94 251.018 225.658 250.747 224.449C250.476 223.24 252.227 217.862 252.227 217.862Z" fill="white" stroke="#0C3261" stroke-linecap="round" stroke-linejoin="round"/>
<path d="M217.396 220.958C217.396 220.958 217.938 230.9 218.439 232.776C218.939 234.652 223.483 239.748 230.663 243.937C233.05 245.334 238.459 244.98 241.012 244.344C243.565 243.708 250.683 236.278 251.756 233.047C252.83 229.816 252.298 220.687 252.298 220.687L251.621 207.243C251.621 207.243 226.359 197.03 222.868 199.854C219.377 202.678 217.657 214.236 217.657 215.716C217.657 217.196 217.396 220.958 217.396 220.958Z" fill="white" stroke="#0C3261" stroke-linecap="round" stroke-linejoin="round"/>
<path d="M233.259 211.683C232.521 210.922 231.609 210.352 230.601 210.023C229.593 209.694 228.52 209.617 227.475 209.797C223.713 210.339 222.64 213.027 224.349 213.027C226.058 213.027 228.913 212.215 230.664 212.486C232.415 212.757 233.259 212.934 233.259 211.683Z" fill="#0C3261" stroke="#0C3261" stroke-linecap="round" stroke-linejoin="round"/>
<path d="M237.553 211.683C238.289 210.923 239.2 210.354 240.206 210.027C241.213 209.7 242.284 209.625 243.326 209.807C247.088 210.349 248.162 213.038 246.453 213.038C244.744 213.038 241.878 212.225 240.137 212.496C238.397 212.767 237.553 212.933 237.553 211.683Z" fill="#0C3261" stroke="#0C3261" stroke-linecap="round" stroke-linejoin="round"/>
<path d="M237.553 215.581V221.761C237.553 221.761 239.304 228.212 236.344 227.806C235.467 227.675 234.628 227.355 233.886 226.867C233.145 226.379 232.518 225.736 232.051 224.981" stroke="#0C3261" stroke-linecap="round" stroke-linejoin="round"/>
<path d="M228.111 228.753C230.275 230.484 233.006 231.346 235.771 231.171C238.852 231.031 241.794 229.843 244.108 227.805" stroke="#0C3261" stroke-linecap="round" stroke-linejoin="round"/>
<path d="M230.842 216.925C230.102 216.382 229.248 216.014 228.346 215.85C227.443 215.685 226.514 215.729 225.631 215.977" stroke="#0C3261" stroke-linecap="round" stroke-linejoin="round"/>
<path d="M239.439 217.457C239.439 217.457 241.19 215.31 245.484 216.519" stroke="#0C3261" stroke-linecap="round" stroke-linejoin="round"/>
<path d="M228.547 217.727C228.733 217.727 228.914 217.672 229.068 217.569C229.223 217.466 229.343 217.32 229.414 217.148C229.485 216.977 229.503 216.788 229.467 216.607C229.431 216.425 229.342 216.257 229.211 216.126C229.079 215.995 228.912 215.906 228.73 215.87C228.548 215.833 228.36 215.852 228.188 215.923C228.017 215.994 227.871 216.114 227.767 216.268C227.664 216.423 227.609 216.604 227.609 216.79C227.609 217.038 227.708 217.277 227.884 217.453C228.06 217.629 228.299 217.727 228.547 217.727Z" fill="#0C3261"/>
<path d="M242.534 217.727C242.719 217.725 242.9 217.669 243.053 217.564C243.205 217.46 243.324 217.313 243.393 217.141C243.463 216.97 243.48 216.781 243.443 216.6C243.405 216.419 243.315 216.253 243.183 216.123C243.052 215.992 242.885 215.904 242.703 215.869C242.521 215.833 242.333 215.853 242.163 215.924C241.992 215.995 241.846 216.115 241.743 216.269C241.641 216.423 241.586 216.604 241.586 216.789C241.586 216.914 241.611 217.036 241.658 217.151C241.706 217.265 241.776 217.369 241.864 217.456C241.953 217.544 242.057 217.613 242.172 217.659C242.287 217.706 242.41 217.729 242.534 217.727Z" fill="#0C3261"/>
<path d="M248.058 208.484C248.058 208.484 248.547 211.61 249.277 212.131C249.859 212.746 250.275 213.499 250.486 214.32V223.355L252.195 223.595L252.435 214.83C253.792 212.102 254.542 209.112 254.634 206.066C254.634 201.47 247.568 206.045 248.058 208.484Z" fill="#0C3261" stroke="#0C3261" stroke-linecap="round" stroke-linejoin="round"/>
<path d="M223.943 203.366C223.943 203.366 225.412 207.264 223.463 209.942C221.515 212.621 219.076 215.789 219.076 215.789L218.836 222.605L216.887 223.334L216.158 214.569C216.158 214.569 214.209 207.014 214.209 204.586C214.209 202.157 217.857 198.979 219.076 198.499C219.936 198.19 220.841 198.025 221.754 198.01C221.754 198.01 226.621 192.163 233.687 192.163C240.753 192.163 252.446 196.332 257.313 204.825C254.534 207.35 251.051 208.964 247.329 209.452C241.232 210.182 224.433 205.065 223.943 203.366Z" fill="#0C3261" stroke="#0C3261" stroke-linecap="round" stroke-linejoin="round"/>
<path d="M224.734 267.532L236.313 261.853L248.266 268.147" stroke="#0C3261" stroke-linecap="round" stroke-linejoin="round"/>
<path d="M235.688 262.467V283.56" stroke="#0C3261" stroke-linecap="round" stroke-linejoin="round"/>
<path d="M454.321 71.2207H315.6V175.958H454.321V71.2207Z" fill="white" stroke="#0C3261" stroke-miterlimit="10"/>
<path d="M316.018 76.3477L342.697 98.5769L337.747 175.644" stroke="#0C3261" stroke-miterlimit="10"/>
<path d="M342.695 98.5771H454.248" stroke="#0C3261" stroke-miterlimit="10"/>
<path d="M418.023 111.667C414.167 104.57 399.16 89.156 399.16 89.156C393.887 84.4246 389.697 83.7993 386.925 84.2579C384.163 83.7993 379.974 84.4246 374.69 89.156C374.69 89.156 359.693 104.57 355.837 111.667C351.981 118.764 351.981 129.717 360.089 133.979C365.759 136.949 376.545 138.533 383.861 138.95C385.905 139.089 387.956 139.089 389.999 138.95C397.294 138.533 408.102 136.949 413.76 133.979C421.879 129.717 421.879 118.764 418.023 111.667Z" fill="#0C3261" stroke="#0C3261" stroke-linecap="round" stroke-linejoin="round"/>
<path d="M418.711 156.49C418.502 155.062 415.97 154.405 409.644 151.008C403.318 147.611 395.523 142.494 393.209 139.252C390.896 136.011 391.312 130.728 391.312 130.728H381.193C381.193 130.728 381.62 136.001 379.296 139.252C376.972 142.504 369.177 147.59 362.861 151.008C356.546 154.426 354.003 155.062 353.795 156.49C353.586 157.917 348.74 175.749 348.74 175.749H423.776C423.776 175.749 418.919 157.907 418.711 156.49Z" fill="#14AE5C" stroke="#0C3261" stroke-linecap="round" stroke-linejoin="round"/>
<path d="M403.484 161.357C404.526 157.188 403.88 151.029 403.297 147.277C398.857 144.474 394.772 141.441 393.209 139.252C390.885 136.001 391.312 130.728 391.312 130.728H381.192C381.192 130.728 381.62 136.001 379.296 139.252C377.712 141.472 373.543 144.557 369.041 147.381C368.374 151.008 367.217 159.158 369.218 164.389C370.864 168.458 373.063 172.28 375.752 175.749H397.273C398.753 173.05 402.223 166.401 403.484 161.357Z" fill="#14AE5C" stroke="#0C3261" stroke-linecap="round" stroke-linejoin="round"/>
<path d="M398.847 144.296C396.74 142.888 394.842 141.19 393.209 139.252C390.885 136.001 391.312 130.728 391.312 130.728H381.193C381.193 130.728 381.62 136.001 379.296 139.252C377.827 141.02 376.119 142.574 374.221 143.869L377.212 175.749H394.136L398.847 144.296Z" fill="white" stroke="#0C3261" stroke-linecap="round" stroke-linejoin="round"/>
<path d="M397.692 143.432C396.016 142.251 394.509 140.849 393.21 139.263C390.886 136.012 391.314 130.738 391.314 130.738H381.194C381.194 130.738 381.622 136.012 379.298 139.263C378.087 140.751 376.686 142.072 375.129 143.192C376.286 145.328 379.746 150.623 386.04 151.425C391.303 152.092 395.472 146.954 397.692 143.432Z" fill="white" stroke="#0C3261" stroke-linecap="round" stroke-linejoin="round"/>
<path d="M380.881 135.313C382.329 136.48 384.601 137.96 386.55 137.7C388.366 137.39 390.124 136.803 391.761 135.959C391.433 134.594 391.269 133.195 391.271 131.791L388.468 131.551L383.632 130.759H381.183C381.266 132.283 381.165 133.813 380.881 135.313Z" fill="#0C3261" stroke="#0C3261" stroke-linecap="round" stroke-linejoin="round"/>
<path d="M359.746 165.224C361.332 168.513 362.724 171.891 363.915 175.343" stroke="#0C3261" stroke-linecap="round" stroke-linejoin="round"/>
<path d="M357.453 160.742C357.453 160.742 357.88 161.503 358.547 162.827" stroke="#0C3261" stroke-linecap="round" stroke-linejoin="round"/>
<path d="M411.166 163.66C411.695 162.634 412.316 161.657 413.021 160.742" stroke="#0C3261" stroke-linecap="round" stroke-linejoin="round"/>
<path d="M406.736 175.958C407.547 172.661 408.61 169.431 409.915 166.297" stroke="#0C3261" stroke-linecap="round" stroke-linejoin="round"/>
<path d="M371.252 113.293L368 117.555C368.576 118.913 369.574 120.049 370.845 120.797C371.336 121.029 371.894 121.075 372.416 120.925C372.938 120.776 373.387 120.441 373.68 119.984L373.075 113.293H371.252Z" fill="white" stroke="#0C3261" stroke-linecap="round" stroke-linejoin="round"/>
<path d="M376.472 125.236C376.472 126.267 376.167 127.274 375.594 128.131C375.022 128.988 374.208 129.656 373.256 130.05C372.303 130.445 371.256 130.548 370.245 130.347C369.234 130.146 368.306 129.649 367.577 128.921C366.848 128.192 366.352 127.264 366.151 126.253C365.95 125.242 366.053 124.194 366.447 123.242C366.842 122.29 367.51 121.476 368.367 120.904C369.224 120.331 370.231 120.025 371.262 120.025C372.644 120.025 373.969 120.574 374.946 121.552C375.923 122.529 376.472 123.854 376.472 125.236Z" fill="white" stroke="#0C3261" stroke-linecap="round" stroke-linejoin="round"/>
<path d="M400.067 113.699L404.121 117.555C403.549 118.915 402.55 120.053 401.276 120.797C400.786 121.029 400.227 121.075 399.705 120.925C399.183 120.776 398.734 120.441 398.441 119.984L399.046 113.293L400.067 113.699Z" fill="white" stroke="#0C3261" stroke-linecap="round" stroke-linejoin="round"/>
<path d="M405.517 125.236C405.517 126.267 405.212 127.274 404.639 128.131C404.067 128.988 403.253 129.656 402.301 130.05C401.348 130.445 400.301 130.548 399.29 130.347C398.279 130.146 397.351 129.649 396.622 128.921C395.893 128.192 395.397 127.264 395.196 126.253C394.995 125.242 395.098 124.194 395.492 123.242C395.887 122.29 396.555 121.476 397.412 120.904C398.268 120.331 399.276 120.025 400.307 120.025C401.688 120.025 403.014 120.574 403.991 121.552C404.968 122.529 405.517 123.854 405.517 125.236Z" fill="white" stroke="#0C3261" stroke-linecap="round" stroke-linejoin="round"/>
<path d="M386.455 98.0879C384.169 101.419 381.591 104.54 378.754 107.415C373.73 112.428 371.25 113.293 371.25 113.293C371.25 113.293 372.886 124.1 375.304 127.487C378.347 131.75 383.214 137.429 389.29 134.782C398.263 130.895 399.336 122.381 400.045 113.689C400.066 113.699 387.268 106.634 386.455 98.0879Z" fill="white" stroke="#0C3261" stroke-linecap="round" stroke-linejoin="round"/>
<path d="M381.182 114.97C381.184 115.233 381.108 115.49 380.963 115.71C380.819 115.929 380.612 116.1 380.37 116.202C380.128 116.303 379.861 116.33 379.603 116.279C379.345 116.229 379.109 116.102 378.923 115.917C378.737 115.731 378.611 115.494 378.56 115.236C378.509 114.979 378.536 114.712 378.638 114.469C378.739 114.227 378.911 114.021 379.13 113.876C379.349 113.731 379.606 113.655 379.869 113.657C380.216 113.66 380.549 113.799 380.795 114.045C381.04 114.291 381.179 114.623 381.182 114.97Z" fill="#0C3261"/>
<path d="M394.063 114.97C394.065 115.233 393.989 115.489 393.845 115.708C393.701 115.928 393.495 116.099 393.253 116.201C393.012 116.302 392.745 116.33 392.488 116.28C392.23 116.23 391.994 116.105 391.807 115.92C391.621 115.736 391.494 115.5 391.442 115.243C391.39 114.986 391.416 114.719 391.516 114.477C391.616 114.234 391.785 114.027 392.003 113.881C392.221 113.735 392.477 113.657 392.74 113.657C393.089 113.657 393.424 113.795 393.672 114.041C393.92 114.287 394.06 114.621 394.063 114.97Z" fill="#0C3261"/>
<path d="M388.083 112.886C388.083 112.886 389.5 119.785 387.874 120.994C387.452 121.339 386.937 121.551 386.394 121.602C385.852 121.653 385.306 121.541 384.827 121.281C384.348 121.02 383.958 120.622 383.706 120.139C383.454 119.655 383.353 119.107 383.414 118.566" stroke="#0C3261" stroke-linecap="round" stroke-linejoin="round"/>
<path d="M382.6 124.246C382.6 124.246 385.643 125.455 387.467 124.85C388.647 124.432 389.746 123.816 390.718 123.026C390.718 123.026 388.884 128.3 386.456 128.3C384.027 128.3 382.6 124.246 382.6 124.246Z" stroke="#0C3261" stroke-linecap="round" stroke-linejoin="round"/>
<path d="M376.92 112.073C376.92 112.073 378.139 110.051 382.402 110.656" stroke="#0C3261" stroke-linecap="round" stroke-linejoin="round"/>
<path d="M389.291 110.656C390.261 110.251 391.306 110.059 392.357 110.095C393.407 110.131 394.438 110.394 395.377 110.865" stroke="#0C3261" stroke-linecap="round" stroke-linejoin="round"/>
<path d="M308.565 71.2207H169.844V175.958H308.565V71.2207Z" fill="white" stroke="#0C3261" stroke-miterlimit="10"/>
<path d="M210.29 79.3076H174.721V125.746H210.29V79.3076Z" fill="white" stroke="#0C3261" stroke-linecap="round" stroke-linejoin="round"/>
<path d="M207.258 83.2578H177.744V121.797H207.258V83.2578Z" fill="white" stroke="#0C3261" stroke-linecap="round" stroke-linejoin="round"/>
<path d="M198.941 94.127H186.07V110.927H198.941V94.127Z" fill="white" stroke="#0C3261" stroke-linecap="round" stroke-linejoin="round"/>
<path d="M273.663 146.465C274.699 146.74 275.771 146.86 276.842 146.819C276.842 146.819 276.352 145.339 276.31 145.245C275.821 144.203 274.226 142.505 272.976 142.682C272.765 142.715 272.564 142.793 272.386 142.909C272.208 143.025 272.056 143.178 271.941 143.357C271.826 143.536 271.75 143.738 271.718 143.948C271.686 144.159 271.699 144.373 271.756 144.579C271.914 145.015 272.167 145.41 272.497 145.737C272.827 146.063 273.225 146.312 273.663 146.465Z" fill="#0C3261"/>
<path d="M274.435 152.998C275.495 152.987 276.548 152.822 277.561 152.509C277.887 153.662 278.294 154.79 278.78 155.885C279.051 156.531 279.354 157.167 279.666 157.803C279.479 157.532 279.312 157.292 279.281 157.261C278.53 156.396 276.571 155.176 275.393 155.656C275.199 155.746 275.026 155.875 274.885 156.036C274.744 156.197 274.638 156.385 274.574 156.589C274.51 156.794 274.49 157.009 274.514 157.222C274.539 157.434 274.607 157.639 274.716 157.824C274.987 158.199 275.336 158.51 275.739 158.737C276.142 158.964 276.589 159.1 277.05 159.137C278.083 159.134 279.109 158.976 280.094 158.668C280.208 158.907 280.333 159.147 280.448 159.397C281.031 160.554 281.615 161.711 282.157 162.857C282.355 163.264 282.522 163.67 282.699 164.076L282.376 163.618C281.626 162.743 279.656 161.534 278.478 162.013C278.284 162.102 278.111 162.23 277.97 162.39C277.829 162.55 277.723 162.738 277.659 162.941C277.595 163.144 277.575 163.359 277.599 163.571C277.624 163.782 277.692 163.987 277.801 164.17C278.068 164.548 278.417 164.862 278.82 165.089C279.224 165.317 279.673 165.451 280.135 165.483C281.139 165.492 282.137 165.344 283.095 165.046C283.262 165.463 283.428 165.879 283.574 166.296C283.72 166.713 283.772 166.859 283.845 167.151C283.918 167.443 284.002 167.724 284.085 168.005C284.21 168.547 284.356 169.121 284.471 169.652C284.585 170.184 284.627 170.392 284.7 170.746C284.512 170.34 284.137 169.558 284.095 169.496C283.481 168.527 281.73 167.005 280.49 167.318C280.274 167.369 280.072 167.468 279.898 167.606C279.724 167.744 279.582 167.918 279.483 168.117C279.383 168.316 279.329 168.534 279.323 168.756C279.317 168.977 279.359 169.198 279.447 169.402C279.655 169.812 279.949 170.172 280.309 170.458C280.669 170.744 281.086 170.949 281.532 171.059C282.568 171.212 283.622 171.212 284.658 171.059C284.773 171.653 284.887 172.237 284.981 172.789C285.19 174.008 285.356 175.092 285.481 176.02H286.472C286.326 175.061 286.128 173.935 285.877 172.643C285.752 172.039 285.617 171.392 285.471 170.736C286.07 170.492 286.655 170.214 287.222 169.902C287.994 170.572 288.857 171.13 289.786 171.559C289.556 172.122 289.327 172.674 289.108 173.185C288.639 174.227 288.191 175.207 287.805 176.02H288.712C289.056 175.269 289.421 174.415 289.806 173.477C290.046 172.904 290.286 172.289 290.526 171.653C291.549 171.895 292.603 171.979 293.652 171.903C294.109 171.834 294.545 171.665 294.929 171.407C295.313 171.15 295.635 170.81 295.872 170.413C295.965 170.223 296.018 170.015 296.026 169.804C296.034 169.593 295.997 169.382 295.919 169.185C295.84 168.989 295.721 168.811 295.569 168.663C295.418 168.516 295.237 168.402 295.038 168.329C293.819 167.922 291.964 169.308 291.276 170.225C291.276 170.277 290.869 170.923 290.64 171.33C290.734 171.069 290.838 170.819 290.932 170.548C291.13 170.017 291.307 169.506 291.495 168.912C291.578 168.631 291.672 168.349 291.755 168.058C291.839 167.766 291.901 167.464 291.985 167.172C292.151 166.473 292.276 165.765 292.401 165.087C293.352 165.473 294.358 165.706 295.382 165.775C295.845 165.772 296.301 165.669 296.72 165.473C297.139 165.277 297.511 164.992 297.81 164.639C297.931 164.464 298.014 164.265 298.053 164.056C298.093 163.846 298.088 163.631 298.039 163.424C297.99 163.217 297.897 163.022 297.768 162.853C297.639 162.683 297.476 162.543 297.289 162.44C296.153 161.846 294.1 162.93 293.287 163.743C293.235 163.795 292.724 164.441 292.443 164.785C292.516 164.347 292.579 163.91 292.641 163.472C292.797 162.201 292.912 160.898 293.037 159.616L293.162 158.428C294.161 158.828 295.216 159.07 296.289 159.147C296.751 159.148 297.207 159.047 297.625 158.85C298.043 158.654 298.412 158.367 298.706 158.011C298.83 157.837 298.914 157.639 298.955 157.43C298.996 157.22 298.993 157.005 298.944 156.797C298.896 156.589 298.805 156.394 298.676 156.225C298.546 156.055 298.383 155.914 298.196 155.812C297.06 155.218 295.007 156.312 294.194 157.115C294.131 157.177 293.391 158.105 293.214 158.355C293.308 157.49 293.402 156.625 293.537 155.77C293.71 154.627 293.958 153.495 294.277 152.383C295.278 152.78 296.331 153.026 297.404 153.113C297.866 153.114 298.322 153.013 298.74 152.816C299.158 152.62 299.528 152.333 299.822 151.977C299.945 151.802 300.03 151.603 300.071 151.393C300.112 151.183 300.108 150.967 300.06 150.758C300.012 150.55 299.92 150.354 299.791 150.183C299.662 150.012 299.498 149.871 299.311 149.768C298.165 149.184 296.122 150.268 295.309 151.081C295.247 151.143 294.444 152.123 294.267 152.331C294.267 152.269 294.267 152.206 294.319 152.133C294.676 151.028 295.126 149.954 295.663 148.924C295.955 148.35 296.268 147.819 296.58 147.319C297.503 147.809 298.494 148.161 299.519 148.361C299.979 148.408 300.443 148.355 300.88 148.206C301.318 148.056 301.717 147.814 302.052 147.496C302.193 147.335 302.299 147.146 302.362 146.942C302.425 146.738 302.445 146.522 302.419 146.31C302.394 146.097 302.324 145.893 302.214 145.709C302.104 145.526 301.956 145.367 301.781 145.245C300.739 144.536 298.561 145.391 297.664 146.11C297.612 146.11 297.164 146.6 296.841 146.933L297.268 146.245C297.81 145.432 298.31 144.734 298.842 144.161C299.113 143.807 299.373 143.494 299.624 143.202C300.661 143.213 301.694 143.066 302.688 142.764C303.116 142.596 303.503 142.336 303.822 142.003C304.14 141.67 304.383 141.272 304.532 140.836C304.584 140.629 304.591 140.413 304.554 140.202C304.517 139.992 304.435 139.792 304.315 139.615C304.195 139.438 304.039 139.288 303.858 139.175C303.676 139.062 303.473 138.989 303.261 138.96C301.989 138.825 300.468 140.576 299.999 141.628C299.999 141.712 299.488 143.202 299.519 143.202C299.28 143.473 299.03 143.775 298.748 144.109C298.248 144.724 297.706 145.422 297.133 146.193C296.522 147.049 295.962 147.94 295.455 148.861C294.886 149.891 294.408 150.968 294.027 152.081C294.027 151.706 294.027 150.654 294.027 150.57C293.881 149.434 292.923 147.319 291.661 147.089C291.451 147.055 291.235 147.066 291.029 147.122C290.823 147.177 290.631 147.275 290.465 147.41C290.3 147.545 290.165 147.713 290.069 147.904C289.974 148.095 289.92 148.304 289.911 148.517C289.926 148.979 290.043 149.431 290.254 149.842C290.465 150.253 290.764 150.612 291.13 150.893C292.018 151.475 292.987 151.921 294.006 152.217C293.651 153.361 293.369 154.527 293.162 155.708C293.037 156.396 292.943 157.094 292.85 157.792C292.85 157.459 292.85 157.167 292.85 157.136C292.704 155.989 291.745 153.884 290.484 153.645C290.273 153.612 290.058 153.624 289.853 153.68C289.648 153.736 289.456 153.835 289.291 153.969C289.126 154.104 288.991 154.271 288.895 154.462C288.799 154.652 288.744 154.86 288.733 155.072C288.747 155.536 288.863 155.99 289.074 156.403C289.285 156.816 289.585 157.176 289.952 157.459C290.814 158.026 291.755 158.462 292.745 158.751C292.745 159.012 292.672 159.283 292.641 159.554C292.485 160.846 292.339 162.128 292.162 163.389C292.089 163.837 292.016 164.264 291.932 164.702C291.932 164.41 291.932 164.17 291.932 164.129C291.787 162.993 290.828 160.877 289.567 160.648C289.355 160.614 289.139 160.625 288.933 160.68C288.726 160.735 288.533 160.833 288.367 160.968C288.201 161.103 288.065 161.271 287.968 161.462C287.871 161.653 287.816 161.862 287.805 162.076C287.824 162.539 287.944 162.993 288.156 163.405C288.368 163.817 288.669 164.178 289.035 164.462C289.869 165.019 290.782 165.444 291.745 165.723C291.651 166.161 291.557 166.609 291.443 167.036C291.377 167.325 291.297 167.61 291.203 167.891C291.12 168.172 291.026 168.454 290.932 168.735C290.744 169.266 290.546 169.777 290.348 170.329L289.932 171.372C290.004 170.923 290.119 170.058 290.119 169.986C290.107 168.975 289.834 167.984 289.327 167.109C289.337 166.998 289.337 166.887 289.327 166.776C289.302 166.564 289.232 166.359 289.123 166.176C289.013 165.993 288.865 165.835 288.69 165.713C288.515 165.59 288.316 165.507 288.106 165.467C287.896 165.428 287.68 165.433 287.472 165.483C286.221 165.817 285.388 167.995 285.388 169.141C285.388 169.214 285.388 169.944 285.471 170.413C285.409 170.142 285.346 169.881 285.283 169.6C285.148 169.058 285.002 168.558 284.846 167.922C284.762 167.641 284.679 167.359 284.585 167.078C284.491 166.797 284.387 166.494 284.293 166.203C284.043 165.536 283.762 164.869 283.46 164.202C284.463 164.004 285.43 163.653 286.326 163.159C286.713 162.906 287.039 162.57 287.28 162.175C287.522 161.781 287.673 161.337 287.722 160.877C287.73 160.663 287.693 160.45 287.613 160.252C287.532 160.054 287.411 159.875 287.256 159.727C287.101 159.579 286.917 159.466 286.715 159.395C286.514 159.324 286.299 159.296 286.086 159.314C284.804 159.449 283.699 161.492 283.46 162.617C283.46 162.68 283.376 163.514 283.345 163.962C283.157 163.566 282.98 163.159 282.782 162.763C282.209 161.617 281.594 160.471 280.99 159.324L280.437 158.282C281.477 158.065 282.478 157.692 283.408 157.177C283.791 156.92 284.114 156.583 284.355 156.189C284.596 155.795 284.749 155.354 284.804 154.895C284.809 154.682 284.769 154.47 284.687 154.273C284.605 154.076 284.482 153.898 284.327 153.752C284.172 153.605 283.987 153.493 283.786 153.423C283.584 153.352 283.37 153.325 283.157 153.342C281.886 153.478 280.771 155.51 280.542 156.635C280.542 156.719 280.417 157.907 280.406 158.209C280 157.438 279.604 156.667 279.249 155.885C278.767 154.831 278.349 153.749 277.999 152.644C279.041 152.425 280.046 152.053 280.979 151.539C281.367 151.286 281.693 150.95 281.934 150.555C282.176 150.16 282.326 149.717 282.376 149.257C282.382 149.044 282.344 148.832 282.263 148.635C282.182 148.438 282.06 148.261 281.906 148.114C281.751 147.967 281.567 147.855 281.366 147.784C281.166 147.714 280.952 147.686 280.74 147.704C279.458 147.84 278.353 149.872 278.113 150.997C278.113 151.091 277.988 152.363 277.978 152.592L277.915 152.404C277.597 151.286 277.377 150.142 277.259 148.986C277.186 148.34 277.155 147.735 277.144 147.131C278.181 147.033 279.197 146.777 280.156 146.37C280.565 146.164 280.923 145.87 281.206 145.51C281.489 145.15 281.689 144.732 281.792 144.286C281.822 144.075 281.806 143.859 281.747 143.654C281.688 143.449 281.586 143.259 281.448 143.096C281.311 142.933 281.14 142.8 280.948 142.707C280.756 142.614 280.547 142.563 280.333 142.556C279.051 142.556 277.717 144.463 277.363 145.547C277.363 145.609 277.217 146.235 277.134 146.693C277.134 146.422 277.134 146.141 277.134 145.88C277.134 144.911 277.196 144.025 277.259 143.233C277.259 142.785 277.332 142.389 277.384 142.004C278.257 141.431 279.038 140.728 279.698 139.919C279.965 139.541 280.146 139.109 280.229 138.654C280.311 138.199 280.294 137.731 280.177 137.283C280.105 137.083 279.991 136.901 279.844 136.748C279.697 136.595 279.52 136.474 279.324 136.394C279.128 136.314 278.917 136.275 278.705 136.281C278.493 136.287 278.284 136.337 278.093 136.428C276.946 137.022 276.644 139.315 276.842 140.451C276.842 140.545 277.29 142.045 277.301 142.035C277.301 142.4 277.196 142.796 277.155 143.213C277.071 144.005 276.988 144.901 276.967 145.87C276.937 146.913 276.961 147.956 277.04 148.996C277.133 150.168 277.328 151.329 277.624 152.467C277.415 152.154 276.821 151.279 276.769 151.216C276.019 150.351 274.059 149.132 272.871 149.622C272.677 149.71 272.504 149.839 272.363 149.999C272.222 150.159 272.117 150.347 272.054 150.551C271.991 150.754 271.972 150.969 271.998 151.181C272.024 151.393 272.094 151.597 272.204 151.779C272.473 152.124 272.809 152.411 273.193 152.621C273.576 152.83 273.999 152.959 274.435 152.998Z" fill="#0C3261"/>
<path d="M296.476 146.964C296.476 146.964 296.893 145.464 296.903 145.36C297.059 144.224 296.695 141.931 295.538 141.379C295.343 141.287 295.13 141.238 294.914 141.235C294.698 141.233 294.485 141.276 294.287 141.363C294.09 141.45 293.913 141.578 293.769 141.739C293.626 141.9 293.518 142.09 293.454 142.296C293.349 142.745 293.344 143.211 293.437 143.663C293.531 144.115 293.721 144.541 293.995 144.911C294.722 145.709 295.557 146.4 296.476 146.964Z" fill="#0C3261"/>
<path d="M269.797 151.206C270.214 150.581 269.172 148.705 265.222 145.995C261.273 143.285 243.743 132.906 243.743 132.906L237.918 132.603V132.28L234.698 132.447L231.477 132.28V132.603L225.652 132.906C225.652 132.906 208.185 143.327 204.235 146.005C200.285 148.684 199.243 150.581 199.66 151.216C200.077 151.852 194.043 175.968 194.043 175.968H275.331C275.331 175.968 269.36 151.831 269.797 151.206Z" fill="#14AE5C" stroke="#0C3261" stroke-linecap="round" stroke-linejoin="round"/>
<path d="M209.957 169.486C210.38 171.417 210.7 173.368 210.916 175.333" stroke="#0C3261" stroke-linecap="round" stroke-linejoin="round"/>
<path d="M204.059 151.623C206.273 156.678 208.068 161.906 209.426 167.255" stroke="#0C3261" stroke-linecap="round" stroke-linejoin="round"/>
<path d="M263.075 158.126C261.387 162.899 259.136 170.142 258.75 175.749" stroke="#0C3261" stroke-linecap="round" stroke-linejoin="round"/>
<path d="M264.993 153.072C264.993 153.072 264.534 154.177 263.867 155.959" stroke="#0C3261" stroke-linecap="round" stroke-linejoin="round"/>
<path d="M234.207 155.156V175.958" stroke="#0C3261" stroke-linecap="round" stroke-linejoin="round"/>
<path d="M234.207 149.956V153.072" stroke="#0C3261" stroke-linecap="round" stroke-linejoin="round"/>
<path d="M227.141 128.518C227.141 128.518 222.774 129.561 222.149 132.26C221.524 134.959 220.898 152.228 220.898 152.228C220.898 152.228 221.107 153.885 223.608 151.394C226.109 148.903 229.006 147.444 230.257 147.444C231.71 147.721 233.114 148.209 234.426 148.893C234.426 148.893 237.761 147.236 239.636 147.236C241.512 147.236 241.304 147.236 244.212 149.101C247.119 150.967 248.38 152.436 248.787 151.185C249.193 149.935 245.879 133.302 245.254 131.009C244.628 128.716 240.47 128.102 238.594 128.102C236.718 128.102 227.141 128.518 227.141 128.518Z" fill="#14AE5C" stroke="#0C3261" stroke-linecap="round" stroke-linejoin="round"/>
<path d="M225.475 124.59C225.475 124.59 225.683 134.574 226.308 136.054C226.934 137.533 232.342 148.945 234.416 148.945C236.49 148.945 241.909 135.011 242.118 134.355C242.326 133.698 242.733 124.975 242.733 124.975L225.475 124.59Z" fill="white" stroke="#0C3261" stroke-linecap="round" stroke-linejoin="round"/>
<path d="M242.483 129.821C242.618 127.435 242.733 125.007 242.733 125.007L225.475 124.59C225.475 124.59 225.475 126.424 225.61 128.633C228.539 130.488 234.01 133.844 235.24 133.844C236.303 133.865 239.95 131.531 242.483 129.821Z" fill="#0C3261" stroke="#0C3261" stroke-linecap="round" stroke-linejoin="round"/>
<path d="M219.43 108.811C219.43 108.811 217.857 102.558 214.647 106.164C211.437 109.77 219.628 116.002 220.389 116.002C221.15 116.002 221.608 114.491 221.608 114.491L219.43 108.811Z" fill="white" stroke="#0C3261" stroke-linecap="round" stroke-linejoin="round"/>
<path d="M247.829 108.905C247.829 108.905 249.663 102.559 252.727 105.967C255.791 109.374 247.329 116.128 246.568 116.169C245.807 116.211 245.422 114.731 245.422 114.731L247.829 108.905Z" fill="white" stroke="#0C3261" stroke-linecap="round" stroke-linejoin="round"/>
<path d="M218.982 106.54C218.982 106.54 220.399 115.815 221.681 120.359C222.963 124.902 230.591 131.145 235.135 131.145C239.679 131.145 245.713 124.142 246.672 120.171C247.63 116.2 248.308 106.727 248.308 106.727C248.308 106.727 249.433 99.5363 249.162 97.452C248.891 95.3677 248.12 91.9703 241.867 88.9376C235.614 85.9049 227.631 86.1029 223.713 88.75C219.794 91.3971 218.304 94.6173 218.804 95.9409C219.305 97.2644 218.982 106.54 218.982 106.54Z" fill="white" stroke="#0C3261" stroke-linecap="round" stroke-linejoin="round"/>
<path d="M236.334 101.809L236.71 109.375C236.71 109.375 239.659 110.896 238.064 112.407C236.47 113.918 232.228 115.44 231.457 112.032" stroke="#0C3261" stroke-linecap="round" stroke-linejoin="round"/>
<path d="M228.434 115.627C228.613 116.198 228.943 116.71 229.388 117.11C229.834 117.51 230.379 117.782 230.966 117.899C233.376 117.92 235.784 117.791 238.178 117.513C238.932 116.807 239.442 115.881 239.637 114.866" stroke="#0C3261" stroke-linecap="round" stroke-linejoin="round"/>
<path d="M229.445 105.498C229.453 105.893 229.313 106.278 229.053 106.577C228.793 106.875 228.431 107.066 228.038 107.113C227.849 107.093 227.666 107.034 227.5 106.941C227.334 106.848 227.188 106.722 227.072 106.571C226.956 106.42 226.872 106.247 226.825 106.062C226.778 105.878 226.769 105.686 226.798 105.498C226.79 105.103 226.93 104.719 227.191 104.423C227.451 104.126 227.813 103.937 228.205 103.893C228.394 103.912 228.577 103.969 228.743 104.061C228.909 104.153 229.054 104.278 229.17 104.428C229.286 104.578 229.371 104.751 229.418 104.935C229.465 105.118 229.474 105.31 229.445 105.498Z" fill="#0C3261"/>
<path d="M242.013 105.498C242.021 105.893 241.882 106.278 241.622 106.577C241.362 106.875 241 107.066 240.607 107.113C240.417 107.093 240.234 107.034 240.068 106.941C239.902 106.848 239.757 106.722 239.641 106.571C239.525 106.42 239.441 106.247 239.393 106.062C239.346 105.878 239.337 105.686 239.366 105.498C239.359 105.103 239.499 104.719 239.759 104.423C240.019 104.126 240.381 103.937 240.773 103.893C240.962 103.912 241.145 103.969 241.311 104.061C241.477 104.153 241.623 104.278 241.739 104.428C241.855 104.578 241.939 104.751 241.986 104.935C242.033 105.118 242.043 105.31 242.013 105.498Z" fill="#0C3261"/>
<path d="M223.244 100.86C223.244 100.86 225.85 98.2128 230.894 99.3487" stroke="#0C3261" stroke-linecap="round" stroke-linejoin="round"/>
<path d="M238.865 98.9735C238.865 98.9735 242.909 97.6395 245.796 100.297" stroke="#0C3261" stroke-linecap="round" stroke-linejoin="round"/>
<path d="M225.402 109.906C225.402 110.021 225.367 110.134 225.303 110.23C225.239 110.326 225.148 110.401 225.041 110.445C224.935 110.489 224.817 110.501 224.704 110.478C224.591 110.456 224.487 110.4 224.405 110.319C224.324 110.237 224.268 110.133 224.246 110.02C224.223 109.907 224.235 109.789 224.279 109.683C224.323 109.576 224.398 109.485 224.494 109.421C224.59 109.356 224.703 109.322 224.818 109.322C224.973 109.322 225.121 109.384 225.231 109.493C225.34 109.603 225.402 109.751 225.402 109.906Z" stroke="#0C3261" stroke-width="0.5" stroke-linecap="round" stroke-linejoin="round"/>
<path d="M228.611 110.103C228.611 110.219 228.576 110.331 228.512 110.427C228.448 110.523 228.357 110.598 228.25 110.642C228.144 110.686 228.026 110.698 227.913 110.676C227.8 110.653 227.696 110.597 227.614 110.516C227.533 110.434 227.477 110.33 227.455 110.217C227.432 110.104 227.444 109.986 227.488 109.88C227.532 109.773 227.607 109.682 227.703 109.618C227.799 109.554 227.912 109.52 228.027 109.52C228.182 109.52 228.33 109.581 228.44 109.69C228.549 109.8 228.611 109.948 228.611 110.103Z" stroke="#0C3261" stroke-width="0.5" stroke-linecap="round" stroke-linejoin="round"/>
<path d="M226.683 112.032C226.683 112.147 226.649 112.26 226.584 112.356C226.52 112.452 226.429 112.527 226.323 112.571C226.216 112.615 226.099 112.627 225.985 112.604C225.872 112.582 225.768 112.526 225.687 112.445C225.605 112.363 225.549 112.259 225.527 112.146C225.504 112.032 225.516 111.915 225.56 111.809C225.604 111.702 225.679 111.611 225.775 111.547C225.871 111.482 225.984 111.448 226.099 111.448C226.254 111.448 226.402 111.51 226.512 111.619C226.621 111.729 226.683 111.877 226.683 112.032Z" stroke="#0C3261" stroke-width="0.5" stroke-linecap="round" stroke-linejoin="round"/>
<path d="M240.616 109.906C240.616 110.021 240.582 110.134 240.518 110.23C240.454 110.326 240.363 110.401 240.256 110.445C240.15 110.489 240.032 110.501 239.919 110.478C239.806 110.456 239.702 110.4 239.62 110.319C239.539 110.237 239.483 110.133 239.46 110.02C239.438 109.907 239.449 109.789 239.494 109.683C239.538 109.576 239.613 109.485 239.709 109.421C239.805 109.356 239.917 109.322 240.033 109.322C240.188 109.322 240.336 109.384 240.445 109.493C240.555 109.603 240.616 109.751 240.616 109.906Z" stroke="#0C3261" stroke-width="0.5" stroke-linecap="round" stroke-linejoin="round"/>
<path d="M243.827 110.103C243.827 110.219 243.793 110.331 243.729 110.427C243.665 110.523 243.574 110.598 243.467 110.642C243.36 110.686 243.243 110.698 243.13 110.676C243.017 110.653 242.913 110.597 242.831 110.516C242.749 110.434 242.694 110.33 242.671 110.217C242.649 110.104 242.66 109.986 242.705 109.88C242.749 109.773 242.824 109.682 242.92 109.618C243.016 109.554 243.128 109.52 243.244 109.52C243.399 109.52 243.547 109.581 243.656 109.69C243.766 109.8 243.827 109.948 243.827 110.103Z" stroke="#0C3261" stroke-width="0.5" stroke-linecap="round" stroke-linejoin="round"/>
<path d="M241.898 112.032C241.898 112.147 241.863 112.26 241.799 112.356C241.735 112.452 241.644 112.527 241.537 112.571C241.431 112.615 241.313 112.627 241.2 112.604C241.087 112.582 240.983 112.526 240.901 112.445C240.82 112.363 240.764 112.259 240.742 112.146C240.719 112.032 240.731 111.915 240.775 111.809C240.819 111.702 240.894 111.611 240.99 111.547C241.086 111.482 241.199 111.448 241.314 111.448C241.469 111.448 241.617 111.51 241.727 111.619C241.836 111.729 241.898 111.877 241.898 112.032Z" stroke="#0C3261" stroke-width="0.5" stroke-linecap="round" stroke-linejoin="round"/>
<path d="M220.93 94.4294C221.171 95.4197 221.307 96.4327 221.336 97.4516C221.238 98.82 220.632 100.102 219.637 101.047L219.429 108.811L217.345 101.433C217.345 101.433 215.823 90.4483 215.938 88.1764C216.052 85.9045 216.396 82.8822 218.866 82.6947C219.603 82.649 220.339 82.7793 221.015 83.0747C221.691 83.3701 222.287 83.8221 222.753 84.3934C222.753 84.3934 226.922 77.2025 231.435 77.5777C235.947 77.9528 234.363 79.8496 234.363 79.8496C234.363 79.8496 243.972 77.0149 251.1 78.3384C258.229 79.662 256.822 88.562 255.415 90.2607C254.008 91.9594 249.996 93.2934 249.996 93.2934C249.996 93.2934 252.538 95.3777 252.799 97.6392C253.059 99.9007 250.371 100.859 250.371 100.859L248.286 108.811L247.984 99.9111C247.984 99.9111 248.182 99.7235 246.942 97.8268C245.702 95.9301 243.607 92.8974 243.607 92.8974C243.607 92.8974 245.024 94.7941 240.085 94.9817C235.145 95.1693 227.693 89.3019 227.693 89.3019C227.693 89.3019 226.422 91.9595 225.088 92.147C223.754 92.3346 220.93 94.4294 220.93 94.4294Z" fill="#14AE5C" stroke="#0C3261" stroke-linecap="round" stroke-linejoin="round"/>
<path d="M35.2793 419.052H697.081" stroke="#0C3261" stroke-miterlimit="10"/>
<path d="M0.919922 419.052H18.7408" stroke="#0C3261" stroke-miterlimit="10"/>
</svg>
