<svg width="18" height="16" viewBox="0 0 18 16" fill="none" xmlns="http://www.w3.org/2000/svg">
<path d="M13.3872 0.916504H5.05387C2.55387 0.916504 0.887207 2.1665 0.887207 5.08317V10.9165C0.887207 13.8332 2.55387 15.0832 5.05387 15.0832H13.3872C15.8872 15.0832 17.5539 13.8332 17.5539 10.9165V5.08317C17.5539 2.1665 15.8872 0.916504 13.3872 0.916504ZM13.7789 5.9915L11.1705 8.07484C10.6205 8.5165 9.92054 8.73317 9.22054 8.73317C8.52054 8.73317 7.81221 8.5165 7.27054 8.07484L4.66221 5.9915C4.39554 5.77484 4.35387 5.37484 4.56221 5.10817C4.77887 4.8415 5.17054 4.7915 5.43721 5.00817L8.04554 7.0915C8.67887 7.59984 9.75387 7.59984 10.3872 7.0915L12.9955 5.00817C13.2622 4.7915 13.6622 4.83317 13.8705 5.10817C14.0872 5.37484 14.0455 5.77484 13.7789 5.9915Z" fill="#14AE5C"/>
</svg>
