<svg width="18" height="14" viewBox="0 0 18 14" fill="none" xmlns="http://www.w3.org/2000/svg">
<path d="M15.3602 3.66412C15.371 3.80995 15.371 3.95495 15.371 4.09995C15.371 8.53745 11.9935 13.6508 5.82102 13.6508C3.91935 13.6508 2.15268 13.1 0.666016 12.1433C0.936016 12.1741 1.19602 12.185 1.47685 12.185C3.04602 12.185 4.49018 11.655 5.64435 10.7508C4.16852 10.72 2.93185 9.75329 2.50518 8.42329C2.71268 8.45412 2.92102 8.47495 3.13935 8.47495C3.44018 8.47495 3.74268 8.43329 4.02352 8.36079C2.48435 8.04912 1.33185 6.69829 1.33185 5.06662V5.02495C1.77935 5.27412 2.29852 5.42995 2.84852 5.45079C1.94435 4.84912 1.35185 3.81995 1.35185 2.65579C1.35185 2.03245 1.51768 1.46079 1.80852 0.962454C3.46102 2.99829 5.94518 4.32912 8.73018 4.47495C8.67852 4.22495 8.64685 3.96579 8.64685 3.70579C8.64685 1.85579 10.1435 0.349121 12.0035 0.349121C12.9702 0.349121 13.8427 0.754121 14.456 1.40912C15.2143 1.26329 15.941 0.982454 16.586 0.598288C16.3368 1.37745 15.806 2.03245 15.1102 2.44829C15.786 2.37495 16.441 2.18829 17.0427 1.92829C16.586 2.59329 16.0152 3.18579 15.3602 3.66412Z" fill="#0C3261"/>
</svg>
