<svg width="18" height="16" viewBox="0 0 18 16" fill="none" xmlns="http://www.w3.org/2000/svg">
<path d="M16.6257 3.14171C16.284 2.95837 15.5673 2.76671 14.5923 3.45004L13.3673 4.31671C13.2757 1.72504 12.1507 0.708374 9.41732 0.708374H4.41732C1.56732 0.708374 0.458984 1.81671 0.458984 4.66671V11.3334C0.458984 13.25 1.50065 15.2917 4.41732 15.2917H9.41732C12.1507 15.2917 13.2757 14.275 13.3673 11.6834L14.5923 12.55C15.109 12.9167 15.559 13.0334 15.9173 13.0334C16.2257 13.0334 16.4673 12.9417 16.6257 12.8584C16.9673 12.6834 17.5423 12.2084 17.5423 11.0167V4.98337C17.5423 3.79171 16.9673 3.31671 16.6257 3.14171ZM8.16732 7.48337C7.30898 7.48337 6.60065 6.78337 6.60065 5.91671C6.60065 5.05004 7.30898 4.35004 8.16732 4.35004C9.02565 4.35004 9.73398 5.05004 9.73398 5.91671C9.73398 6.78337 9.02565 7.48337 8.16732 7.48337Z" fill="#14AE5C"/>
</svg>
