<svg width="28" height="28" viewBox="0 0 28 28" fill="none" xmlns="http://www.w3.org/2000/svg">
<g clip-path="url(#clip0_0_9740)">
<path d="M22.1484 14.0548C20.3391 14.0548 18.8672 15.5267 18.8672 17.336C18.8672 19.1453 20.3391 20.6172 22.1484 20.6172H26.7968C26.8154 20.6172 26.8335 20.6154 26.8518 20.6145C26.8699 20.6153 26.8878 20.6172 26.9062 20.6172C27.5103 20.6172 27.9999 20.1275 27.9999 19.5234V10.9375C27.9999 9.48141 27.2843 8.18997 26.1868 7.39432L22.4659 1.29012C22.3142 1.04118 22.0693 0.863116 21.7857 0.795522C21.5021 0.727819 21.2033 0.776218 20.9555 0.929889L18.2115 2.63154L16.974 0.537343C16.8252 0.285562 16.5818 0.103891 16.2982 0.0327973C16.0145 -0.0382963 15.7141 0.00725825 15.4643 0.15907L4.92783 6.56253H3.28124C2.68728 6.56253 2.20237 6.08664 2.18782 5.49612C2.20237 4.90561 2.68728 4.42972 3.28124 4.42972H5.30468C5.90875 4.42972 6.39843 3.94005 6.39843 3.33597C6.39843 2.73189 5.90875 2.24222 5.30468 2.24222H3.28124C1.7337 2.24222 0.433069 3.31924 0.0891405 4.76304C0.0319374 4.89571 0 5.04173 0 5.19534V5.46878V5.52347V23.625C0 26.0374 1.96262 28 4.37499 28H23.625C25.5111 28 27.1793 26.7985 27.7758 25.0102C27.967 24.4372 27.6574 23.8177 27.0844 23.6265C26.5114 23.4354 25.8919 23.7449 25.7007 24.3179C25.4025 25.2119 24.5684 25.8125 23.625 25.8125H4.37499C3.16881 25.8125 2.1875 24.8312 2.1875 23.625V8.56239C2.52978 8.6838 2.89789 8.75002 3.28124 8.75002H23.625C24.8311 8.75002 25.8125 9.73133 25.8125 10.9375V14.0548H22.1484ZM25.8125 18.4297H22.1484C21.5453 18.4297 21.0546 17.9391 21.0546 17.3359C21.0546 16.7329 21.5453 16.2422 22.1484 16.2422H25.8125V18.4297ZM9.1398 6.56258L15.6541 2.6036L16.8188 4.57459C16.8411 4.62845 16.8668 4.68155 16.8986 4.73274C16.9224 4.77108 16.9487 4.80679 16.9762 4.84113L17.9934 6.56258H9.1398ZM20.5343 6.56253L19.3246 4.51525L21.1717 3.36982L23.1179 6.56253H20.5343Z" fill="#14AE5C"/>
</g>
<defs>
<clipPath id="clip0_0_9740">
<rect width="28" height="28" fill="white"/>
</clipPath>
</defs>
</svg>
