<svg width="18" height="12" viewBox="0 0 18 12" fill="none" xmlns="http://www.w3.org/2000/svg">
<path d="M16.9935 2.00234C16.8018 1.28734 16.2393 0.723177 15.5251 0.530677C14.2201 0.172343 8.9993 0.16651 8.9993 0.16651C8.9993 0.16651 3.7793 0.160677 2.47346 0.503177C1.77347 0.69401 1.19513 1.27068 1.0018 1.98484C0.657632 3.28984 0.654298 5.99651 0.654298 5.99651C0.654298 5.99651 0.650965 8.71651 0.992631 10.0082C1.1843 10.7223 1.7468 11.2865 2.4618 11.479C3.78013 11.8373 8.9868 11.8432 8.9868 11.8432C8.9868 11.8432 14.2076 11.849 15.5126 11.5073C16.226 11.3157 16.791 10.7523 16.9851 10.0382C17.3301 8.73401 17.3326 6.02818 17.3326 6.02818C17.3326 6.02818 17.3493 3.30734 16.9935 2.00234ZM7.3293 8.50401L7.33347 3.50401L11.6726 6.00818L7.3293 8.50401Z" fill="#0C3261"/>
</svg>
